M48
; DRILL file {KiCad 7.0.9} date Thu Dec  7 14:07:55 2023
; FORMAT={-:-/ absolute / metric / decimal}
; #@! TF.CreationDate,2023-12-07T14:07:55+01:00
; #@! TF.GenerationSoftware,Kicad,Pcbnew,7.0.9
; #@! TF.FileFunction,Plated,1,2,PTH
FMAT,2
METRIC
; #@! TA.AperFunction,Plated,PTH,ViaDrill
T1C0.400
; #@! TA.AperFunction,Plated,PTH,ViaDrill
T2C0.600
; #@! TA.AperFunction,Plated,PTH,ViaDrill
T3C0.700
; #@! TA.AperFunction,Plated,PTH,ComponentDrill
T4C1.000
; #@! TA.AperFunction,Plated,PTH,ComponentDrill
T5C1.300
; #@! TA.AperFunction,Plated,PTH,ComponentDrill
T6C4.300
%
G90
G05
T1
X57.08Y-89.84
X67.02Y-115.13
X82.97Y-109.4
X85.57Y-115.05
X89.05Y-108.49
X89.05Y-111.85
X90.5Y-113.5
X94.55Y-113.5
X96.0Y-106.3
X98.587Y-115.03
X101.55Y-108.49
X101.55Y-112.25
X103.525Y-113.5
X108.1Y-107.5
X108.15Y-113.5
X109.27Y-57.935
X111.605Y-115.01
X114.81Y-61.965
X116.54Y-108.49
X116.54Y-112.375
X118.684Y-114.11
X118.7Y-107.4
X138.675Y-83.05
X139.925Y-84.3
X142.16Y-53.05
X144.55Y-110.0
X145.37Y-59.9
X146.55Y-53.08
X148.15Y-76.95
X148.15Y-78.65
X148.2Y-110.0
X149.79Y-53.21
X150.175Y-55.775
X152.25Y-85.6
X152.25Y-86.91
X156.625Y-117.225
X156.65Y-121.86
X157.5Y-116.475
X157.88Y-121.86
X158.46Y-83.01
X158.46Y-84.27
X158.46Y-85.6
X158.46Y-86.91
X158.76Y-73.52
X164.33Y-53.23
X166.14Y-78.72
X166.59Y-73.52
X168.8Y-57.025
X168.82Y-58.3
X170.1Y-63.0
X170.4Y-81.48
X175.725Y-62.675
X176.39Y-58.3
X177.39Y-61.12
X177.78Y-57.025
X178.2Y-74.4
X178.2Y-77.3
X179.62Y-61.12
X180.52Y-71.0
X182.41Y-74.1
X184.71Y-66.4
X184.74Y-69.7
X189.65Y-57.9
X200.1Y-70.0
X211.04Y-91.02
X215.32Y-110.92
X217.66Y-112.01
T2
X51.14Y-55.033
X51.14Y-64.749
X51.14Y-74.464
X51.14Y-84.18
X51.14Y-93.896
X51.14Y-103.611
X51.14Y-113.327
X51.14Y-123.043
X55.031Y-124.03
X55.046Y-51.16
X64.787Y-124.03
X64.802Y-51.16
X74.543Y-124.03
X74.558Y-51.16
X84.299Y-124.03
X84.314Y-51.16
X94.055Y-124.03
X94.071Y-51.16
X103.811Y-124.03
X103.827Y-51.16
X113.567Y-124.03
X113.583Y-51.16
X123.323Y-124.03
X123.339Y-51.16
X133.079Y-124.03
X133.095Y-51.16
X142.836Y-124.03
X142.851Y-51.16
X152.455Y-56.13
X152.455Y-57.532
X152.455Y-58.934
X152.455Y-60.337
X152.455Y-61.739
X152.455Y-63.141
X152.455Y-64.543
X152.455Y-65.946
X152.455Y-67.348
X152.455Y-68.75
X152.592Y-124.03
X152.607Y-51.16
X154.234Y-56.13
X154.234Y-57.532
X154.234Y-64.543
X154.234Y-65.946
X154.234Y-67.348
X154.234Y-68.75
X156.013Y-56.13
X156.013Y-57.532
X156.013Y-64.543
X156.013Y-65.946
X156.013Y-67.348
X156.013Y-68.75
X157.792Y-56.13
X157.792Y-57.532
X157.792Y-64.543
X157.792Y-65.946
X157.792Y-67.348
X157.792Y-68.75
X157.89Y-58.943
X157.89Y-60.346
X157.89Y-61.748
X157.89Y-63.15
X159.571Y-56.13
X159.571Y-57.532
X159.571Y-58.934
X159.571Y-60.337
X159.571Y-61.739
X159.571Y-63.141
X159.571Y-64.543
X159.571Y-65.946
X159.571Y-67.348
X159.571Y-68.75
X161.411Y-56.13
X161.411Y-57.532
X161.411Y-58.934
X161.411Y-60.337
X161.411Y-61.739
X161.411Y-63.141
X161.411Y-64.543
X161.411Y-65.946
X161.411Y-67.348
X161.411Y-68.75
X162.348Y-124.03
X162.363Y-51.16
X163.13Y-56.13
X163.13Y-57.532
X163.13Y-58.934
X163.13Y-60.337
X163.13Y-61.739
X163.13Y-63.141
X163.13Y-64.543
X163.13Y-65.946
X163.13Y-67.348
X163.13Y-68.75
X172.104Y-124.03
X172.119Y-51.16
X181.86Y-124.03
X181.876Y-51.16
X191.616Y-124.03
X191.632Y-51.16
X201.372Y-124.03
X201.388Y-51.16
X211.128Y-124.03
X211.144Y-51.16
X220.884Y-124.03
X220.9Y-51.16
X230.641Y-124.03
X230.656Y-51.16
X233.82Y-55.033
X233.82Y-64.749
X233.82Y-74.464
X233.82Y-84.18
X233.82Y-93.896
X233.82Y-103.611
X233.82Y-113.327
X233.82Y-123.043
T3
X162.93Y-54.48
X168.82Y-54.48
T4
X65.45Y-61.15
X85.135Y-53.665
X85.135Y-56.205
X87.675Y-53.665
X87.675Y-56.205
X90.215Y-53.665
X90.215Y-56.205
X92.755Y-53.665
X92.755Y-56.205
X95.295Y-53.665
X95.295Y-56.205
X97.835Y-53.665
X97.835Y-56.205
X100.375Y-53.665
X100.375Y-56.205
X102.915Y-53.665
X102.915Y-56.205
X105.455Y-53.665
X105.455Y-56.205
X107.995Y-53.665
X107.995Y-56.205
X110.535Y-53.665
X110.535Y-56.205
X113.075Y-53.665
X113.075Y-56.205
X115.615Y-53.665
X115.615Y-56.205
X140.967Y-105.5
X144.55Y-105.5
X148.133Y-105.5
X151.717Y-105.5
X173.3Y-89.44
X173.3Y-91.98
X173.3Y-94.52
X173.3Y-97.06
X173.3Y-99.6
X173.3Y-102.14
X175.36Y-54.0
X177.9Y-54.0
X180.44Y-54.0
X182.98Y-54.0
X185.52Y-54.0
X188.06Y-54.0
X200.1Y-78.0
X228.3Y-69.46
X228.3Y-72.0
T5
X216.14Y-68.06
X216.14Y-73.14
X216.16Y-56.55
X216.16Y-61.63
T6
X55.0Y-60.0
X55.0Y-119.0
X230.0Y-60.0
X230.0Y-119.0
T0
M30
