G04 #@! TF.GenerationSoftware,KiCad,Pcbnew,7.0.9*
G04 #@! TF.CreationDate,2023-12-07T14:07:32+01:00*
G04 #@! TF.ProjectId,ESP32-S3_flipdot,45535033-322d-4533-935f-666c6970646f,rev?*
G04 #@! TF.SameCoordinates,Original*
G04 #@! TF.FileFunction,Copper,L1,Top*
G04 #@! TF.FilePolarity,Positive*
%FSLAX46Y46*%
G04 Gerber Fmt 4.6, Leading zero omitted, Abs format (unit mm)*
G04 Created by KiCad (PCBNEW 7.0.9) date 2023-12-07 14:07:32*
%MOMM*%
%LPD*%
G01*
G04 APERTURE LIST*
G04 Aperture macros list*
%AMRoundRect*
0 Rectangle with rounded corners*
0 $1 Rounding radius*
0 $2 $3 $4 $5 $6 $7 $8 $9 X,Y pos of 4 corners*
0 Add a 4 corners polygon primitive as box body*
4,1,4,$2,$3,$4,$5,$6,$7,$8,$9,$2,$3,0*
0 Add four circle primitives for the rounded corners*
1,1,$1+$1,$2,$3*
1,1,$1+$1,$4,$5*
1,1,$1+$1,$6,$7*
1,1,$1+$1,$8,$9*
0 Add four rect primitives between the rounded corners*
20,1,$1+$1,$2,$3,$4,$5,0*
20,1,$1+$1,$4,$5,$6,$7,0*
20,1,$1+$1,$6,$7,$8,$9,0*
20,1,$1+$1,$8,$9,$2,$3,0*%
%AMFreePoly0*
4,1,9,3.862500,-0.866500,0.737500,-0.866500,0.737500,-0.450000,-0.737500,-0.450000,-0.737500,0.450000,0.737500,0.450000,0.737500,0.866500,3.862500,0.866500,3.862500,-0.866500,3.862500,-0.866500,$1*%
G04 Aperture macros list end*
G04 #@! TA.AperFunction,ComponentPad*
%ADD10C,8.600000*%
G04 #@! TD*
G04 #@! TA.AperFunction,SMDPad,CuDef*
%ADD11RoundRect,0.225000X-0.250000X0.225000X-0.250000X-0.225000X0.250000X-0.225000X0.250000X0.225000X0*%
G04 #@! TD*
G04 #@! TA.AperFunction,SMDPad,CuDef*
%ADD12RoundRect,0.250000X0.650000X2.450000X-0.650000X2.450000X-0.650000X-2.450000X0.650000X-2.450000X0*%
G04 #@! TD*
G04 #@! TA.AperFunction,SMDPad,CuDef*
%ADD13RoundRect,0.200000X0.275000X-0.200000X0.275000X0.200000X-0.275000X0.200000X-0.275000X-0.200000X0*%
G04 #@! TD*
G04 #@! TA.AperFunction,ComponentPad*
%ADD14R,2.000000X2.000000*%
G04 #@! TD*
G04 #@! TA.AperFunction,SMDPad,CuDef*
%ADD15R,2.000000X1.500000*%
G04 #@! TD*
G04 #@! TA.AperFunction,SMDPad,CuDef*
%ADD16R,2.000000X3.800000*%
G04 #@! TD*
G04 #@! TA.AperFunction,SMDPad,CuDef*
%ADD17RoundRect,0.225000X0.250000X-0.225000X0.250000X0.225000X-0.250000X0.225000X-0.250000X-0.225000X0*%
G04 #@! TD*
G04 #@! TA.AperFunction,ComponentPad*
%ADD18R,1.700000X1.700000*%
G04 #@! TD*
G04 #@! TA.AperFunction,ComponentPad*
%ADD19O,1.700000X1.700000*%
G04 #@! TD*
G04 #@! TA.AperFunction,SMDPad,CuDef*
%ADD20RoundRect,0.250000X0.250000X0.475000X-0.250000X0.475000X-0.250000X-0.475000X0.250000X-0.475000X0*%
G04 #@! TD*
G04 #@! TA.AperFunction,SMDPad,CuDef*
%ADD21RoundRect,0.200000X0.200000X0.275000X-0.200000X0.275000X-0.200000X-0.275000X0.200000X-0.275000X0*%
G04 #@! TD*
G04 #@! TA.AperFunction,SMDPad,CuDef*
%ADD22RoundRect,0.250000X-0.650000X1.000000X-0.650000X-1.000000X0.650000X-1.000000X0.650000X1.000000X0*%
G04 #@! TD*
G04 #@! TA.AperFunction,SMDPad,CuDef*
%ADD23RoundRect,0.200000X-0.200000X-0.275000X0.200000X-0.275000X0.200000X0.275000X-0.200000X0.275000X0*%
G04 #@! TD*
G04 #@! TA.AperFunction,SMDPad,CuDef*
%ADD24RoundRect,0.100000X-0.100000X0.637500X-0.100000X-0.637500X0.100000X-0.637500X0.100000X0.637500X0*%
G04 #@! TD*
G04 #@! TA.AperFunction,SMDPad,CuDef*
%ADD25RoundRect,0.200000X-0.275000X0.200000X-0.275000X-0.200000X0.275000X-0.200000X0.275000X0.200000X0*%
G04 #@! TD*
G04 #@! TA.AperFunction,SMDPad,CuDef*
%ADD26RoundRect,0.225000X0.225000X0.250000X-0.225000X0.250000X-0.225000X-0.250000X0.225000X-0.250000X0*%
G04 #@! TD*
G04 #@! TA.AperFunction,SMDPad,CuDef*
%ADD27R,4.100000X4.100000*%
G04 #@! TD*
G04 #@! TA.AperFunction,SMDPad,CuDef*
%ADD28RoundRect,0.250000X-0.475000X0.250000X-0.475000X-0.250000X0.475000X-0.250000X0.475000X0.250000X0*%
G04 #@! TD*
G04 #@! TA.AperFunction,SMDPad,CuDef*
%ADD29RoundRect,0.225000X-0.225000X-0.250000X0.225000X-0.250000X0.225000X0.250000X-0.225000X0.250000X0*%
G04 #@! TD*
G04 #@! TA.AperFunction,ComponentPad*
%ADD30R,2.600000X2.600000*%
G04 #@! TD*
G04 #@! TA.AperFunction,ComponentPad*
%ADD31C,2.600000*%
G04 #@! TD*
G04 #@! TA.AperFunction,ComponentPad*
%ADD32RoundRect,0.250000X-0.600000X0.600000X-0.600000X-0.600000X0.600000X-0.600000X0.600000X0.600000X0*%
G04 #@! TD*
G04 #@! TA.AperFunction,ComponentPad*
%ADD33C,1.700000*%
G04 #@! TD*
G04 #@! TA.AperFunction,SMDPad,CuDef*
%ADD34RoundRect,0.112500X-0.187500X-0.112500X0.187500X-0.112500X0.187500X0.112500X-0.187500X0.112500X0*%
G04 #@! TD*
G04 #@! TA.AperFunction,SMDPad,CuDef*
%ADD35R,1.500000X0.900000*%
G04 #@! TD*
G04 #@! TA.AperFunction,SMDPad,CuDef*
%ADD36R,0.900000X1.500000*%
G04 #@! TD*
G04 #@! TA.AperFunction,SMDPad,CuDef*
%ADD37R,0.900000X0.900000*%
G04 #@! TD*
G04 #@! TA.AperFunction,SMDPad,CuDef*
%ADD38RoundRect,0.250000X0.550000X-1.500000X0.550000X1.500000X-0.550000X1.500000X-0.550000X-1.500000X0*%
G04 #@! TD*
G04 #@! TA.AperFunction,SMDPad,CuDef*
%ADD39RoundRect,0.250000X-0.550000X1.500000X-0.550000X-1.500000X0.550000X-1.500000X0.550000X1.500000X0*%
G04 #@! TD*
G04 #@! TA.AperFunction,SMDPad,CuDef*
%ADD40RoundRect,0.250000X-1.000000X-0.650000X1.000000X-0.650000X1.000000X0.650000X-1.000000X0.650000X0*%
G04 #@! TD*
G04 #@! TA.AperFunction,SMDPad,CuDef*
%ADD41R,1.500000X2.000000*%
G04 #@! TD*
G04 #@! TA.AperFunction,SMDPad,CuDef*
%ADD42R,3.800000X2.000000*%
G04 #@! TD*
G04 #@! TA.AperFunction,SMDPad,CuDef*
%ADD43RoundRect,0.112500X0.112500X-0.187500X0.112500X0.187500X-0.112500X0.187500X-0.112500X-0.187500X0*%
G04 #@! TD*
G04 #@! TA.AperFunction,SMDPad,CuDef*
%ADD44RoundRect,0.150000X0.587500X0.150000X-0.587500X0.150000X-0.587500X-0.150000X0.587500X-0.150000X0*%
G04 #@! TD*
G04 #@! TA.AperFunction,SMDPad,CuDef*
%ADD45RoundRect,0.250000X1.750000X1.000000X-1.750000X1.000000X-1.750000X-1.000000X1.750000X-1.000000X0*%
G04 #@! TD*
G04 #@! TA.AperFunction,SMDPad,CuDef*
%ADD46RoundRect,0.250000X-2.450000X0.650000X-2.450000X-0.650000X2.450000X-0.650000X2.450000X0.650000X0*%
G04 #@! TD*
G04 #@! TA.AperFunction,SMDPad,CuDef*
%ADD47RoundRect,0.250000X-1.000000X1.750000X-1.000000X-1.750000X1.000000X-1.750000X1.000000X1.750000X0*%
G04 #@! TD*
G04 #@! TA.AperFunction,SMDPad,CuDef*
%ADD48R,1.450000X1.000000*%
G04 #@! TD*
G04 #@! TA.AperFunction,SMDPad,CuDef*
%ADD49R,1.300000X0.900000*%
G04 #@! TD*
G04 #@! TA.AperFunction,SMDPad,CuDef*
%ADD50FreePoly0,180.000000*%
G04 #@! TD*
G04 #@! TA.AperFunction,SMDPad,CuDef*
%ADD51R,1.560000X0.650000*%
G04 #@! TD*
G04 #@! TA.AperFunction,SMDPad,CuDef*
%ADD52RoundRect,0.218750X0.256250X-0.218750X0.256250X0.218750X-0.256250X0.218750X-0.256250X-0.218750X0*%
G04 #@! TD*
G04 #@! TA.AperFunction,SMDPad,CuDef*
%ADD53R,0.650000X1.560000*%
G04 #@! TD*
G04 #@! TA.AperFunction,SMDPad,CuDef*
%ADD54RoundRect,0.250000X1.500000X0.550000X-1.500000X0.550000X-1.500000X-0.550000X1.500000X-0.550000X0*%
G04 #@! TD*
G04 #@! TA.AperFunction,ViaPad*
%ADD55C,1.200000*%
G04 #@! TD*
G04 #@! TA.AperFunction,ViaPad*
%ADD56C,0.800000*%
G04 #@! TD*
G04 #@! TA.AperFunction,Conductor*
%ADD57C,0.600000*%
G04 #@! TD*
G04 #@! TA.AperFunction,Conductor*
%ADD58C,0.500000*%
G04 #@! TD*
G04 #@! TA.AperFunction,Conductor*
%ADD59C,0.800000*%
G04 #@! TD*
G04 #@! TA.AperFunction,Conductor*
%ADD60C,2.000000*%
G04 #@! TD*
G04 #@! TA.AperFunction,Conductor*
%ADD61C,1.200000*%
G04 #@! TD*
G04 #@! TA.AperFunction,Conductor*
%ADD62C,0.250000*%
G04 #@! TD*
G04 #@! TA.AperFunction,Conductor*
%ADD63C,0.300000*%
G04 #@! TD*
G04 #@! TA.AperFunction,Conductor*
%ADD64C,0.400000*%
G04 #@! TD*
G04 #@! TA.AperFunction,Conductor*
%ADD65C,1.500000*%
G04 #@! TD*
G04 #@! TA.AperFunction,Conductor*
%ADD66C,3.000000*%
G04 #@! TD*
G04 #@! TA.AperFunction,Conductor*
%ADD67C,0.700000*%
G04 #@! TD*
G04 #@! TA.AperFunction,Conductor*
%ADD68C,1.000000*%
G04 #@! TD*
G04 APERTURE END LIST*
D10*
X230000000Y-119000000D03*
D11*
X145360000Y-57170000D03*
X145360000Y-58720000D03*
D12*
X62240000Y-80480000D03*
X57140000Y-80480000D03*
D13*
X97800000Y-102930000D03*
X97800000Y-101280000D03*
D14*
X144550000Y-105500000D03*
D15*
X178700000Y-71000000D03*
X178700000Y-68700000D03*
X178700000Y-66400000D03*
D16*
X172400000Y-68700000D03*
D17*
X177400000Y-63837500D03*
X177400000Y-62287500D03*
D18*
X228300000Y-72000000D03*
D19*
X228300000Y-69460000D03*
D20*
X56560000Y-97370000D03*
X54660000Y-97370000D03*
D21*
X180665000Y-98970000D03*
X179015000Y-98970000D03*
D22*
X65590000Y-79040000D03*
X65590000Y-83040000D03*
D10*
X230000000Y-60000000D03*
D23*
X142240000Y-57190000D03*
X143890000Y-57190000D03*
D24*
X87520000Y-107800000D03*
X86870000Y-107800000D03*
X86220000Y-107800000D03*
X85570000Y-107800000D03*
X84920000Y-107800000D03*
X84270000Y-107800000D03*
X83620000Y-107800000D03*
X82970000Y-107800000D03*
X82970000Y-113525000D03*
X83620000Y-113525000D03*
X84270000Y-113525000D03*
X84920000Y-113525000D03*
X85570000Y-113525000D03*
X86220000Y-113525000D03*
X86870000Y-113525000D03*
X87520000Y-113525000D03*
D17*
X145300000Y-54612500D03*
X145300000Y-53062500D03*
D25*
X170400000Y-74880000D03*
X170400000Y-76530000D03*
D26*
X113280000Y-116205000D03*
X111730000Y-116205000D03*
D14*
X148133333Y-105500000D03*
D25*
X53840000Y-85730000D03*
X53840000Y-87380000D03*
D24*
X113555000Y-107800000D03*
X112905000Y-107800000D03*
X112255000Y-107800000D03*
X111605000Y-107800000D03*
X110955000Y-107800000D03*
X110305000Y-107800000D03*
X109655000Y-107800000D03*
X109005000Y-107800000D03*
X109005000Y-113525000D03*
X109655000Y-113525000D03*
X110305000Y-113525000D03*
X110955000Y-113525000D03*
X111605000Y-113525000D03*
X112255000Y-113525000D03*
X112905000Y-113525000D03*
X113555000Y-113525000D03*
D27*
X65570000Y-97780000D03*
X65570000Y-88280000D03*
D18*
X175360000Y-54000000D03*
D19*
X177900000Y-54000000D03*
X180440000Y-54000000D03*
X182980000Y-54000000D03*
X185520000Y-54000000D03*
X188060000Y-54000000D03*
D13*
X217660000Y-118900000D03*
X217660000Y-117250000D03*
D25*
X189600000Y-65587500D03*
X189600000Y-67237500D03*
D13*
X95280000Y-102945000D03*
X95280000Y-101295000D03*
D28*
X218570000Y-91540000D03*
X218570000Y-93440000D03*
D17*
X143400000Y-54612500D03*
X143400000Y-53062500D03*
D25*
X96595000Y-95110000D03*
X96595000Y-96760000D03*
D26*
X87270000Y-116225000D03*
X85720000Y-116225000D03*
D13*
X100360000Y-102930000D03*
X100360000Y-101280000D03*
D29*
X175362500Y-74400000D03*
X176912500Y-74400000D03*
D25*
X106605000Y-95140000D03*
X106605000Y-96790000D03*
D13*
X82800000Y-102950000D03*
X82800000Y-101300000D03*
D30*
X216140000Y-68060000D03*
D31*
X216140000Y-73140000D03*
D32*
X115615000Y-53665000D03*
D33*
X115615000Y-56205000D03*
X113075000Y-53665000D03*
X113075000Y-56205000D03*
X110535000Y-53665000D03*
X110535000Y-56205000D03*
X107995000Y-53665000D03*
X107995000Y-56205000D03*
X105455000Y-53665000D03*
X105455000Y-56205000D03*
X102915000Y-53665000D03*
X102915000Y-56205000D03*
X100375000Y-53665000D03*
X100375000Y-56205000D03*
X97835000Y-53665000D03*
X97835000Y-56205000D03*
X95295000Y-53665000D03*
X95295000Y-56205000D03*
X92755000Y-53665000D03*
X92755000Y-56205000D03*
X90215000Y-53665000D03*
X90215000Y-56205000D03*
X87675000Y-53665000D03*
X87675000Y-56205000D03*
X85135000Y-53665000D03*
X85135000Y-56205000D03*
D34*
X181625000Y-66375000D03*
X183725000Y-66375000D03*
D10*
X55000000Y-60000000D03*
D25*
X101555000Y-95110000D03*
X101555000Y-96760000D03*
D35*
X148100000Y-53230000D03*
X148100000Y-54500000D03*
X148100000Y-55770000D03*
X148100000Y-57040000D03*
X148100000Y-58310000D03*
X148100000Y-59580000D03*
X148100000Y-60850000D03*
X148100000Y-62120000D03*
X148100000Y-63390000D03*
X148100000Y-64660000D03*
X148100000Y-65930000D03*
X148100000Y-67200000D03*
X148100000Y-68470000D03*
X148100000Y-69740000D03*
D36*
X149865000Y-70990000D03*
X151135000Y-70990000D03*
X152405000Y-70990000D03*
X153675000Y-70990000D03*
X154945000Y-70990000D03*
X156215000Y-70990000D03*
X157485000Y-70990000D03*
X158755000Y-70990000D03*
X160025000Y-70990000D03*
X161295000Y-70990000D03*
X162565000Y-70990000D03*
X163835000Y-70990000D03*
D35*
X165600000Y-69740000D03*
X165600000Y-68470000D03*
X165600000Y-67200000D03*
X165600000Y-65930000D03*
X165600000Y-64660000D03*
X165600000Y-63390000D03*
X165600000Y-62120000D03*
X165600000Y-60850000D03*
X165600000Y-59580000D03*
X165600000Y-58310000D03*
X165600000Y-57040000D03*
X165600000Y-55770000D03*
X165600000Y-54500000D03*
X165600000Y-53230000D03*
D37*
X153950000Y-59550000D03*
X153950000Y-60950000D03*
X153950000Y-62350000D03*
X155350000Y-59550000D03*
X155350000Y-60950000D03*
X155350000Y-62350000D03*
X156750000Y-59550000D03*
X156750000Y-60950000D03*
X156750000Y-62350000D03*
D38*
X56400000Y-108100000D03*
X56400000Y-102700000D03*
D25*
X116520000Y-95090000D03*
X116520000Y-96740000D03*
X68350000Y-114125000D03*
X68350000Y-115775000D03*
D39*
X226500000Y-90300000D03*
X226500000Y-95700000D03*
D13*
X65850000Y-121900000D03*
X65850000Y-120250000D03*
D25*
X109770000Y-95105000D03*
X109770000Y-96755000D03*
D40*
X200240000Y-82510000D03*
X204240000Y-82510000D03*
D25*
X87325000Y-95150000D03*
X87325000Y-96800000D03*
D13*
X208800000Y-92685000D03*
X208800000Y-91035000D03*
D26*
X100200000Y-116207500D03*
X98650000Y-116207500D03*
D13*
X112970000Y-96745000D03*
X112970000Y-95095000D03*
D25*
X84375000Y-95140000D03*
X84375000Y-96790000D03*
D41*
X63150000Y-111600000D03*
X65450000Y-111600000D03*
D42*
X65450000Y-105300000D03*
D41*
X67750000Y-111600000D03*
D14*
X200100000Y-78000000D03*
D23*
X55415000Y-87600000D03*
X57065000Y-87600000D03*
D43*
X172900000Y-63800000D03*
X172900000Y-61700000D03*
D13*
X111360000Y-102925000D03*
X111360000Y-101275000D03*
D25*
X99105000Y-95110000D03*
X99105000Y-96760000D03*
D21*
X180640000Y-102170000D03*
X178990000Y-102170000D03*
D44*
X184650000Y-58850000D03*
X184650000Y-56950000D03*
X182775000Y-57900000D03*
D29*
X175387500Y-77300000D03*
X176937500Y-77300000D03*
D45*
X65400000Y-71400000D03*
X57400000Y-71400000D03*
D46*
X201680000Y-85860000D03*
X201680000Y-90960000D03*
D13*
X63950000Y-121900000D03*
X63950000Y-120250000D03*
D47*
X192600000Y-82700000D03*
X192600000Y-90700000D03*
D48*
X150800000Y-78650000D03*
X145650000Y-78650000D03*
X150800000Y-76950000D03*
X145650000Y-76950000D03*
D14*
X140966667Y-105500000D03*
D49*
X213650000Y-113950000D03*
D50*
X213562500Y-112450000D03*
D49*
X213650000Y-110950000D03*
D18*
X173300000Y-89440000D03*
D19*
X173300000Y-91980000D03*
X173300000Y-94520000D03*
X173300000Y-97060000D03*
X173300000Y-99600000D03*
X173300000Y-102140000D03*
D23*
X215000000Y-108150000D03*
X216650000Y-108150000D03*
D41*
X228300000Y-77780000D03*
X226000000Y-77780000D03*
D42*
X226000000Y-84080000D03*
D41*
X223700000Y-77780000D03*
D17*
X179600000Y-63837500D03*
X179600000Y-62287500D03*
D48*
X164700000Y-78700000D03*
X159550000Y-78700000D03*
X164700000Y-77000000D03*
X159550000Y-77000000D03*
D25*
X114790000Y-101275000D03*
X114790000Y-102925000D03*
D51*
X213257500Y-90070000D03*
X213257500Y-91020000D03*
X213257500Y-91970000D03*
X215957500Y-91970000D03*
X215957500Y-91020000D03*
X215957500Y-90070000D03*
D13*
X108200000Y-102925000D03*
X108200000Y-101275000D03*
D25*
X90225000Y-95140000D03*
X90225000Y-96790000D03*
D23*
X188462500Y-62000000D03*
X190112500Y-62000000D03*
D14*
X65450000Y-61150000D03*
D25*
X186200000Y-65587500D03*
X186200000Y-67237500D03*
D23*
X206930000Y-94260000D03*
X208580000Y-94260000D03*
D52*
X170375000Y-80530000D03*
X170375000Y-78955000D03*
D25*
X81415000Y-95130000D03*
X81415000Y-96780000D03*
D14*
X151716667Y-105500000D03*
D24*
X100537500Y-107800000D03*
X99887500Y-107800000D03*
X99237500Y-107800000D03*
X98587500Y-107800000D03*
X97937500Y-107800000D03*
X97287500Y-107800000D03*
X96637500Y-107800000D03*
X95987500Y-107800000D03*
X95987500Y-113525000D03*
X96637500Y-113525000D03*
X97287500Y-113525000D03*
X97937500Y-113525000D03*
X98587500Y-113525000D03*
X99237500Y-113525000D03*
X99887500Y-113525000D03*
X100537500Y-113525000D03*
D49*
X65580000Y-118130000D03*
D50*
X65492500Y-116630000D03*
D49*
X65580000Y-115130000D03*
D13*
X217660000Y-114840000D03*
X217660000Y-113190000D03*
D53*
X58030000Y-92057500D03*
X57080000Y-92057500D03*
X56130000Y-92057500D03*
X56130000Y-94757500D03*
X57080000Y-94757500D03*
X58030000Y-94757500D03*
D13*
X88700000Y-102950000D03*
X88700000Y-101300000D03*
D21*
X184500000Y-62000000D03*
X182850000Y-62000000D03*
D30*
X216160000Y-56550000D03*
D31*
X216160000Y-61630000D03*
D13*
X85725000Y-102950000D03*
X85725000Y-101300000D03*
D27*
X218980000Y-82530000D03*
X209480000Y-82530000D03*
D44*
X190175000Y-58850000D03*
X190175000Y-56950000D03*
X188300000Y-57900000D03*
D54*
X190475000Y-74100000D03*
X185075000Y-74100000D03*
D10*
X55000000Y-119000000D03*
D55*
X161410748Y-57532222D03*
X161410748Y-61738888D03*
X233820000Y-113327142D03*
X157792250Y-56130000D03*
X142851112Y-51160000D03*
X159571499Y-61738888D03*
X152454503Y-65945554D03*
X113567223Y-124030000D03*
X157792250Y-64543332D03*
X161410748Y-68750000D03*
D56*
X177390000Y-61120000D03*
D55*
X51140000Y-84180000D03*
X94070557Y-51160000D03*
X152454503Y-61738888D03*
X191631667Y-51160000D03*
X159571499Y-60336666D03*
X156013001Y-67347776D03*
X152454503Y-64543332D03*
X233820000Y-93895714D03*
X211128333Y-124030000D03*
X191616111Y-124030000D03*
X163130000Y-68750000D03*
X154233752Y-64543332D03*
D56*
X111605000Y-115010000D03*
D55*
X233820000Y-55032858D03*
X152607223Y-51160000D03*
X74558335Y-51160000D03*
D56*
X142160000Y-53050000D03*
D55*
X94055001Y-124030000D03*
D56*
X98587500Y-115030000D03*
D55*
X163130000Y-56130000D03*
X156013001Y-64543332D03*
D56*
X145370000Y-59900000D03*
D55*
X154233752Y-68750000D03*
X220900000Y-51160000D03*
X152454503Y-60336666D03*
X55046113Y-51160000D03*
X162363334Y-51160000D03*
D56*
X182410000Y-74100000D03*
X211040000Y-91020000D03*
D55*
X157890000Y-63150000D03*
X161410748Y-67347776D03*
X161410748Y-65945554D03*
X159571499Y-65945554D03*
X51140000Y-123042858D03*
X64786668Y-124030000D03*
X51140000Y-93895714D03*
X64802224Y-51160000D03*
D56*
X215320000Y-110920000D03*
D55*
X152591667Y-124030000D03*
D56*
X164330000Y-53230000D03*
D55*
X162347778Y-124030000D03*
D56*
X108100000Y-107500000D03*
D55*
X157792250Y-68750000D03*
X152454503Y-58934444D03*
X172103889Y-124030000D03*
X159571499Y-68750000D03*
X233820000Y-74464286D03*
X233820000Y-123042858D03*
X163130000Y-61738888D03*
X152454503Y-63141110D03*
X181860000Y-124030000D03*
X157792250Y-65945554D03*
X157890000Y-60345556D03*
X163130000Y-67347776D03*
D56*
X146550000Y-53080000D03*
X217660000Y-112010000D03*
X180520000Y-71000000D03*
D55*
X154233752Y-65945554D03*
X152454503Y-67347776D03*
X156013001Y-56130000D03*
X230656113Y-51160000D03*
D56*
X57080000Y-89840000D03*
X149790000Y-53210000D03*
D55*
X211143889Y-51160000D03*
X154233752Y-67347776D03*
X152454503Y-56130000D03*
X152454503Y-68750000D03*
X51140000Y-103611428D03*
X103811112Y-124030000D03*
X161410748Y-56130000D03*
X172119445Y-51160000D03*
X157792250Y-57532222D03*
X152454503Y-57532222D03*
X161410748Y-60336666D03*
X103826668Y-51160000D03*
X74542779Y-124030000D03*
D56*
X82970000Y-109400000D03*
D55*
X233820000Y-64748572D03*
X51140000Y-64748572D03*
D56*
X166140000Y-78720000D03*
X96000000Y-106299996D03*
D55*
X163130000Y-60336666D03*
X133095001Y-51160000D03*
D56*
X85570000Y-115050000D03*
D55*
X51140000Y-74464286D03*
D56*
X178200000Y-77300000D03*
X148150000Y-78650000D03*
D55*
X84314446Y-51160000D03*
X163130000Y-64543332D03*
X156013001Y-68750000D03*
X84298890Y-124030000D03*
X201372222Y-124030000D03*
X133079445Y-124030000D03*
D56*
X67020000Y-115130000D03*
D55*
X159571499Y-57532222D03*
X181875556Y-51160000D03*
X123323334Y-124030000D03*
X51140000Y-55032858D03*
X154233752Y-57532222D03*
X159571499Y-56130000D03*
X163130000Y-58934444D03*
X123338890Y-51160000D03*
X159571499Y-64543332D03*
X142835556Y-124030000D03*
X51140000Y-113327142D03*
X159571499Y-67347776D03*
X161410748Y-63141110D03*
X230640557Y-124030000D03*
X159571499Y-63141110D03*
X163130000Y-63141110D03*
D56*
X170400000Y-81480000D03*
D55*
X159571499Y-58934444D03*
D56*
X179620000Y-61120000D03*
D55*
X233820000Y-103611428D03*
X161410748Y-58934444D03*
X157792250Y-67347776D03*
X156013001Y-65945554D03*
X163130000Y-65945554D03*
X55030557Y-124030000D03*
X163130000Y-57532222D03*
D56*
X178200000Y-74400000D03*
D55*
X157890000Y-58943334D03*
X220884444Y-124030000D03*
X233820000Y-84180000D03*
X201387778Y-51160000D03*
X156013001Y-57532222D03*
X157890000Y-61747778D03*
X113582779Y-51160000D03*
X161410748Y-64543332D03*
X154233752Y-56130000D03*
D56*
X184740000Y-69700000D03*
X184710000Y-66400000D03*
X118684236Y-114110496D03*
X118700000Y-107400000D03*
X157880000Y-121860000D03*
X157500000Y-116475000D03*
X150175000Y-55775000D03*
X148150000Y-76950000D03*
X189650000Y-57900000D03*
D55*
X168820000Y-54480000D03*
X162930000Y-54480000D03*
D56*
X168800000Y-57025000D03*
X177780000Y-57025000D03*
X176390000Y-58300000D03*
X168820000Y-58300000D03*
X170100000Y-63000000D03*
X175725000Y-62675000D03*
X101550000Y-108490000D03*
X101550000Y-112250000D03*
X116540000Y-112375000D03*
X116540000Y-108490000D03*
X89050000Y-108490000D03*
X89050000Y-111850000D03*
X166590000Y-73520000D03*
X158760000Y-73520000D03*
X144550000Y-110000000D03*
X148200000Y-110000000D03*
X158460000Y-84270000D03*
X139925000Y-84300000D03*
X158460000Y-83010000D03*
X138675000Y-83050000D03*
X152250000Y-85600000D03*
X158460000Y-85600000D03*
X158460000Y-86910000D03*
X152250000Y-86910000D03*
X156650000Y-121860000D03*
X156625000Y-117225000D03*
X200100000Y-70000000D03*
X114810000Y-61965000D03*
X109270000Y-57935000D03*
X108150000Y-113500000D03*
X103525500Y-113500000D03*
X94550000Y-113500000D03*
X90500000Y-113500000D03*
D57*
X214580000Y-91020000D02*
X213257500Y-91020000D01*
X57080000Y-93400000D02*
X55000000Y-93400000D01*
D58*
X211025000Y-91035000D02*
X211040000Y-91020000D01*
D59*
X178700000Y-71000000D02*
X180225000Y-71000000D01*
D58*
X179600000Y-62287500D02*
X179600000Y-61140000D01*
X177400000Y-62287500D02*
X177400000Y-61130000D01*
D60*
X226500000Y-95700000D02*
X221500000Y-95700000D01*
D59*
X185075000Y-74100000D02*
X182410000Y-74100000D01*
D58*
X213650000Y-110950000D02*
X215290000Y-110950000D01*
D61*
X57140000Y-87555000D02*
X57140000Y-80480000D01*
D58*
X146400000Y-53100000D02*
X145337500Y-53100000D01*
X57065000Y-89825000D02*
X57080000Y-89840000D01*
D61*
X208800000Y-91035000D02*
X211025000Y-91035000D01*
D58*
X145650000Y-78650000D02*
X150800000Y-78650000D01*
D62*
X85570000Y-115775000D02*
X85745000Y-115950000D01*
D58*
X170375000Y-81455000D02*
X170400000Y-81480000D01*
D60*
X220830000Y-95700000D02*
X218570000Y-93440000D01*
D58*
X164700000Y-78700000D02*
X166120000Y-78700000D01*
X166120000Y-78700000D02*
X166140000Y-78720000D01*
X170375000Y-80530000D02*
X170375000Y-81455000D01*
D63*
X82970000Y-107825000D02*
X82970000Y-109400000D01*
D58*
X56250000Y-120250000D02*
X55000000Y-119000000D01*
X217660000Y-113190000D02*
X217660000Y-112010000D01*
X145337500Y-53100000D02*
X145300000Y-53062500D01*
D59*
X165600000Y-53230000D02*
X164330000Y-53230000D01*
D64*
X111605000Y-113217500D02*
X111605000Y-116080000D01*
D60*
X57140000Y-80480000D02*
X57140000Y-71660000D01*
D58*
X176912500Y-77275000D02*
X176937500Y-77300000D01*
X208815000Y-91020000D02*
X208800000Y-91035000D01*
X215290000Y-110950000D02*
X215320000Y-110920000D01*
D57*
X57080000Y-92057500D02*
X57080000Y-89840000D01*
D60*
X221500000Y-95700000D02*
X220830000Y-95700000D01*
D57*
X214600000Y-93100000D02*
X214940000Y-93440000D01*
D64*
X98587500Y-113525000D02*
X98587500Y-116145000D01*
D65*
X54750000Y-97460000D02*
X54660000Y-97370000D01*
D63*
X108100000Y-107500000D02*
X108997500Y-107500000D01*
D58*
X179600000Y-61140000D02*
X179620000Y-61120000D01*
D63*
X95987500Y-106312496D02*
X96000000Y-106299996D01*
D58*
X159550000Y-78700000D02*
X164700000Y-78700000D01*
D61*
X208755000Y-90960000D02*
X201680000Y-90960000D01*
D57*
X213257500Y-91020000D02*
X211040000Y-91020000D01*
D60*
X201680000Y-90960000D02*
X192860000Y-90960000D01*
D65*
X56050000Y-102350000D02*
X56400000Y-102700000D01*
X54750000Y-102350000D02*
X54750000Y-97460000D01*
D58*
X148100000Y-53230000D02*
X149770000Y-53230000D01*
X63950000Y-120250000D02*
X56250000Y-120250000D01*
D62*
X98587500Y-116145000D02*
X98650000Y-116207500D01*
D58*
X176937500Y-77300000D02*
X178200000Y-77300000D01*
D57*
X214940000Y-93440000D02*
X218570000Y-93440000D01*
D63*
X95987500Y-107800000D02*
X95987500Y-106312496D01*
D58*
X149770000Y-53230000D02*
X149790000Y-53210000D01*
X176968750Y-74400000D02*
X178231250Y-74400000D01*
X57080000Y-87615000D02*
X57065000Y-87600000D01*
X145360000Y-58720000D02*
X145360000Y-59890000D01*
D60*
X57140000Y-71660000D02*
X57400000Y-71400000D01*
D58*
X65580000Y-115130000D02*
X67020000Y-115130000D01*
D63*
X108997500Y-107500000D02*
X109005000Y-107492500D01*
D64*
X85570000Y-113550000D02*
X85570000Y-115775000D01*
D62*
X111605000Y-116080000D02*
X111730000Y-116205000D01*
D57*
X55000000Y-93400000D02*
X54660000Y-93740000D01*
D61*
X57065000Y-87600000D02*
X57065000Y-89825000D01*
D58*
X208815000Y-91020000D02*
X208755000Y-90960000D01*
D57*
X57080000Y-93380000D02*
X57080000Y-92057500D01*
D60*
X192860000Y-90960000D02*
X192600000Y-90700000D01*
D57*
X54660000Y-93740000D02*
X54660000Y-97370000D01*
D58*
X142172500Y-53062500D02*
X142160000Y-53050000D01*
D65*
X54750000Y-102350000D02*
X56050000Y-102350000D01*
D58*
X177400000Y-61130000D02*
X177390000Y-61120000D01*
X57080000Y-87615000D02*
X57140000Y-87555000D01*
X143400000Y-53062500D02*
X142172500Y-53062500D01*
D57*
X214600000Y-91020000D02*
X214600000Y-93100000D01*
D58*
X145360000Y-59890000D02*
X145370000Y-59900000D01*
D66*
X190475000Y-74100000D02*
X191435000Y-73140000D01*
D67*
X184740000Y-69700000D02*
X187515000Y-72475000D01*
D64*
X100540000Y-115867500D02*
X100475000Y-115932500D01*
D68*
X113075000Y-56205000D02*
X113075000Y-56575000D01*
D66*
X186400000Y-102000000D02*
X186400000Y-80900000D01*
D58*
X214850000Y-108000000D02*
X186400000Y-108000000D01*
X186230000Y-102170000D02*
X186400000Y-102000000D01*
D64*
X87750000Y-113780000D02*
X87520000Y-113550000D01*
D66*
X183000000Y-119600000D02*
X79900000Y-119600000D01*
D58*
X87270000Y-119920000D02*
X87260000Y-119930000D01*
D64*
X113555000Y-113217500D02*
X113610000Y-113272500D01*
D66*
X71900000Y-111600000D02*
X69200000Y-111600000D01*
X186400000Y-108000000D02*
X186400000Y-102000000D01*
X186400000Y-116200000D02*
X183000000Y-119600000D01*
D68*
X113075000Y-56205000D02*
X113075000Y-53665000D01*
D66*
X79900000Y-119600000D02*
X71900000Y-111600000D01*
X186400000Y-80900000D02*
X190475000Y-76825000D01*
D68*
X118700000Y-114126260D02*
X118684236Y-114110496D01*
D58*
X87270000Y-116225000D02*
X87270000Y-115995000D01*
D68*
X118700000Y-119730000D02*
X118700000Y-114126260D01*
D58*
X87270000Y-116225000D02*
X87270000Y-119920000D01*
X68350000Y-114125000D02*
X67750000Y-113525000D01*
X215000000Y-108150000D02*
X214850000Y-108000000D01*
D68*
X113075000Y-56575000D02*
X118700000Y-62200000D01*
D58*
X190800000Y-72475000D02*
X191450000Y-73125000D01*
D64*
X113610000Y-113272500D02*
X113610000Y-115875000D01*
D62*
X113280000Y-119780000D02*
X113130000Y-119930000D01*
D58*
X180640000Y-102170000D02*
X186230000Y-102170000D01*
D66*
X190475000Y-76825000D02*
X190475000Y-74100000D01*
D64*
X87750000Y-115335000D02*
X87750000Y-113780000D01*
X113610000Y-115875000D02*
X113555000Y-115930000D01*
D58*
X113280000Y-116205000D02*
X113280000Y-119780000D01*
D64*
X100540000Y-113572500D02*
X100540000Y-115867500D01*
D67*
X187515000Y-72475000D02*
X190800000Y-72475000D01*
D64*
X87270000Y-115815000D02*
X87750000Y-115335000D01*
D68*
X118500000Y-119930000D02*
X118700000Y-119730000D01*
D67*
X184685000Y-66375000D02*
X183725000Y-66375000D01*
D62*
X113555000Y-115930000D02*
X113280000Y-116205000D01*
D66*
X186400000Y-108000000D02*
X186400000Y-116200000D01*
X191435000Y-73140000D02*
X216140000Y-73140000D01*
D58*
X100200000Y-116207500D02*
X100200000Y-119892500D01*
X67750000Y-113525000D02*
X67750000Y-111600000D01*
D67*
X184710000Y-66400000D02*
X184685000Y-66375000D01*
D58*
X99930000Y-119910000D02*
X99910000Y-119930000D01*
D68*
X118700000Y-62200000D02*
X118700000Y-107400000D01*
D60*
X65590000Y-79040000D02*
X63680000Y-79040000D01*
X65450000Y-58550000D02*
X65450000Y-61150000D01*
D67*
X65450000Y-71350000D02*
X65400000Y-71400000D01*
D60*
X67785000Y-56215000D02*
X85030000Y-56215000D01*
D62*
X53840000Y-69560000D02*
X54200000Y-69200000D01*
X63200000Y-69200000D02*
X65400000Y-71400000D01*
D60*
X65590000Y-71590000D02*
X65400000Y-71400000D01*
X63680000Y-79040000D02*
X62240000Y-80480000D01*
X67785000Y-56215000D02*
X65450000Y-58550000D01*
D62*
X53840000Y-85730000D02*
X53840000Y-69560000D01*
D67*
X66250000Y-70550000D02*
X65400000Y-71400000D01*
D62*
X54200000Y-69200000D02*
X63200000Y-69200000D01*
D60*
X65450000Y-61150000D02*
X65450000Y-71350000D01*
X65590000Y-79040000D02*
X65590000Y-71590000D01*
X85030000Y-56215000D02*
X85030000Y-56205000D01*
D62*
X157500000Y-76400000D02*
X158340000Y-75560000D01*
X157500000Y-116475000D02*
X157500000Y-76400000D01*
X217660000Y-121440000D02*
X217660000Y-118900000D01*
X217240000Y-121860000D02*
X217660000Y-121440000D01*
X157880000Y-121860000D02*
X217240000Y-121860000D01*
X162565000Y-74295000D02*
X162565000Y-70990000D01*
X161300000Y-75560000D02*
X162565000Y-74295000D01*
X158340000Y-75560000D02*
X161300000Y-75560000D01*
X82975000Y-102950000D02*
X82800000Y-102950000D01*
X84920000Y-106470000D02*
X82800000Y-104350000D01*
X82800000Y-104350000D02*
X82800000Y-102950000D01*
X84920000Y-107800000D02*
X84920000Y-106470000D01*
X148070000Y-55800000D02*
X148100000Y-55770000D01*
X150175000Y-55775000D02*
X148105000Y-55775000D01*
X143890000Y-57190000D02*
X145340000Y-57190000D01*
X189650000Y-57900000D02*
X188300000Y-57900000D01*
X145810000Y-55770000D02*
X145360000Y-56220000D01*
X148105000Y-55775000D02*
X148100000Y-55770000D01*
X145360000Y-56220000D02*
X145360000Y-57170000D01*
X145650000Y-76950000D02*
X150800000Y-76950000D01*
X145340000Y-57190000D02*
X145360000Y-57170000D01*
X148100000Y-55770000D02*
X145810000Y-55770000D01*
D67*
X178700000Y-66400000D02*
X178700000Y-63837500D01*
X178700000Y-63837500D02*
X177400000Y-63837500D01*
D58*
X172900000Y-63800000D02*
X172937500Y-63837500D01*
X172937500Y-63837500D02*
X177400000Y-63837500D01*
D67*
X179600000Y-63837500D02*
X178700000Y-63837500D01*
X178700000Y-66400000D02*
X181600000Y-66400000D01*
D58*
X181600000Y-66400000D02*
X181625000Y-66375000D01*
D68*
X150700000Y-54500000D02*
X162910000Y-54500000D01*
X170350000Y-55380000D02*
X170350000Y-59250000D01*
X175382500Y-68700000D02*
X178700000Y-68700000D01*
D58*
X145500000Y-54500000D02*
X145300000Y-54700000D01*
D68*
X180665000Y-81005000D02*
X180665000Y-98970000D01*
D58*
X186200000Y-67237500D02*
X189600000Y-67237500D01*
X178700000Y-68700000D02*
X185825000Y-68700000D01*
X142807500Y-54612500D02*
X143400000Y-54612500D01*
D68*
X173610000Y-65510000D02*
X175362500Y-67262500D01*
X175362500Y-68680000D02*
X175382500Y-68700000D01*
D58*
X142240000Y-55180000D02*
X142807500Y-54612500D01*
D68*
X175387500Y-77300000D02*
X175387500Y-78477500D01*
X168820000Y-54480000D02*
X169450000Y-54480000D01*
X175362500Y-74400000D02*
X175362500Y-69312500D01*
D58*
X143375000Y-54725000D02*
X143400000Y-54700000D01*
D68*
X175387500Y-78477500D02*
X176720000Y-79810000D01*
X171250000Y-60150000D02*
X171250000Y-64550000D01*
X170350000Y-59250000D02*
X171250000Y-60150000D01*
X179470000Y-79810000D02*
X180665000Y-81005000D01*
X148100000Y-54500000D02*
X150700000Y-54500000D01*
D58*
X175387500Y-74425000D02*
X175362500Y-74400000D01*
D68*
X176720000Y-79810000D02*
X179470000Y-79810000D01*
X169450000Y-54480000D02*
X170350000Y-55380000D01*
X175362500Y-67262500D02*
X175362500Y-68680000D01*
D58*
X142240000Y-55180000D02*
X142240000Y-57190000D01*
D68*
X162910000Y-54500000D02*
X162930000Y-54480000D01*
D58*
X148100000Y-54500000D02*
X145500000Y-54500000D01*
X143400000Y-54700000D02*
X145300000Y-54700000D01*
D68*
X172210000Y-65510000D02*
X173610000Y-65510000D01*
X171250000Y-64550000D02*
X172210000Y-65510000D01*
X175362500Y-68680000D02*
X175362500Y-69312500D01*
D58*
X185825000Y-68700000D02*
X186200000Y-68325000D01*
X186200000Y-68325000D02*
X186200000Y-67237500D01*
D68*
X175387500Y-77300000D02*
X175387500Y-74425000D01*
D62*
X180440000Y-54365000D02*
X180440000Y-54000000D01*
X168800000Y-57025000D02*
X168785000Y-57040000D01*
X177780000Y-57025000D02*
X180440000Y-54365000D01*
X168785000Y-57040000D02*
X165600000Y-57040000D01*
X168820000Y-58300000D02*
X168810000Y-58310000D01*
X176390000Y-58300000D02*
X178680000Y-58300000D01*
X168810000Y-58310000D02*
X165600000Y-58310000D01*
X178680000Y-58300000D02*
X182980000Y-54000000D01*
X189600000Y-65587500D02*
X189600000Y-63137500D01*
X190382500Y-63137500D02*
X189600000Y-63137500D01*
X191200000Y-52710000D02*
X186810000Y-52710000D01*
X184650000Y-56425000D02*
X185520000Y-55555000D01*
X191675000Y-53185000D02*
X191675000Y-61845000D01*
X189600000Y-63137500D02*
X188462500Y-62000000D01*
X184650000Y-56950000D02*
X184650000Y-56425000D01*
X191675000Y-61845000D02*
X190382500Y-63137500D01*
X185520000Y-55555000D02*
X185520000Y-54000000D01*
X186810000Y-52710000D02*
X185520000Y-54000000D01*
X184595000Y-56895000D02*
X184650000Y-56950000D01*
X191200000Y-52710000D02*
X191675000Y-53185000D01*
X186200000Y-65587500D02*
X186200000Y-63700000D01*
X186200000Y-63700000D02*
X184500000Y-62000000D01*
X186500000Y-60000000D02*
X186500000Y-57400000D01*
X188060000Y-54000000D02*
X188060000Y-56940000D01*
X186950000Y-56950000D02*
X188050000Y-56950000D01*
X184500000Y-62000000D02*
X186500000Y-60000000D01*
X188060000Y-56940000D02*
X188050000Y-56950000D01*
X188050000Y-56950000D02*
X190175000Y-56950000D01*
X186500000Y-57400000D02*
X186950000Y-56950000D01*
X182850000Y-59225000D02*
X183225000Y-58850000D01*
X183225000Y-58850000D02*
X184650000Y-58850000D01*
X182850000Y-62000000D02*
X182850000Y-59225000D01*
X213562500Y-112450000D02*
X215810000Y-112450000D01*
X229500000Y-105600000D02*
X229500000Y-78980000D01*
X227100000Y-108000000D02*
X229500000Y-105600000D01*
X216650000Y-108150000D02*
X216800000Y-108000000D01*
X229500000Y-78980000D02*
X228300000Y-77780000D01*
X215810000Y-112450000D02*
X216650000Y-111610000D01*
X216650000Y-111610000D02*
X216650000Y-108150000D01*
X216800000Y-108000000D02*
X227100000Y-108000000D01*
X178612106Y-59075000D02*
X176475000Y-59075000D01*
X176475000Y-59075000D02*
X175725000Y-59825000D01*
X182775000Y-57900000D02*
X179787106Y-57900000D01*
X166785000Y-69740000D02*
X170100000Y-66425000D01*
X159550000Y-77000000D02*
X164700000Y-77000000D01*
X165600000Y-69740000D02*
X166785000Y-69740000D01*
X165600000Y-76100000D02*
X165600000Y-69740000D01*
X170100000Y-66425000D02*
X170100000Y-63000000D01*
X179787106Y-57900000D02*
X178612106Y-59075000D01*
X175725000Y-59825000D02*
X175725000Y-62675000D01*
X164700000Y-77000000D02*
X165600000Y-76100000D01*
X86220000Y-107800000D02*
X86220000Y-105020000D01*
X86220000Y-105020000D02*
X85725000Y-104525000D01*
X85725000Y-104525000D02*
X85725000Y-102950000D01*
X97937500Y-106487500D02*
X95280000Y-103830000D01*
X95280000Y-103830000D02*
X95280000Y-102945000D01*
X97937500Y-107800000D02*
X97937500Y-106487500D01*
X100185000Y-103105000D02*
X100360000Y-102930000D01*
X100537500Y-107800000D02*
X100537500Y-103107500D01*
X100537500Y-103107500D02*
X100360000Y-102930000D01*
X111360000Y-104160000D02*
X111360000Y-102925000D01*
X112255000Y-107492500D02*
X112255000Y-105055000D01*
X112255000Y-105055000D02*
X111360000Y-104160000D01*
X110955000Y-106355000D02*
X108200000Y-103600000D01*
X108200000Y-103600000D02*
X108200000Y-102925000D01*
X110955000Y-107492500D02*
X110955000Y-106355000D01*
X87520000Y-105430000D02*
X88700000Y-104250000D01*
X87520000Y-107800000D02*
X87520000Y-105430000D01*
X88700000Y-104250000D02*
X88700000Y-102950000D01*
X99237500Y-107800000D02*
X99237500Y-105537500D01*
X99237500Y-105537500D02*
X97800000Y-104100000D01*
X97800000Y-104100000D02*
X97800000Y-102930000D01*
X81425000Y-96790000D02*
X81415000Y-96780000D01*
X84270000Y-107825000D02*
X84270000Y-106900000D01*
X84320000Y-107775000D02*
X84270000Y-107825000D01*
X84270000Y-106900000D02*
X81415000Y-104045000D01*
X81415000Y-104045000D02*
X81415000Y-96780000D01*
X112970000Y-107427500D02*
X112905000Y-107492500D01*
X112905000Y-96810000D02*
X112970000Y-96745000D01*
X112905000Y-107492500D02*
X112905000Y-96810000D01*
X84375000Y-104625000D02*
X84375000Y-96790000D01*
X85570000Y-105820000D02*
X84375000Y-104625000D01*
X85570000Y-107800000D02*
X85570000Y-105820000D01*
X86870000Y-107825000D02*
X86870000Y-104351066D01*
X86870000Y-104351066D02*
X87325000Y-103896066D01*
X87325000Y-103896066D02*
X87325000Y-96800000D01*
X96595000Y-96760000D02*
X96595000Y-103895000D01*
X98587500Y-105887500D02*
X98587500Y-107800000D01*
X96595000Y-103895000D02*
X98587500Y-105887500D01*
X100150000Y-112250000D02*
X99887500Y-112512500D01*
X101550000Y-112250000D02*
X100150000Y-112250000D01*
X101555000Y-108485000D02*
X101555000Y-96760000D01*
X99887500Y-112512500D02*
X99887500Y-113525000D01*
X101550000Y-108490000D02*
X101555000Y-108485000D01*
X111605000Y-105905000D02*
X111605000Y-107492500D01*
X109770000Y-104070000D02*
X111605000Y-105905000D01*
X109770000Y-96755000D02*
X109770000Y-104070000D01*
X116150000Y-112375000D02*
X116137500Y-112362500D01*
X112905000Y-112692266D02*
X112905000Y-113525000D01*
X116540000Y-96760000D02*
X116520000Y-96740000D01*
X116540000Y-108490000D02*
X116540000Y-96760000D01*
X116137500Y-112362500D02*
X113234766Y-112362500D01*
X113234766Y-112362500D02*
X112905000Y-112692266D01*
X106605000Y-103030000D02*
X110305000Y-106730000D01*
X106605000Y-96790000D02*
X106605000Y-103030000D01*
X110305000Y-106730000D02*
X110305000Y-107492500D01*
X89050000Y-108490000D02*
X90225000Y-107315000D01*
X86870000Y-112500000D02*
X86870000Y-113550000D01*
X87520001Y-111850000D02*
X86870000Y-112500000D01*
X89050000Y-111850000D02*
X87520001Y-111850000D01*
X90225000Y-107315000D02*
X90225000Y-96790000D01*
X99887500Y-104239682D02*
X99105000Y-103457182D01*
X99105000Y-103457182D02*
X99105000Y-96760000D01*
X99887500Y-107800000D02*
X99887500Y-104239682D01*
X158760000Y-70995000D02*
X158755000Y-70990000D01*
X166590000Y-73520000D02*
X167950000Y-74880000D01*
X158760000Y-73520000D02*
X158760000Y-70995000D01*
X167950000Y-74880000D02*
X170400000Y-74880000D01*
X114790000Y-104010000D02*
X114790000Y-102925000D01*
X113555000Y-107800000D02*
X113555000Y-105245000D01*
X113555000Y-105245000D02*
X114790000Y-104010000D01*
X99706632Y-109394545D02*
X103100181Y-109394545D01*
X153125000Y-99525000D02*
X152578333Y-100071667D01*
X140966667Y-108633333D02*
X140966667Y-105500000D01*
X93315319Y-115350000D02*
X96144364Y-115350000D01*
X105450000Y-114479226D02*
X106340319Y-115369545D01*
X96645000Y-112456177D02*
X99706632Y-109394545D01*
X149865000Y-70990000D02*
X149865000Y-72615000D01*
X111500000Y-109900000D02*
X139700000Y-109900000D01*
X152578333Y-100071667D02*
X143228333Y-100071667D01*
X149865000Y-72615000D02*
X153125000Y-75875000D01*
X96645000Y-113544545D02*
X96645000Y-112456177D01*
X140966667Y-102333333D02*
X140966667Y-105500000D01*
X96144364Y-115350000D02*
X96637500Y-114856864D01*
X103100181Y-109394545D02*
X105450000Y-111744366D01*
X105450000Y-111744366D02*
X105450000Y-114479226D01*
X109655000Y-111745000D02*
X111500000Y-109900000D01*
X86681632Y-109375000D02*
X90075181Y-109375000D01*
X92425000Y-114459681D02*
X93315319Y-115350000D01*
X139700000Y-109900000D02*
X140966667Y-108633333D01*
X153125000Y-75875000D02*
X153125000Y-99525000D01*
X106340319Y-115369545D02*
X109169364Y-115369545D01*
X90075181Y-109375000D02*
X92425000Y-111724821D01*
X83620000Y-112436632D02*
X86681632Y-109375000D01*
X83620000Y-113525000D02*
X83620000Y-112436632D01*
X143228333Y-100071667D02*
X140966667Y-102333333D01*
X92425000Y-111724821D02*
X92425000Y-114459681D01*
X96637500Y-114856864D02*
X96637500Y-113525000D01*
X109169364Y-115369545D02*
X109662500Y-114876409D01*
X109662500Y-114876409D02*
X109662500Y-113544545D01*
X109655000Y-113525000D02*
X109655000Y-111745000D01*
X151250000Y-108700000D02*
X151716667Y-108233333D01*
X110305000Y-111872818D02*
X111727818Y-110450000D01*
X151716667Y-108233333D02*
X151716667Y-105500000D01*
X104900000Y-114707044D02*
X106112501Y-115919545D01*
X97295000Y-112583993D02*
X99934449Y-109944545D01*
X109397182Y-115919545D02*
X110250000Y-115066727D01*
X93087501Y-115900000D02*
X96372182Y-115900000D01*
X110305000Y-113525000D02*
X110305000Y-111872818D01*
X151716667Y-102433333D02*
X152428333Y-101721667D01*
X156215000Y-73085000D02*
X156215000Y-70990000D01*
X106112501Y-115919545D02*
X109397182Y-115919545D01*
X155750000Y-73550000D02*
X156215000Y-73085000D01*
X84270000Y-112564448D02*
X86909449Y-109925000D01*
X97225000Y-114412956D02*
X97287500Y-114350456D01*
X91875000Y-114687499D02*
X93087501Y-115900000D01*
X84270000Y-113525000D02*
X84270000Y-112564448D01*
X154103333Y-101721667D02*
X155750000Y-100075000D01*
X99934449Y-109944545D02*
X102872363Y-109944545D01*
X97287500Y-114350456D02*
X97287500Y-113525000D01*
X96372182Y-115900000D02*
X97225000Y-115047182D01*
X91875000Y-111952638D02*
X91875000Y-114687499D01*
X152428333Y-101721667D02*
X154103333Y-101721667D01*
X111727818Y-110450000D02*
X141550000Y-110450000D01*
X97225000Y-115047182D02*
X97225000Y-114412956D01*
X97295000Y-113544545D02*
X97295000Y-112583993D01*
X104900000Y-111972183D02*
X104900000Y-114707044D01*
X151716667Y-105500000D02*
X151716667Y-102433333D01*
X155750000Y-100075000D02*
X155750000Y-73550000D01*
X141550000Y-110450000D02*
X143300000Y-108700000D01*
X110312500Y-114370001D02*
X110312500Y-113544545D01*
X89847363Y-109925000D02*
X91875000Y-111952638D01*
X86909449Y-109925000D02*
X89847363Y-109925000D01*
X110250000Y-115066727D02*
X110250000Y-114432501D01*
X110250000Y-114432501D02*
X110312500Y-114370001D01*
X102872363Y-109944545D02*
X104900000Y-111972183D01*
X143300000Y-108700000D02*
X151250000Y-108700000D01*
X110955000Y-112200636D02*
X110955000Y-113525000D01*
X154000000Y-99896667D02*
X153275000Y-100621667D01*
X96600000Y-116450000D02*
X97775000Y-115275000D01*
X110800000Y-114660318D02*
X110962500Y-114497818D01*
X110962500Y-114497818D02*
X110962500Y-113544545D01*
X153275000Y-100621667D02*
X146253333Y-100621667D01*
X104350000Y-114934862D02*
X105884683Y-116469545D01*
X143550000Y-111000000D02*
X112155636Y-111000000D01*
X91325000Y-114915317D02*
X92859683Y-116450000D01*
X100162266Y-110494545D02*
X102644545Y-110494545D01*
X84920000Y-112692266D02*
X87137266Y-110475000D01*
X110800000Y-115294545D02*
X110800000Y-114660318D01*
X144550000Y-102325000D02*
X144550000Y-105500000D01*
X97945000Y-112711811D02*
X100162266Y-110494545D01*
X144550000Y-110000000D02*
X143550000Y-111000000D01*
X97775000Y-114640773D02*
X97937500Y-114478273D01*
X102644545Y-110494545D02*
X104350000Y-112200000D01*
X97945000Y-113544545D02*
X97945000Y-112711811D01*
X91325000Y-112180455D02*
X91325000Y-114915317D01*
X105884683Y-116469545D02*
X109625000Y-116469545D01*
X109625000Y-116469545D02*
X110800000Y-115294545D01*
X87137266Y-110475000D02*
X89619545Y-110475000D01*
X104350000Y-112200000D02*
X104350000Y-114934862D01*
X112155636Y-111000000D02*
X110955000Y-112200636D01*
X84920000Y-113525000D02*
X84920000Y-112692266D01*
X146253333Y-100621667D02*
X144550000Y-102325000D01*
X89619545Y-110475000D02*
X91325000Y-112180455D01*
X92859683Y-116450000D02*
X96600000Y-116450000D01*
X154000000Y-70990000D02*
X154000000Y-99896667D01*
X97937500Y-114478273D02*
X97937500Y-113525000D01*
X97775000Y-115275000D02*
X97775000Y-114640773D01*
X148133333Y-102291667D02*
X149253333Y-101171667D01*
X148133333Y-105500000D02*
X148133333Y-102291667D01*
X154925000Y-100050000D02*
X154925000Y-71040000D01*
X154950000Y-70995000D02*
X154945000Y-70990000D01*
X113000000Y-111550000D02*
X112255000Y-112295000D01*
X112255000Y-112295000D02*
X112255000Y-113525000D01*
X146650000Y-111550000D02*
X148200000Y-110000000D01*
X149253333Y-101171667D02*
X153803333Y-101171667D01*
X136127817Y-111550000D02*
X113000000Y-111550000D01*
X153803333Y-101171667D02*
X154925000Y-100050000D01*
X154925000Y-71040000D02*
X154875000Y-70990000D01*
X136127817Y-111550000D02*
X146650000Y-111550000D01*
X139930000Y-81420000D02*
X139930000Y-84295000D01*
X158475000Y-84285000D02*
X158460000Y-84270000D01*
X139930000Y-84295000D02*
X139925000Y-84300000D01*
X164945000Y-84285000D02*
X158475000Y-84285000D01*
X139930000Y-65400000D02*
X141940000Y-63390000D01*
X171190000Y-94520000D02*
X169975000Y-93305000D01*
X173300000Y-94520000D02*
X171190000Y-94520000D01*
X169975000Y-89315000D02*
X164945000Y-84285000D01*
X169975000Y-93305000D02*
X169975000Y-89315000D01*
X141940000Y-63390000D02*
X148100000Y-63390000D01*
X139930000Y-81420000D02*
X139930000Y-65400000D01*
X141490000Y-62120000D02*
X148100000Y-62120000D01*
X138675000Y-80475000D02*
X138670000Y-80470000D01*
X170865000Y-91475000D02*
X171370000Y-91980000D01*
X165115000Y-83025000D02*
X158475000Y-83025000D01*
X138670000Y-64940000D02*
X141490000Y-62120000D01*
X165115000Y-83025000D02*
X170865000Y-88775000D01*
X170865000Y-88775000D02*
X170865000Y-91475000D01*
X138675000Y-83050000D02*
X138675000Y-80475000D01*
X158475000Y-83025000D02*
X158460000Y-83010000D01*
X138670000Y-80470000D02*
X138670000Y-64940000D01*
X171370000Y-91980000D02*
X173300000Y-91980000D01*
X169030000Y-89880000D02*
X164765000Y-85615000D01*
X143950000Y-85600000D02*
X152250000Y-85600000D01*
X164765000Y-85615000D02*
X158475000Y-85615000D01*
X173300000Y-97060000D02*
X173290000Y-97070000D01*
X173290000Y-97070000D02*
X171180000Y-97070000D01*
X148100000Y-65930000D02*
X144190000Y-65930000D01*
X142850000Y-84500000D02*
X143950000Y-85600000D01*
X158475000Y-85340000D02*
X158460000Y-85325000D01*
X171180000Y-97070000D02*
X169030000Y-94920000D01*
X169030000Y-94920000D02*
X169030000Y-89880000D01*
X142850000Y-67270000D02*
X142850000Y-84500000D01*
X144190000Y-65930000D02*
X142850000Y-67270000D01*
X142725000Y-86925000D02*
X141225000Y-85425000D01*
X141225000Y-66550000D02*
X143115000Y-64660000D01*
X152235000Y-86925000D02*
X152250000Y-86910000D01*
X164065000Y-86925000D02*
X158475000Y-86925000D01*
X143115000Y-64660000D02*
X148100000Y-64660000D01*
X142725000Y-86925000D02*
X152235000Y-86925000D01*
X171110000Y-99600000D02*
X167810000Y-96300000D01*
X167810000Y-96300000D02*
X167810000Y-90670000D01*
X167810000Y-90670000D02*
X164065000Y-86925000D01*
X173300000Y-99600000D02*
X171110000Y-99600000D01*
X141225000Y-85425000D02*
X141225000Y-66550000D01*
X158475000Y-86917500D02*
X158460000Y-86902500D01*
X165600000Y-55770000D02*
X165520000Y-55850000D01*
D58*
X228300000Y-72000000D02*
X226000000Y-74300000D01*
X226000000Y-74300000D02*
X226000000Y-77780000D01*
D62*
X64030000Y-116630000D02*
X65492500Y-116630000D01*
X63150000Y-111600000D02*
X63150000Y-115750000D01*
X65492500Y-116630000D02*
X67495000Y-116630000D01*
X63150000Y-115750000D02*
X64030000Y-116630000D01*
X67495000Y-116630000D02*
X68350000Y-115775000D01*
X161295000Y-73925000D02*
X161295000Y-70990000D01*
X156650000Y-121799500D02*
X156609500Y-121840000D01*
X158157183Y-74640000D02*
X160580000Y-74640000D01*
X156609500Y-121840000D02*
X65910000Y-121840000D01*
X158157183Y-74640000D02*
X156625000Y-76172183D01*
X160580000Y-74640000D02*
X161295000Y-73925000D01*
X65910000Y-121840000D02*
X65850000Y-121900000D01*
X156625000Y-76172183D02*
X156625000Y-117225000D01*
X161200000Y-71085000D02*
X161295000Y-70990000D01*
X208800000Y-92685000D02*
X212542500Y-92685000D01*
X212542500Y-92685000D02*
X213257500Y-91970000D01*
X208580000Y-94260000D02*
X208580000Y-92905000D01*
X208580000Y-92905000D02*
X208800000Y-92685000D01*
D60*
X200100000Y-70000000D02*
X200100000Y-59700000D01*
X200100000Y-59700000D02*
X203250000Y-56550000D01*
D62*
X190400000Y-84900000D02*
X192600000Y-82700000D01*
D60*
X200240000Y-82510000D02*
X200240000Y-84420000D01*
X200240000Y-82510000D02*
X192790000Y-82510000D01*
X203250000Y-56550000D02*
X216160000Y-56550000D01*
X200240000Y-82510000D02*
X200240000Y-78140000D01*
D62*
X206930000Y-94260000D02*
X190760000Y-94260000D01*
D60*
X192790000Y-82510000D02*
X192600000Y-82700000D01*
X200240000Y-84420000D02*
X201680000Y-85860000D01*
D62*
X190760000Y-94260000D02*
X190400000Y-93900000D01*
X190400000Y-93900000D02*
X190400000Y-84900000D01*
D60*
X216110000Y-56600000D02*
X216160000Y-56550000D01*
X200240000Y-78140000D02*
X200100000Y-78000000D01*
D62*
X177900000Y-55570000D02*
X172900000Y-60570000D01*
X177900000Y-54000000D02*
X177900000Y-55570000D01*
X172900000Y-60570000D02*
X172900000Y-61700000D01*
X170400000Y-76530000D02*
X170400000Y-78930000D01*
X170400000Y-78930000D02*
X170375000Y-78955000D01*
X110535000Y-53665000D02*
X110655000Y-53665000D01*
X110655000Y-53665000D02*
X111792500Y-54802500D01*
X111792500Y-57152500D02*
X116500000Y-61890000D01*
X111792500Y-54802500D02*
X111792500Y-57152500D01*
X116500000Y-95070000D02*
X116500000Y-61890000D01*
X113000000Y-62015000D02*
X113000000Y-95095000D01*
X110535000Y-56205000D02*
X110540000Y-56210000D01*
X110535000Y-59550000D02*
X113000000Y-62015000D01*
X110535000Y-56205000D02*
X110535000Y-59550000D01*
X114790000Y-101275000D02*
X114810000Y-101255000D01*
X114810000Y-101255000D02*
X114810000Y-61965000D01*
X109280000Y-57940000D02*
X109275000Y-57940000D01*
X109280000Y-54950000D02*
X109280000Y-57940000D01*
X109275000Y-57940000D02*
X109270000Y-57935000D01*
X109280000Y-54950000D02*
X107995000Y-53665000D01*
X107995000Y-56205000D02*
X107995000Y-58580000D01*
X111370000Y-101265000D02*
X111360000Y-101275000D01*
X111350000Y-101265000D02*
X111360000Y-101275000D01*
X107995000Y-58580000D02*
X111370000Y-61955000D01*
X111370000Y-61955000D02*
X111370000Y-101265000D01*
X106705000Y-58830000D02*
X109770000Y-61895000D01*
X105455000Y-53665000D02*
X106705000Y-54915000D01*
X106705000Y-54915000D02*
X106705000Y-58830000D01*
X109770000Y-61895000D02*
X109770000Y-95105000D01*
X108200000Y-61985000D02*
X105455000Y-59240000D01*
X108200000Y-101275000D02*
X108200000Y-61985000D01*
X105455000Y-59240000D02*
X105455000Y-56205000D01*
X108200000Y-101275000D02*
X108180000Y-101255000D01*
X104180000Y-59605000D02*
X106605000Y-62030000D01*
X102915000Y-53665000D02*
X104180000Y-54930000D01*
X104180000Y-54930000D02*
X104180000Y-59605000D01*
X106605000Y-62030000D02*
X106605000Y-95140000D01*
X101605000Y-95060000D02*
X101605000Y-54895000D01*
X101555000Y-95110000D02*
X101605000Y-95060000D01*
X101555000Y-95140000D02*
X101600000Y-95095000D01*
X101605000Y-54895000D02*
X100375000Y-53665000D01*
X100360000Y-101280000D02*
X100345000Y-101265000D01*
X100360000Y-101280000D02*
X100375000Y-101265000D01*
X100375000Y-101265000D02*
X100375000Y-56205000D01*
X99105000Y-95110000D02*
X99105000Y-54935000D01*
X99105000Y-95110000D02*
X99100000Y-95105000D01*
X99105000Y-54935000D02*
X97835000Y-53665000D01*
X97835000Y-101245000D02*
X97835000Y-56205000D01*
X97800000Y-101240000D02*
X97805000Y-101235000D01*
X97800000Y-101280000D02*
X97835000Y-101245000D01*
X96555000Y-54840000D02*
X96595000Y-95110000D01*
X95295000Y-53665000D02*
X95380000Y-53665000D01*
X96550000Y-95085000D02*
X96595000Y-95130000D01*
X95380000Y-53665000D02*
X96555000Y-54840000D01*
X95275000Y-101220000D02*
X95350000Y-101295000D01*
X95265000Y-101005000D02*
X95050000Y-101220000D01*
X95295000Y-101280000D02*
X95280000Y-101295000D01*
X95295000Y-56205000D02*
X95295000Y-101280000D01*
X95295000Y-56205000D02*
X95380000Y-56290000D01*
X94005000Y-54915000D02*
X94005000Y-60115000D01*
X92755000Y-53665000D02*
X94005000Y-54915000D01*
X90230000Y-63890000D02*
X90225000Y-95140000D01*
X94005000Y-60115000D02*
X90230000Y-63890000D01*
X88720000Y-101280000D02*
X88720000Y-63905000D01*
X92755000Y-59870000D02*
X92755000Y-56205000D01*
X88700000Y-101300000D02*
X88720000Y-101280000D01*
X88720000Y-63905000D02*
X92755000Y-59870000D01*
X87325000Y-63830000D02*
X91480000Y-59675000D01*
X90215000Y-53665000D02*
X89955000Y-53665000D01*
X90215000Y-53665000D02*
X89980000Y-53665000D01*
X90255000Y-53665000D02*
X90215000Y-53665000D01*
X91480000Y-59675000D02*
X91480000Y-54890000D01*
X87325000Y-95150000D02*
X87325000Y-63830000D01*
X91480000Y-54890000D02*
X90255000Y-53665000D01*
X90215000Y-59370000D02*
X85745000Y-63840000D01*
X85745000Y-101280000D02*
X85725000Y-101300000D01*
X90215000Y-56205000D02*
X90215000Y-59370000D01*
X85750000Y-101275000D02*
X85725000Y-101300000D01*
X85745000Y-63840000D02*
X85745000Y-101280000D01*
X90215000Y-56205000D02*
X90205000Y-56215000D01*
X88955000Y-59220000D02*
X84375000Y-63800000D01*
X84375000Y-63800000D02*
X84375000Y-95140000D01*
X88955000Y-54945000D02*
X88955000Y-59220000D01*
X87675000Y-53665000D02*
X87675000Y-53670000D01*
X87675000Y-53665000D02*
X88955000Y-54945000D01*
X82820000Y-63845000D02*
X82820000Y-101280000D01*
X87675000Y-58990000D02*
X82820000Y-63845000D01*
X87675000Y-56205000D02*
X87675000Y-58990000D01*
X82820000Y-101280000D02*
X82800000Y-101300000D01*
X81425000Y-95120000D02*
X81415000Y-95130000D01*
X86405000Y-54935000D02*
X86405000Y-58920000D01*
X85135000Y-53665000D02*
X86405000Y-54935000D01*
X86405000Y-58920000D02*
X81415000Y-63910000D01*
X81415000Y-63910000D02*
X81415000Y-95130000D01*
X190112500Y-62000000D02*
X190112500Y-58912500D01*
X190112500Y-58912500D02*
X190175000Y-58850000D01*
X108980000Y-113500000D02*
X109005000Y-113525000D01*
X99237500Y-112197129D02*
X99237500Y-113525000D01*
X103525500Y-112325500D02*
X102350000Y-111150000D01*
X108150000Y-113500000D02*
X108980000Y-113500000D01*
X100284629Y-111150000D02*
X99237500Y-112197129D01*
X103525500Y-113500000D02*
X103525500Y-112325500D01*
X102350000Y-111150000D02*
X100284629Y-111150000D01*
X55415000Y-87600000D02*
X55415000Y-91342500D01*
X55415000Y-91342500D02*
X56130000Y-92057500D01*
X55195000Y-87380000D02*
X55415000Y-87600000D01*
X53840000Y-87380000D02*
X55195000Y-87380000D01*
X94550000Y-113500000D02*
X95962500Y-113500000D01*
X95962500Y-113500000D02*
X95987500Y-113525000D01*
X90500000Y-112133273D02*
X89391727Y-111025000D01*
X89391727Y-111025000D02*
X87567183Y-111025000D01*
X87567183Y-111025000D02*
X86220000Y-112372183D01*
X90500000Y-113500000D02*
X90500000Y-112133273D01*
X86220000Y-112372183D02*
X86220000Y-113525000D01*
D68*
X178990000Y-102170000D02*
X179015000Y-102145000D01*
X173300000Y-102140000D02*
X178960000Y-102140000D01*
X179015000Y-102145000D02*
X179015000Y-98970000D01*
X178960000Y-102140000D02*
X178990000Y-102170000D01*
D62*
X217610000Y-117200000D02*
X217660000Y-117250000D01*
X213650000Y-113950000D02*
X214540000Y-114840000D01*
X217660000Y-117250000D02*
X217660000Y-114840000D01*
X214540000Y-114840000D02*
X217660000Y-114840000D01*
X65850000Y-118400000D02*
X65580000Y-118130000D01*
X63950000Y-121900000D02*
X65600000Y-120250000D01*
X65600000Y-120250000D02*
X65850000Y-120250000D01*
X65850000Y-120250000D02*
X65850000Y-118400000D01*
X63950000Y-121900000D02*
X64200000Y-121900000D01*
G04 #@! TA.AperFunction,Conductor*
G36*
X164153473Y-55399685D02*
G01*
X164199228Y-55452489D01*
X164210433Y-55503566D01*
X164259563Y-69535375D01*
X164240114Y-69602483D01*
X164187470Y-69648422D01*
X164135374Y-69659809D01*
X151314244Y-69640190D01*
X151247235Y-69620403D01*
X151201561Y-69567529D01*
X151190435Y-69515757D01*
X151239567Y-55503565D01*
X151259486Y-55436595D01*
X151312450Y-55391026D01*
X151363566Y-55380000D01*
X164086434Y-55380000D01*
X164153473Y-55399685D01*
G37*
G04 #@! TD.AperFunction*
G04 #@! TA.AperFunction,Conductor*
G36*
X63531179Y-122526959D02*
G01*
X63590298Y-122547645D01*
X63590300Y-122547646D01*
X63620730Y-122550500D01*
X63620734Y-122550500D01*
X64279270Y-122550500D01*
X64309699Y-122547646D01*
X64329341Y-122540772D01*
X64368821Y-122526959D01*
X64409776Y-122520000D01*
X65390224Y-122520000D01*
X65431179Y-122526959D01*
X65490298Y-122547645D01*
X65490300Y-122547646D01*
X65520730Y-122550500D01*
X65520734Y-122550500D01*
X66179270Y-122550500D01*
X66209699Y-122547646D01*
X66229341Y-122540772D01*
X66268821Y-122526959D01*
X66309776Y-122520000D01*
X230480000Y-122520000D01*
X230480000Y-122790000D01*
X234770000Y-122790000D01*
X234999500Y-122560500D01*
X234999500Y-124866000D01*
X234979815Y-124933039D01*
X234927011Y-124978794D01*
X234875500Y-124990000D01*
X61321362Y-124990000D01*
X61254323Y-124970315D01*
X61233681Y-124953681D01*
X61220000Y-124940000D01*
X61190000Y-124910000D01*
X61190000Y-122520000D01*
X61280000Y-122520000D01*
X63490224Y-122520000D01*
X63531179Y-122526959D01*
G37*
G04 #@! TD.AperFunction*
G04 #@! TA.AperFunction,Conductor*
G36*
X60800000Y-67588638D02*
G01*
X60780315Y-67655677D01*
X60763681Y-67676319D01*
X60576319Y-67863681D01*
X60514996Y-67897166D01*
X60488638Y-67900000D01*
X52879999Y-67900000D01*
X52820000Y-67959999D01*
X52820000Y-67960000D01*
X52820000Y-111130000D01*
X61089998Y-111130000D01*
X61090000Y-111130000D01*
X61090001Y-111129998D01*
X61108546Y-111122317D01*
X61178015Y-111114848D01*
X61240495Y-111146122D01*
X61276148Y-111206211D01*
X61280000Y-111236878D01*
X61280000Y-122520000D01*
X61190000Y-122520000D01*
X61190000Y-124910000D01*
X61220000Y-124940000D01*
X50196062Y-124940000D01*
X50129023Y-124920315D01*
X50083268Y-124867511D01*
X50072073Y-124817625D01*
X50040000Y-122370000D01*
X50040000Y-52225000D01*
X60800000Y-52225000D01*
X60800000Y-67588638D01*
G37*
G04 #@! TD.AperFunction*
G04 #@! TA.AperFunction,Conductor*
G36*
X50040000Y-52225000D02*
G01*
X50036819Y-52221819D01*
X50024938Y-52200061D01*
X50040000Y-52185000D01*
X50040000Y-52225000D01*
G37*
G04 #@! TD.AperFunction*
G04 #@! TA.AperFunction,Conductor*
G36*
X68432736Y-94809900D02*
G01*
X68478690Y-94862531D01*
X68490091Y-94914377D01*
X68499909Y-108275909D01*
X68480274Y-108342963D01*
X68427503Y-108388756D01*
X68375909Y-108400000D01*
X66450000Y-108400000D01*
X66450000Y-112776000D01*
X66430315Y-112843039D01*
X66377511Y-112888794D01*
X66326000Y-112900000D01*
X64574000Y-112900000D01*
X64506961Y-112880315D01*
X64461206Y-112827511D01*
X64450000Y-112776000D01*
X64450000Y-108380000D01*
X55723811Y-108360279D01*
X55656816Y-108340443D01*
X55611181Y-108287535D01*
X55600091Y-108236191D01*
X55602630Y-104817000D01*
X55622363Y-104749980D01*
X55675201Y-104704264D01*
X55739885Y-104693808D01*
X55742516Y-104694090D01*
X55742517Y-104694091D01*
X55802127Y-104700500D01*
X56997872Y-104700499D01*
X57057483Y-104694091D01*
X57192331Y-104643796D01*
X57307546Y-104557546D01*
X57393796Y-104442331D01*
X57444091Y-104307483D01*
X57450500Y-104247873D01*
X57450499Y-101152128D01*
X57444091Y-101092517D01*
X57393796Y-100957669D01*
X57393795Y-100957668D01*
X57393793Y-100957664D01*
X57307547Y-100842455D01*
X57307544Y-100842452D01*
X57192335Y-100756206D01*
X57192328Y-100756202D01*
X57057482Y-100705908D01*
X57057483Y-100705908D01*
X56997883Y-100699501D01*
X56997881Y-100699500D01*
X56997873Y-100699500D01*
X56997865Y-100699500D01*
X55874500Y-100699500D01*
X55807461Y-100679815D01*
X55761706Y-100627011D01*
X55750500Y-100575500D01*
X55750500Y-97472676D01*
X55750558Y-97470361D01*
X55752756Y-97383637D01*
X55741932Y-97323247D01*
X55741282Y-97318617D01*
X55735074Y-97257562D01*
X55724790Y-97224786D01*
X55722917Y-97217154D01*
X55716858Y-97183349D01*
X55716858Y-97183347D01*
X55694102Y-97126378D01*
X55692521Y-97121937D01*
X55674159Y-97063412D01*
X55657488Y-97033378D01*
X55654118Y-97026280D01*
X55641379Y-96994387D01*
X55641378Y-96994386D01*
X55641377Y-96994383D01*
X55628964Y-96975548D01*
X55608509Y-96908743D01*
X55608502Y-96907460D01*
X55609909Y-95012411D01*
X55629643Y-94945387D01*
X55682481Y-94899671D01*
X55732401Y-94888513D01*
X57328995Y-94869121D01*
X57396268Y-94887990D01*
X57442660Y-94940234D01*
X57454500Y-94993112D01*
X57454500Y-95562178D01*
X57469032Y-95635235D01*
X57469033Y-95635239D01*
X57469034Y-95635240D01*
X57524399Y-95718101D01*
X57607260Y-95773466D01*
X57607264Y-95773467D01*
X57680321Y-95787999D01*
X57680324Y-95788000D01*
X57680326Y-95788000D01*
X58379676Y-95788000D01*
X58379677Y-95787999D01*
X58452740Y-95773466D01*
X58535601Y-95718101D01*
X58590966Y-95635240D01*
X58605500Y-95562174D01*
X58605500Y-94976120D01*
X58625185Y-94909081D01*
X58677989Y-94863326D01*
X58727991Y-94852129D01*
X60550000Y-94830000D01*
X60549998Y-94829998D01*
X60604168Y-94829341D01*
X60632440Y-94819740D01*
X60637132Y-94819633D01*
X68365624Y-94790469D01*
X68432736Y-94809900D01*
G37*
G04 #@! TD.AperFunction*
G04 #@! TA.AperFunction,Conductor*
G36*
X224461880Y-70579739D02*
G01*
X224507684Y-70632500D01*
X224518934Y-70685173D01*
X224451043Y-78657518D01*
X224430788Y-78724387D01*
X224377596Y-78769691D01*
X224327514Y-78780461D01*
X213957972Y-78819517D01*
X213890859Y-78800085D01*
X213844905Y-78747454D01*
X213833553Y-78692075D01*
X213880000Y-77020000D01*
X213840773Y-70694652D01*
X213860042Y-70627492D01*
X213912561Y-70581410D01*
X213964653Y-70569883D01*
X224394822Y-70560117D01*
X224461880Y-70579739D01*
G37*
G04 #@! TD.AperFunction*
G04 #@! TA.AperFunction,Conductor*
G36*
X234942539Y-50020185D02*
G01*
X234988294Y-50072989D01*
X234999500Y-50124500D01*
X234999500Y-51860000D01*
X230480000Y-51860000D01*
X230480000Y-52225000D01*
X60800000Y-52225000D01*
X50040000Y-52225000D01*
X50040000Y-52185000D01*
X50024938Y-52200061D01*
X50003334Y-52160496D01*
X50000500Y-52134138D01*
X50000500Y-50124500D01*
X50020185Y-50057461D01*
X50072989Y-50011706D01*
X50124500Y-50000500D01*
X234875500Y-50000500D01*
X234942539Y-50020185D01*
G37*
G04 #@! TD.AperFunction*
G04 #@! TA.AperFunction,Conductor*
G36*
X226980438Y-76531165D02*
G01*
X227027485Y-76582820D01*
X227040000Y-76637107D01*
X227040000Y-79640000D01*
X229001478Y-79655444D01*
X229068359Y-79675656D01*
X229113696Y-79728818D01*
X229124500Y-79779440D01*
X229124500Y-92375583D01*
X229104815Y-92442622D01*
X229052011Y-92488377D01*
X229000408Y-92499583D01*
X219431156Y-92492480D01*
X219364131Y-92472746D01*
X219351779Y-92463667D01*
X219285026Y-92407937D01*
X219285013Y-92407928D01*
X219089245Y-92296847D01*
X218876786Y-92222502D01*
X218876783Y-92222501D01*
X218654460Y-92187289D01*
X218429421Y-92192340D01*
X218208911Y-92237490D01*
X218208898Y-92237494D01*
X217999991Y-92321292D01*
X217809395Y-92441052D01*
X217790056Y-92458728D01*
X217727291Y-92489426D01*
X217706307Y-92491199D01*
X216212412Y-92490090D01*
X216145387Y-92470356D01*
X216099671Y-92417518D01*
X216088513Y-92367596D01*
X216086751Y-92222501D01*
X216069121Y-90771004D01*
X216087990Y-90703732D01*
X216140234Y-90657340D01*
X216193112Y-90645500D01*
X216762176Y-90645500D01*
X216762177Y-90645499D01*
X216835240Y-90630966D01*
X216918101Y-90575601D01*
X216973466Y-90492740D01*
X216988000Y-90419674D01*
X216988000Y-89720326D01*
X216988000Y-89720323D01*
X216987999Y-89720321D01*
X216973467Y-89647264D01*
X216973466Y-89647260D01*
X216918101Y-89564399D01*
X216835240Y-89509034D01*
X216835239Y-89509033D01*
X216835235Y-89509032D01*
X216762177Y-89494500D01*
X216762174Y-89494500D01*
X216176120Y-89494500D01*
X216109081Y-89474815D01*
X216063326Y-89422011D01*
X216052129Y-89372008D01*
X216030000Y-87550000D01*
X216029998Y-87550001D01*
X216029341Y-87495828D01*
X216019740Y-87467547D01*
X216019633Y-87462846D01*
X215990472Y-79735156D01*
X216009903Y-79668043D01*
X216062534Y-79622089D01*
X216115151Y-79610690D01*
X225050000Y-79660000D01*
X225050000Y-79659999D01*
X225021182Y-76682139D01*
X225040217Y-76614912D01*
X225092575Y-76568648D01*
X225142105Y-76556977D01*
X226912932Y-76513145D01*
X226980438Y-76531165D01*
G37*
G04 #@! TD.AperFunction*
G04 #@! TA.AperFunction,Conductor*
G36*
X214213039Y-79689685D02*
G01*
X214258794Y-79742489D01*
X214270000Y-79794000D01*
X214270000Y-90334745D01*
X214250315Y-90401784D01*
X214197511Y-90447539D01*
X214128353Y-90457483D01*
X214121808Y-90456362D01*
X214062176Y-90444500D01*
X214062174Y-90444500D01*
X212452826Y-90444500D01*
X212452824Y-90444500D01*
X212386883Y-90457617D01*
X212362691Y-90460000D01*
X212154000Y-90460000D01*
X212086961Y-90440315D01*
X212041206Y-90387511D01*
X212030000Y-90336000D01*
X212030000Y-86660000D01*
X212029998Y-86659999D01*
X206073592Y-86640406D01*
X206006618Y-86620501D01*
X205961037Y-86567547D01*
X205950000Y-86516407D01*
X205950000Y-84060000D01*
X202863718Y-84060000D01*
X202796679Y-84040315D01*
X202750924Y-83987511D01*
X202739718Y-83936282D01*
X202730283Y-79794282D01*
X202749815Y-79727198D01*
X202802515Y-79681323D01*
X202854283Y-79670000D01*
X214146000Y-79670000D01*
X214213039Y-79689685D01*
G37*
G04 #@! TD.AperFunction*
G04 #@! TA.AperFunction,Conductor*
G36*
X68372188Y-81550156D02*
G01*
X68418371Y-81602585D01*
X68430000Y-81655013D01*
X68430000Y-92946000D01*
X68410315Y-93013039D01*
X68357511Y-93058794D01*
X68306000Y-93070000D01*
X57765255Y-93070000D01*
X57698216Y-93050315D01*
X57652461Y-92997511D01*
X57642517Y-92928353D01*
X57643638Y-92921808D01*
X57655500Y-92862176D01*
X57655500Y-91252823D01*
X57642383Y-91186883D01*
X57640000Y-91162691D01*
X57640000Y-90952058D01*
X57659685Y-90885019D01*
X57712489Y-90839264D01*
X57762041Y-90828073D01*
X61440000Y-90770000D01*
X61420414Y-84864882D01*
X61439876Y-84797779D01*
X61492528Y-84751849D01*
X61544882Y-84740473D01*
X63566394Y-84748129D01*
X64060145Y-84750000D01*
X64060145Y-84749999D01*
X64060146Y-84750000D01*
X64069620Y-81688090D01*
X64089511Y-81621115D01*
X64142457Y-81575524D01*
X64192608Y-81564481D01*
X68304991Y-81531017D01*
X68372188Y-81550156D01*
G37*
G04 #@! TD.AperFunction*
G04 #@! TA.AperFunction,Conductor*
G36*
X234999500Y-122560500D02*
G01*
X234770000Y-122790000D01*
X230480000Y-122790000D01*
X230480000Y-51860000D01*
X234999500Y-51860000D01*
X234999500Y-122560500D01*
G37*
G04 #@! TD.AperFunction*
M02*
