G04 #@! TF.GenerationSoftware,KiCad,Pcbnew,7.0.9*
G04 #@! TF.CreationDate,2023-12-07T14:07:32+01:00*
G04 #@! TF.ProjectId,ESP32-S3_flipdot,45535033-322d-4533-935f-666c6970646f,rev?*
G04 #@! TF.SameCoordinates,Original*
G04 #@! TF.FileFunction,Paste,Top*
G04 #@! TF.FilePolarity,Positive*
%FSLAX46Y46*%
G04 Gerber Fmt 4.6, Leading zero omitted, Abs format (unit mm)*
G04 Created by KiCad (PCBNEW 7.0.9) date 2023-12-07 14:07:32*
%MOMM*%
%LPD*%
G01*
G04 APERTURE LIST*
G04 Aperture macros list*
%AMRoundRect*
0 Rectangle with rounded corners*
0 $1 Rounding radius*
0 $2 $3 $4 $5 $6 $7 $8 $9 X,Y pos of 4 corners*
0 Add a 4 corners polygon primitive as box body*
4,1,4,$2,$3,$4,$5,$6,$7,$8,$9,$2,$3,0*
0 Add four circle primitives for the rounded corners*
1,1,$1+$1,$2,$3*
1,1,$1+$1,$4,$5*
1,1,$1+$1,$6,$7*
1,1,$1+$1,$8,$9*
0 Add four rect primitives between the rounded corners*
20,1,$1+$1,$2,$3,$4,$5,0*
20,1,$1+$1,$4,$5,$6,$7,0*
20,1,$1+$1,$6,$7,$8,$9,0*
20,1,$1+$1,$8,$9,$2,$3,0*%
%AMFreePoly0*
4,1,9,3.862500,-0.866500,0.737500,-0.866500,0.737500,-0.450000,-0.737500,-0.450000,-0.737500,0.450000,0.737500,0.450000,0.737500,0.866500,3.862500,0.866500,3.862500,-0.866500,3.862500,-0.866500,$1*%
G04 Aperture macros list end*
%ADD10RoundRect,0.225000X-0.250000X0.225000X-0.250000X-0.225000X0.250000X-0.225000X0.250000X0.225000X0*%
%ADD11RoundRect,0.250000X0.650000X2.450000X-0.650000X2.450000X-0.650000X-2.450000X0.650000X-2.450000X0*%
%ADD12RoundRect,0.200000X0.275000X-0.200000X0.275000X0.200000X-0.275000X0.200000X-0.275000X-0.200000X0*%
%ADD13R,2.000000X1.500000*%
%ADD14R,2.000000X3.800000*%
%ADD15RoundRect,0.225000X0.250000X-0.225000X0.250000X0.225000X-0.250000X0.225000X-0.250000X-0.225000X0*%
%ADD16RoundRect,0.250000X0.250000X0.475000X-0.250000X0.475000X-0.250000X-0.475000X0.250000X-0.475000X0*%
%ADD17RoundRect,0.200000X0.200000X0.275000X-0.200000X0.275000X-0.200000X-0.275000X0.200000X-0.275000X0*%
%ADD18RoundRect,0.250000X-0.650000X1.000000X-0.650000X-1.000000X0.650000X-1.000000X0.650000X1.000000X0*%
%ADD19RoundRect,0.200000X-0.200000X-0.275000X0.200000X-0.275000X0.200000X0.275000X-0.200000X0.275000X0*%
%ADD20RoundRect,0.100000X-0.100000X0.637500X-0.100000X-0.637500X0.100000X-0.637500X0.100000X0.637500X0*%
%ADD21RoundRect,0.200000X-0.275000X0.200000X-0.275000X-0.200000X0.275000X-0.200000X0.275000X0.200000X0*%
%ADD22RoundRect,0.225000X0.225000X0.250000X-0.225000X0.250000X-0.225000X-0.250000X0.225000X-0.250000X0*%
%ADD23R,4.100000X4.100000*%
%ADD24RoundRect,0.250000X-0.475000X0.250000X-0.475000X-0.250000X0.475000X-0.250000X0.475000X0.250000X0*%
%ADD25RoundRect,0.225000X-0.225000X-0.250000X0.225000X-0.250000X0.225000X0.250000X-0.225000X0.250000X0*%
%ADD26RoundRect,0.112500X-0.187500X-0.112500X0.187500X-0.112500X0.187500X0.112500X-0.187500X0.112500X0*%
%ADD27R,1.500000X0.900000*%
%ADD28R,0.900000X1.500000*%
%ADD29R,0.900000X0.900000*%
%ADD30RoundRect,0.250000X0.550000X-1.500000X0.550000X1.500000X-0.550000X1.500000X-0.550000X-1.500000X0*%
%ADD31RoundRect,0.250000X-0.550000X1.500000X-0.550000X-1.500000X0.550000X-1.500000X0.550000X1.500000X0*%
%ADD32RoundRect,0.250000X-1.000000X-0.650000X1.000000X-0.650000X1.000000X0.650000X-1.000000X0.650000X0*%
%ADD33R,1.500000X2.000000*%
%ADD34R,3.800000X2.000000*%
%ADD35RoundRect,0.112500X0.112500X-0.187500X0.112500X0.187500X-0.112500X0.187500X-0.112500X-0.187500X0*%
%ADD36RoundRect,0.150000X0.587500X0.150000X-0.587500X0.150000X-0.587500X-0.150000X0.587500X-0.150000X0*%
%ADD37RoundRect,0.250000X1.750000X1.000000X-1.750000X1.000000X-1.750000X-1.000000X1.750000X-1.000000X0*%
%ADD38RoundRect,0.250000X-2.450000X0.650000X-2.450000X-0.650000X2.450000X-0.650000X2.450000X0.650000X0*%
%ADD39RoundRect,0.250000X-1.000000X1.750000X-1.000000X-1.750000X1.000000X-1.750000X1.000000X1.750000X0*%
%ADD40R,1.450000X1.000000*%
%ADD41R,1.300000X0.900000*%
%ADD42FreePoly0,180.000000*%
%ADD43R,1.560000X0.650000*%
%ADD44RoundRect,0.218750X0.256250X-0.218750X0.256250X0.218750X-0.256250X0.218750X-0.256250X-0.218750X0*%
%ADD45R,0.650000X1.560000*%
%ADD46RoundRect,0.250000X1.500000X0.550000X-1.500000X0.550000X-1.500000X-0.550000X1.500000X-0.550000X0*%
G04 APERTURE END LIST*
D10*
X145360000Y-57170000D03*
X145360000Y-58720000D03*
D11*
X62240000Y-80480000D03*
X57140000Y-80480000D03*
D12*
X97800000Y-102930000D03*
X97800000Y-101280000D03*
D13*
X178700000Y-71000000D03*
X178700000Y-68700000D03*
X178700000Y-66400000D03*
D14*
X172400000Y-68700000D03*
D15*
X177400000Y-63837500D03*
X177400000Y-62287500D03*
D16*
X56560000Y-97370000D03*
X54660000Y-97370000D03*
D17*
X180665000Y-98970000D03*
X179015000Y-98970000D03*
D18*
X65590000Y-79040000D03*
X65590000Y-83040000D03*
D19*
X142240000Y-57190000D03*
X143890000Y-57190000D03*
D20*
X87520000Y-107800000D03*
X86870000Y-107800000D03*
X86220000Y-107800000D03*
X85570000Y-107800000D03*
X84920000Y-107800000D03*
X84270000Y-107800000D03*
X83620000Y-107800000D03*
X82970000Y-107800000D03*
X82970000Y-113525000D03*
X83620000Y-113525000D03*
X84270000Y-113525000D03*
X84920000Y-113525000D03*
X85570000Y-113525000D03*
X86220000Y-113525000D03*
X86870000Y-113525000D03*
X87520000Y-113525000D03*
D15*
X145300000Y-54612500D03*
X145300000Y-53062500D03*
D21*
X170400000Y-74880000D03*
X170400000Y-76530000D03*
D22*
X113280000Y-116205000D03*
X111730000Y-116205000D03*
D21*
X53840000Y-85730000D03*
X53840000Y-87380000D03*
D20*
X113555000Y-107800000D03*
X112905000Y-107800000D03*
X112255000Y-107800000D03*
X111605000Y-107800000D03*
X110955000Y-107800000D03*
X110305000Y-107800000D03*
X109655000Y-107800000D03*
X109005000Y-107800000D03*
X109005000Y-113525000D03*
X109655000Y-113525000D03*
X110305000Y-113525000D03*
X110955000Y-113525000D03*
X111605000Y-113525000D03*
X112255000Y-113525000D03*
X112905000Y-113525000D03*
X113555000Y-113525000D03*
D23*
X65570000Y-97780000D03*
X65570000Y-88280000D03*
D12*
X217660000Y-118900000D03*
X217660000Y-117250000D03*
D21*
X189600000Y-65587500D03*
X189600000Y-67237500D03*
D12*
X95280000Y-102945000D03*
X95280000Y-101295000D03*
D24*
X218570000Y-91540000D03*
X218570000Y-93440000D03*
D15*
X143400000Y-54612500D03*
X143400000Y-53062500D03*
D21*
X96595000Y-95110000D03*
X96595000Y-96760000D03*
D22*
X87270000Y-116225000D03*
X85720000Y-116225000D03*
D12*
X100360000Y-102930000D03*
X100360000Y-101280000D03*
D25*
X175362500Y-74400000D03*
X176912500Y-74400000D03*
D21*
X106605000Y-95140000D03*
X106605000Y-96790000D03*
D12*
X82800000Y-102950000D03*
X82800000Y-101300000D03*
D26*
X181625000Y-66375000D03*
X183725000Y-66375000D03*
D21*
X101555000Y-95110000D03*
X101555000Y-96760000D03*
D27*
X148100000Y-53230000D03*
X148100000Y-54500000D03*
X148100000Y-55770000D03*
X148100000Y-57040000D03*
X148100000Y-58310000D03*
X148100000Y-59580000D03*
X148100000Y-60850000D03*
X148100000Y-62120000D03*
X148100000Y-63390000D03*
X148100000Y-64660000D03*
X148100000Y-65930000D03*
X148100000Y-67200000D03*
X148100000Y-68470000D03*
X148100000Y-69740000D03*
D28*
X149865000Y-70990000D03*
X151135000Y-70990000D03*
X152405000Y-70990000D03*
X153675000Y-70990000D03*
X154945000Y-70990000D03*
X156215000Y-70990000D03*
X157485000Y-70990000D03*
X158755000Y-70990000D03*
X160025000Y-70990000D03*
X161295000Y-70990000D03*
X162565000Y-70990000D03*
X163835000Y-70990000D03*
D27*
X165600000Y-69740000D03*
X165600000Y-68470000D03*
X165600000Y-67200000D03*
X165600000Y-65930000D03*
X165600000Y-64660000D03*
X165600000Y-63390000D03*
X165600000Y-62120000D03*
X165600000Y-60850000D03*
X165600000Y-59580000D03*
X165600000Y-58310000D03*
X165600000Y-57040000D03*
X165600000Y-55770000D03*
X165600000Y-54500000D03*
X165600000Y-53230000D03*
D29*
X153950000Y-59550000D03*
X153950000Y-60950000D03*
X153950000Y-62350000D03*
X155350000Y-59550000D03*
X155350000Y-60950000D03*
X155350000Y-62350000D03*
X156750000Y-59550000D03*
X156750000Y-60950000D03*
X156750000Y-62350000D03*
D30*
X56400000Y-108100000D03*
X56400000Y-102700000D03*
D21*
X116520000Y-95090000D03*
X116520000Y-96740000D03*
X68350000Y-114125000D03*
X68350000Y-115775000D03*
D31*
X226500000Y-90300000D03*
X226500000Y-95700000D03*
D12*
X65850000Y-121900000D03*
X65850000Y-120250000D03*
D21*
X109770000Y-95105000D03*
X109770000Y-96755000D03*
D32*
X200240000Y-82510000D03*
X204240000Y-82510000D03*
D21*
X87325000Y-95150000D03*
X87325000Y-96800000D03*
D12*
X208800000Y-92685000D03*
X208800000Y-91035000D03*
D22*
X100200000Y-116207500D03*
X98650000Y-116207500D03*
D12*
X112970000Y-96745000D03*
X112970000Y-95095000D03*
D21*
X84375000Y-95140000D03*
X84375000Y-96790000D03*
D33*
X63150000Y-111600000D03*
X65450000Y-111600000D03*
D34*
X65450000Y-105300000D03*
D33*
X67750000Y-111600000D03*
D19*
X55415000Y-87600000D03*
X57065000Y-87600000D03*
D35*
X172900000Y-63800000D03*
X172900000Y-61700000D03*
D12*
X111360000Y-102925000D03*
X111360000Y-101275000D03*
D21*
X99105000Y-95110000D03*
X99105000Y-96760000D03*
D17*
X180640000Y-102170000D03*
X178990000Y-102170000D03*
D36*
X184650000Y-58850000D03*
X184650000Y-56950000D03*
X182775000Y-57900000D03*
D25*
X175387500Y-77300000D03*
X176937500Y-77300000D03*
D37*
X65400000Y-71400000D03*
X57400000Y-71400000D03*
D38*
X201680000Y-85860000D03*
X201680000Y-90960000D03*
D12*
X63950000Y-121900000D03*
X63950000Y-120250000D03*
D39*
X192600000Y-82700000D03*
X192600000Y-90700000D03*
D40*
X150800000Y-78650000D03*
X145650000Y-78650000D03*
X150800000Y-76950000D03*
X145650000Y-76950000D03*
D41*
X213650000Y-113950000D03*
D42*
X213562500Y-112450000D03*
D41*
X213650000Y-110950000D03*
D19*
X215000000Y-108150000D03*
X216650000Y-108150000D03*
D33*
X228300000Y-77780000D03*
X226000000Y-77780000D03*
D34*
X226000000Y-84080000D03*
D33*
X223700000Y-77780000D03*
D15*
X179600000Y-63837500D03*
X179600000Y-62287500D03*
D40*
X164700000Y-78700000D03*
X159550000Y-78700000D03*
X164700000Y-77000000D03*
X159550000Y-77000000D03*
D21*
X114790000Y-101275000D03*
X114790000Y-102925000D03*
D43*
X213257500Y-90070000D03*
X213257500Y-91020000D03*
X213257500Y-91970000D03*
X215957500Y-91970000D03*
X215957500Y-91020000D03*
X215957500Y-90070000D03*
D12*
X108200000Y-102925000D03*
X108200000Y-101275000D03*
D21*
X90225000Y-95140000D03*
X90225000Y-96790000D03*
D19*
X188462500Y-62000000D03*
X190112500Y-62000000D03*
D21*
X186200000Y-65587500D03*
X186200000Y-67237500D03*
D19*
X206930000Y-94260000D03*
X208580000Y-94260000D03*
D44*
X170375000Y-80530000D03*
X170375000Y-78955000D03*
D21*
X81415000Y-95130000D03*
X81415000Y-96780000D03*
D20*
X100537500Y-107800000D03*
X99887500Y-107800000D03*
X99237500Y-107800000D03*
X98587500Y-107800000D03*
X97937500Y-107800000D03*
X97287500Y-107800000D03*
X96637500Y-107800000D03*
X95987500Y-107800000D03*
X95987500Y-113525000D03*
X96637500Y-113525000D03*
X97287500Y-113525000D03*
X97937500Y-113525000D03*
X98587500Y-113525000D03*
X99237500Y-113525000D03*
X99887500Y-113525000D03*
X100537500Y-113525000D03*
D41*
X65580000Y-118130000D03*
D42*
X65492500Y-116630000D03*
D41*
X65580000Y-115130000D03*
D12*
X217660000Y-114840000D03*
X217660000Y-113190000D03*
D45*
X58030000Y-92057500D03*
X57080000Y-92057500D03*
X56130000Y-92057500D03*
X56130000Y-94757500D03*
X57080000Y-94757500D03*
X58030000Y-94757500D03*
D12*
X88700000Y-102950000D03*
X88700000Y-101300000D03*
D17*
X184500000Y-62000000D03*
X182850000Y-62000000D03*
D12*
X85725000Y-102950000D03*
X85725000Y-101300000D03*
D23*
X218980000Y-82530000D03*
X209480000Y-82530000D03*
D36*
X190175000Y-58850000D03*
X190175000Y-56950000D03*
X188300000Y-57900000D03*
D46*
X190475000Y-74100000D03*
X185075000Y-74100000D03*
M02*
