G04 #@! TF.GenerationSoftware,KiCad,Pcbnew,7.0.9*
G04 #@! TF.CreationDate,2023-12-07T14:07:32+01:00*
G04 #@! TF.ProjectId,ESP32-S3_flipdot,45535033-322d-4533-935f-666c6970646f,rev?*
G04 #@! TF.SameCoordinates,Original*
G04 #@! TF.FileFunction,Legend,Top*
G04 #@! TF.FilePolarity,Positive*
%FSLAX46Y46*%
G04 Gerber Fmt 4.6, Leading zero omitted, Abs format (unit mm)*
G04 Created by KiCad (PCBNEW 7.0.9) date 2023-12-07 14:07:32*
%MOMM*%
%LPD*%
G01*
G04 APERTURE LIST*
G04 Aperture macros list*
%AMRoundRect*
0 Rectangle with rounded corners*
0 $1 Rounding radius*
0 $2 $3 $4 $5 $6 $7 $8 $9 X,Y pos of 4 corners*
0 Add a 4 corners polygon primitive as box body*
4,1,4,$2,$3,$4,$5,$6,$7,$8,$9,$2,$3,0*
0 Add four circle primitives for the rounded corners*
1,1,$1+$1,$2,$3*
1,1,$1+$1,$4,$5*
1,1,$1+$1,$6,$7*
1,1,$1+$1,$8,$9*
0 Add four rect primitives between the rounded corners*
20,1,$1+$1,$2,$3,$4,$5,0*
20,1,$1+$1,$4,$5,$6,$7,0*
20,1,$1+$1,$6,$7,$8,$9,0*
20,1,$1+$1,$8,$9,$2,$3,0*%
%AMFreePoly0*
4,1,9,3.862500,-0.866500,0.737500,-0.866500,0.737500,-0.450000,-0.737500,-0.450000,-0.737500,0.450000,0.737500,0.450000,0.737500,0.866500,3.862500,0.866500,3.862500,-0.866500,3.862500,-0.866500,$1*%
G04 Aperture macros list end*
%ADD10C,0.150000*%
%ADD11C,0.120000*%
%ADD12C,8.600000*%
%ADD13RoundRect,0.225000X-0.250000X0.225000X-0.250000X-0.225000X0.250000X-0.225000X0.250000X0.225000X0*%
%ADD14RoundRect,0.250000X0.650000X2.450000X-0.650000X2.450000X-0.650000X-2.450000X0.650000X-2.450000X0*%
%ADD15RoundRect,0.200000X0.275000X-0.200000X0.275000X0.200000X-0.275000X0.200000X-0.275000X-0.200000X0*%
%ADD16R,2.000000X2.000000*%
%ADD17R,2.000000X1.500000*%
%ADD18R,2.000000X3.800000*%
%ADD19RoundRect,0.225000X0.250000X-0.225000X0.250000X0.225000X-0.250000X0.225000X-0.250000X-0.225000X0*%
%ADD20R,1.700000X1.700000*%
%ADD21O,1.700000X1.700000*%
%ADD22RoundRect,0.250000X0.250000X0.475000X-0.250000X0.475000X-0.250000X-0.475000X0.250000X-0.475000X0*%
%ADD23RoundRect,0.200000X0.200000X0.275000X-0.200000X0.275000X-0.200000X-0.275000X0.200000X-0.275000X0*%
%ADD24RoundRect,0.250000X-0.650000X1.000000X-0.650000X-1.000000X0.650000X-1.000000X0.650000X1.000000X0*%
%ADD25RoundRect,0.200000X-0.200000X-0.275000X0.200000X-0.275000X0.200000X0.275000X-0.200000X0.275000X0*%
%ADD26RoundRect,0.100000X-0.100000X0.637500X-0.100000X-0.637500X0.100000X-0.637500X0.100000X0.637500X0*%
%ADD27RoundRect,0.200000X-0.275000X0.200000X-0.275000X-0.200000X0.275000X-0.200000X0.275000X0.200000X0*%
%ADD28RoundRect,0.225000X0.225000X0.250000X-0.225000X0.250000X-0.225000X-0.250000X0.225000X-0.250000X0*%
%ADD29R,4.100000X4.100000*%
%ADD30RoundRect,0.250000X-0.475000X0.250000X-0.475000X-0.250000X0.475000X-0.250000X0.475000X0.250000X0*%
%ADD31RoundRect,0.225000X-0.225000X-0.250000X0.225000X-0.250000X0.225000X0.250000X-0.225000X0.250000X0*%
%ADD32R,2.600000X2.600000*%
%ADD33C,2.600000*%
%ADD34RoundRect,0.250000X-0.600000X0.600000X-0.600000X-0.600000X0.600000X-0.600000X0.600000X0.600000X0*%
%ADD35C,1.700000*%
%ADD36RoundRect,0.112500X-0.187500X-0.112500X0.187500X-0.112500X0.187500X0.112500X-0.187500X0.112500X0*%
%ADD37R,1.500000X0.900000*%
%ADD38R,0.900000X1.500000*%
%ADD39R,0.900000X0.900000*%
%ADD40RoundRect,0.250000X0.550000X-1.500000X0.550000X1.500000X-0.550000X1.500000X-0.550000X-1.500000X0*%
%ADD41RoundRect,0.250000X-0.550000X1.500000X-0.550000X-1.500000X0.550000X-1.500000X0.550000X1.500000X0*%
%ADD42RoundRect,0.250000X-1.000000X-0.650000X1.000000X-0.650000X1.000000X0.650000X-1.000000X0.650000X0*%
%ADD43R,1.500000X2.000000*%
%ADD44R,3.800000X2.000000*%
%ADD45RoundRect,0.112500X0.112500X-0.187500X0.112500X0.187500X-0.112500X0.187500X-0.112500X-0.187500X0*%
%ADD46RoundRect,0.150000X0.587500X0.150000X-0.587500X0.150000X-0.587500X-0.150000X0.587500X-0.150000X0*%
%ADD47RoundRect,0.250000X1.750000X1.000000X-1.750000X1.000000X-1.750000X-1.000000X1.750000X-1.000000X0*%
%ADD48RoundRect,0.250000X-2.450000X0.650000X-2.450000X-0.650000X2.450000X-0.650000X2.450000X0.650000X0*%
%ADD49RoundRect,0.250000X-1.000000X1.750000X-1.000000X-1.750000X1.000000X-1.750000X1.000000X1.750000X0*%
%ADD50R,1.450000X1.000000*%
%ADD51R,1.300000X0.900000*%
%ADD52FreePoly0,180.000000*%
%ADD53R,1.560000X0.650000*%
%ADD54RoundRect,0.218750X0.256250X-0.218750X0.256250X0.218750X-0.256250X0.218750X-0.256250X-0.218750X0*%
%ADD55R,0.650000X1.560000*%
%ADD56RoundRect,0.250000X1.500000X0.550000X-1.500000X0.550000X-1.500000X-0.550000X1.500000X-0.550000X0*%
G04 APERTURE END LIST*
D10*
X176150588Y-95139819D02*
X175579160Y-95139819D01*
X175864874Y-95139819D02*
X175864874Y-94139819D01*
X175864874Y-94139819D02*
X175769636Y-94282676D01*
X175769636Y-94282676D02*
X175674398Y-94377914D01*
X175674398Y-94377914D02*
X175579160Y-94425533D01*
X177007731Y-94139819D02*
X176817255Y-94139819D01*
X176817255Y-94139819D02*
X176722017Y-94187438D01*
X176722017Y-94187438D02*
X176674398Y-94235057D01*
X176674398Y-94235057D02*
X176579160Y-94377914D01*
X176579160Y-94377914D02*
X176531541Y-94568390D01*
X176531541Y-94568390D02*
X176531541Y-94949342D01*
X176531541Y-94949342D02*
X176579160Y-95044580D01*
X176579160Y-95044580D02*
X176626779Y-95092200D01*
X176626779Y-95092200D02*
X176722017Y-95139819D01*
X176722017Y-95139819D02*
X176912493Y-95139819D01*
X176912493Y-95139819D02*
X177007731Y-95092200D01*
X177007731Y-95092200D02*
X177055350Y-95044580D01*
X177055350Y-95044580D02*
X177102969Y-94949342D01*
X177102969Y-94949342D02*
X177102969Y-94711247D01*
X177102969Y-94711247D02*
X177055350Y-94616009D01*
X177055350Y-94616009D02*
X177007731Y-94568390D01*
X177007731Y-94568390D02*
X176912493Y-94520771D01*
X176912493Y-94520771D02*
X176722017Y-94520771D01*
X176722017Y-94520771D02*
X176626779Y-94568390D01*
X176626779Y-94568390D02*
X176579160Y-94616009D01*
X176579160Y-94616009D02*
X176531541Y-94711247D01*
X147008207Y-81169819D02*
X146674874Y-80693628D01*
X146436779Y-81169819D02*
X146436779Y-80169819D01*
X146436779Y-80169819D02*
X146817731Y-80169819D01*
X146817731Y-80169819D02*
X146912969Y-80217438D01*
X146912969Y-80217438D02*
X146960588Y-80265057D01*
X146960588Y-80265057D02*
X147008207Y-80360295D01*
X147008207Y-80360295D02*
X147008207Y-80503152D01*
X147008207Y-80503152D02*
X146960588Y-80598390D01*
X146960588Y-80598390D02*
X146912969Y-80646009D01*
X146912969Y-80646009D02*
X146817731Y-80693628D01*
X146817731Y-80693628D02*
X146436779Y-80693628D01*
X147436779Y-80646009D02*
X147770112Y-80646009D01*
X147912969Y-81169819D02*
X147436779Y-81169819D01*
X147436779Y-81169819D02*
X147436779Y-80169819D01*
X147436779Y-80169819D02*
X147912969Y-80169819D01*
X148293922Y-81122200D02*
X148436779Y-81169819D01*
X148436779Y-81169819D02*
X148674874Y-81169819D01*
X148674874Y-81169819D02*
X148770112Y-81122200D01*
X148770112Y-81122200D02*
X148817731Y-81074580D01*
X148817731Y-81074580D02*
X148865350Y-80979342D01*
X148865350Y-80979342D02*
X148865350Y-80884104D01*
X148865350Y-80884104D02*
X148817731Y-80788866D01*
X148817731Y-80788866D02*
X148770112Y-80741247D01*
X148770112Y-80741247D02*
X148674874Y-80693628D01*
X148674874Y-80693628D02*
X148484398Y-80646009D01*
X148484398Y-80646009D02*
X148389160Y-80598390D01*
X148389160Y-80598390D02*
X148341541Y-80550771D01*
X148341541Y-80550771D02*
X148293922Y-80455533D01*
X148293922Y-80455533D02*
X148293922Y-80360295D01*
X148293922Y-80360295D02*
X148341541Y-80265057D01*
X148341541Y-80265057D02*
X148389160Y-80217438D01*
X148389160Y-80217438D02*
X148484398Y-80169819D01*
X148484398Y-80169819D02*
X148722493Y-80169819D01*
X148722493Y-80169819D02*
X148865350Y-80217438D01*
X149293922Y-80646009D02*
X149627255Y-80646009D01*
X149770112Y-81169819D02*
X149293922Y-81169819D01*
X149293922Y-81169819D02*
X149293922Y-80169819D01*
X149293922Y-80169819D02*
X149770112Y-80169819D01*
X150055827Y-80169819D02*
X150627255Y-80169819D01*
X150341541Y-81169819D02*
X150341541Y-80169819D01*
X176150588Y-92589819D02*
X175579160Y-92589819D01*
X175864874Y-92589819D02*
X175864874Y-91589819D01*
X175864874Y-91589819D02*
X175769636Y-91732676D01*
X175769636Y-91732676D02*
X175674398Y-91827914D01*
X175674398Y-91827914D02*
X175579160Y-91875533D01*
X177055350Y-91589819D02*
X176579160Y-91589819D01*
X176579160Y-91589819D02*
X176531541Y-92066009D01*
X176531541Y-92066009D02*
X176579160Y-92018390D01*
X176579160Y-92018390D02*
X176674398Y-91970771D01*
X176674398Y-91970771D02*
X176912493Y-91970771D01*
X176912493Y-91970771D02*
X177007731Y-92018390D01*
X177007731Y-92018390D02*
X177055350Y-92066009D01*
X177055350Y-92066009D02*
X177102969Y-92161247D01*
X177102969Y-92161247D02*
X177102969Y-92399342D01*
X177102969Y-92399342D02*
X177055350Y-92494580D01*
X177055350Y-92494580D02*
X177007731Y-92542200D01*
X177007731Y-92542200D02*
X176912493Y-92589819D01*
X176912493Y-92589819D02*
X176674398Y-92589819D01*
X176674398Y-92589819D02*
X176579160Y-92542200D01*
X176579160Y-92542200D02*
X176531541Y-92494580D01*
X160870112Y-80646009D02*
X161012969Y-80693628D01*
X161012969Y-80693628D02*
X161060588Y-80741247D01*
X161060588Y-80741247D02*
X161108207Y-80836485D01*
X161108207Y-80836485D02*
X161108207Y-80979342D01*
X161108207Y-80979342D02*
X161060588Y-81074580D01*
X161060588Y-81074580D02*
X161012969Y-81122200D01*
X161012969Y-81122200D02*
X160917731Y-81169819D01*
X160917731Y-81169819D02*
X160536779Y-81169819D01*
X160536779Y-81169819D02*
X160536779Y-80169819D01*
X160536779Y-80169819D02*
X160870112Y-80169819D01*
X160870112Y-80169819D02*
X160965350Y-80217438D01*
X160965350Y-80217438D02*
X161012969Y-80265057D01*
X161012969Y-80265057D02*
X161060588Y-80360295D01*
X161060588Y-80360295D02*
X161060588Y-80455533D01*
X161060588Y-80455533D02*
X161012969Y-80550771D01*
X161012969Y-80550771D02*
X160965350Y-80598390D01*
X160965350Y-80598390D02*
X160870112Y-80646009D01*
X160870112Y-80646009D02*
X160536779Y-80646009D01*
X161727255Y-80169819D02*
X161917731Y-80169819D01*
X161917731Y-80169819D02*
X162012969Y-80217438D01*
X162012969Y-80217438D02*
X162108207Y-80312676D01*
X162108207Y-80312676D02*
X162155826Y-80503152D01*
X162155826Y-80503152D02*
X162155826Y-80836485D01*
X162155826Y-80836485D02*
X162108207Y-81026961D01*
X162108207Y-81026961D02*
X162012969Y-81122200D01*
X162012969Y-81122200D02*
X161917731Y-81169819D01*
X161917731Y-81169819D02*
X161727255Y-81169819D01*
X161727255Y-81169819D02*
X161632017Y-81122200D01*
X161632017Y-81122200D02*
X161536779Y-81026961D01*
X161536779Y-81026961D02*
X161489160Y-80836485D01*
X161489160Y-80836485D02*
X161489160Y-80503152D01*
X161489160Y-80503152D02*
X161536779Y-80312676D01*
X161536779Y-80312676D02*
X161632017Y-80217438D01*
X161632017Y-80217438D02*
X161727255Y-80169819D01*
X162774874Y-80169819D02*
X162965350Y-80169819D01*
X162965350Y-80169819D02*
X163060588Y-80217438D01*
X163060588Y-80217438D02*
X163155826Y-80312676D01*
X163155826Y-80312676D02*
X163203445Y-80503152D01*
X163203445Y-80503152D02*
X163203445Y-80836485D01*
X163203445Y-80836485D02*
X163155826Y-81026961D01*
X163155826Y-81026961D02*
X163060588Y-81122200D01*
X163060588Y-81122200D02*
X162965350Y-81169819D01*
X162965350Y-81169819D02*
X162774874Y-81169819D01*
X162774874Y-81169819D02*
X162679636Y-81122200D01*
X162679636Y-81122200D02*
X162584398Y-81026961D01*
X162584398Y-81026961D02*
X162536779Y-80836485D01*
X162536779Y-80836485D02*
X162536779Y-80503152D01*
X162536779Y-80503152D02*
X162584398Y-80312676D01*
X162584398Y-80312676D02*
X162679636Y-80217438D01*
X162679636Y-80217438D02*
X162774874Y-80169819D01*
X163489160Y-80169819D02*
X164060588Y-80169819D01*
X163774874Y-81169819D02*
X163774874Y-80169819D01*
X70856779Y-124159819D02*
X70856779Y-123159819D01*
X71285350Y-124159819D02*
X71285350Y-123636009D01*
X71285350Y-123636009D02*
X71237731Y-123540771D01*
X71237731Y-123540771D02*
X71142493Y-123493152D01*
X71142493Y-123493152D02*
X70999636Y-123493152D01*
X70999636Y-123493152D02*
X70904398Y-123540771D01*
X70904398Y-123540771D02*
X70856779Y-123588390D01*
X71618684Y-123493152D02*
X71999636Y-123493152D01*
X71761541Y-123159819D02*
X71761541Y-124016961D01*
X71761541Y-124016961D02*
X71809160Y-124112200D01*
X71809160Y-124112200D02*
X71904398Y-124159819D01*
X71904398Y-124159819D02*
X71999636Y-124159819D01*
X72190113Y-123493152D02*
X72571065Y-123493152D01*
X72332970Y-123159819D02*
X72332970Y-124016961D01*
X72332970Y-124016961D02*
X72380589Y-124112200D01*
X72380589Y-124112200D02*
X72475827Y-124159819D01*
X72475827Y-124159819D02*
X72571065Y-124159819D01*
X72904399Y-123493152D02*
X72904399Y-124493152D01*
X72904399Y-123540771D02*
X72999637Y-123493152D01*
X72999637Y-123493152D02*
X73190113Y-123493152D01*
X73190113Y-123493152D02*
X73285351Y-123540771D01*
X73285351Y-123540771D02*
X73332970Y-123588390D01*
X73332970Y-123588390D02*
X73380589Y-123683628D01*
X73380589Y-123683628D02*
X73380589Y-123969342D01*
X73380589Y-123969342D02*
X73332970Y-124064580D01*
X73332970Y-124064580D02*
X73285351Y-124112200D01*
X73285351Y-124112200D02*
X73190113Y-124159819D01*
X73190113Y-124159819D02*
X72999637Y-124159819D01*
X72999637Y-124159819D02*
X72904399Y-124112200D01*
X73761542Y-124112200D02*
X73856780Y-124159819D01*
X73856780Y-124159819D02*
X74047256Y-124159819D01*
X74047256Y-124159819D02*
X74142494Y-124112200D01*
X74142494Y-124112200D02*
X74190113Y-124016961D01*
X74190113Y-124016961D02*
X74190113Y-123969342D01*
X74190113Y-123969342D02*
X74142494Y-123874104D01*
X74142494Y-123874104D02*
X74047256Y-123826485D01*
X74047256Y-123826485D02*
X73904399Y-123826485D01*
X73904399Y-123826485D02*
X73809161Y-123778866D01*
X73809161Y-123778866D02*
X73761542Y-123683628D01*
X73761542Y-123683628D02*
X73761542Y-123636009D01*
X73761542Y-123636009D02*
X73809161Y-123540771D01*
X73809161Y-123540771D02*
X73904399Y-123493152D01*
X73904399Y-123493152D02*
X74047256Y-123493152D01*
X74047256Y-123493152D02*
X74142494Y-123540771D01*
X74618685Y-124064580D02*
X74666304Y-124112200D01*
X74666304Y-124112200D02*
X74618685Y-124159819D01*
X74618685Y-124159819D02*
X74571066Y-124112200D01*
X74571066Y-124112200D02*
X74618685Y-124064580D01*
X74618685Y-124064580D02*
X74618685Y-124159819D01*
X74618685Y-123540771D02*
X74666304Y-123588390D01*
X74666304Y-123588390D02*
X74618685Y-123636009D01*
X74618685Y-123636009D02*
X74571066Y-123588390D01*
X74571066Y-123588390D02*
X74618685Y-123540771D01*
X74618685Y-123540771D02*
X74618685Y-123636009D01*
X75809160Y-123112200D02*
X74952018Y-124397914D01*
X76856779Y-123112200D02*
X75999637Y-124397914D01*
X77618684Y-123493152D02*
X77618684Y-124302676D01*
X77618684Y-124302676D02*
X77571065Y-124397914D01*
X77571065Y-124397914D02*
X77523446Y-124445533D01*
X77523446Y-124445533D02*
X77428208Y-124493152D01*
X77428208Y-124493152D02*
X77285351Y-124493152D01*
X77285351Y-124493152D02*
X77190113Y-124445533D01*
X77618684Y-124112200D02*
X77523446Y-124159819D01*
X77523446Y-124159819D02*
X77332970Y-124159819D01*
X77332970Y-124159819D02*
X77237732Y-124112200D01*
X77237732Y-124112200D02*
X77190113Y-124064580D01*
X77190113Y-124064580D02*
X77142494Y-123969342D01*
X77142494Y-123969342D02*
X77142494Y-123683628D01*
X77142494Y-123683628D02*
X77190113Y-123588390D01*
X77190113Y-123588390D02*
X77237732Y-123540771D01*
X77237732Y-123540771D02*
X77332970Y-123493152D01*
X77332970Y-123493152D02*
X77523446Y-123493152D01*
X77523446Y-123493152D02*
X77618684Y-123540771D01*
X78094875Y-124159819D02*
X78094875Y-123493152D01*
X78094875Y-123159819D02*
X78047256Y-123207438D01*
X78047256Y-123207438D02*
X78094875Y-123255057D01*
X78094875Y-123255057D02*
X78142494Y-123207438D01*
X78142494Y-123207438D02*
X78094875Y-123159819D01*
X78094875Y-123159819D02*
X78094875Y-123255057D01*
X78428208Y-123493152D02*
X78809160Y-123493152D01*
X78571065Y-123159819D02*
X78571065Y-124016961D01*
X78571065Y-124016961D02*
X78618684Y-124112200D01*
X78618684Y-124112200D02*
X78713922Y-124159819D01*
X78713922Y-124159819D02*
X78809160Y-124159819D01*
X79142494Y-124159819D02*
X79142494Y-123159819D01*
X79571065Y-124159819D02*
X79571065Y-123636009D01*
X79571065Y-123636009D02*
X79523446Y-123540771D01*
X79523446Y-123540771D02*
X79428208Y-123493152D01*
X79428208Y-123493152D02*
X79285351Y-123493152D01*
X79285351Y-123493152D02*
X79190113Y-123540771D01*
X79190113Y-123540771D02*
X79142494Y-123588390D01*
X80475827Y-123493152D02*
X80475827Y-124159819D01*
X80047256Y-123493152D02*
X80047256Y-124016961D01*
X80047256Y-124016961D02*
X80094875Y-124112200D01*
X80094875Y-124112200D02*
X80190113Y-124159819D01*
X80190113Y-124159819D02*
X80332970Y-124159819D01*
X80332970Y-124159819D02*
X80428208Y-124112200D01*
X80428208Y-124112200D02*
X80475827Y-124064580D01*
X80952018Y-124159819D02*
X80952018Y-123159819D01*
X80952018Y-123540771D02*
X81047256Y-123493152D01*
X81047256Y-123493152D02*
X81237732Y-123493152D01*
X81237732Y-123493152D02*
X81332970Y-123540771D01*
X81332970Y-123540771D02*
X81380589Y-123588390D01*
X81380589Y-123588390D02*
X81428208Y-123683628D01*
X81428208Y-123683628D02*
X81428208Y-123969342D01*
X81428208Y-123969342D02*
X81380589Y-124064580D01*
X81380589Y-124064580D02*
X81332970Y-124112200D01*
X81332970Y-124112200D02*
X81237732Y-124159819D01*
X81237732Y-124159819D02*
X81047256Y-124159819D01*
X81047256Y-124159819D02*
X80952018Y-124112200D01*
X81856780Y-124064580D02*
X81904399Y-124112200D01*
X81904399Y-124112200D02*
X81856780Y-124159819D01*
X81856780Y-124159819D02*
X81809161Y-124112200D01*
X81809161Y-124112200D02*
X81856780Y-124064580D01*
X81856780Y-124064580D02*
X81856780Y-124159819D01*
X82761541Y-124112200D02*
X82666303Y-124159819D01*
X82666303Y-124159819D02*
X82475827Y-124159819D01*
X82475827Y-124159819D02*
X82380589Y-124112200D01*
X82380589Y-124112200D02*
X82332970Y-124064580D01*
X82332970Y-124064580D02*
X82285351Y-123969342D01*
X82285351Y-123969342D02*
X82285351Y-123683628D01*
X82285351Y-123683628D02*
X82332970Y-123588390D01*
X82332970Y-123588390D02*
X82380589Y-123540771D01*
X82380589Y-123540771D02*
X82475827Y-123493152D01*
X82475827Y-123493152D02*
X82666303Y-123493152D01*
X82666303Y-123493152D02*
X82761541Y-123540771D01*
X83332970Y-124159819D02*
X83237732Y-124112200D01*
X83237732Y-124112200D02*
X83190113Y-124064580D01*
X83190113Y-124064580D02*
X83142494Y-123969342D01*
X83142494Y-123969342D02*
X83142494Y-123683628D01*
X83142494Y-123683628D02*
X83190113Y-123588390D01*
X83190113Y-123588390D02*
X83237732Y-123540771D01*
X83237732Y-123540771D02*
X83332970Y-123493152D01*
X83332970Y-123493152D02*
X83475827Y-123493152D01*
X83475827Y-123493152D02*
X83571065Y-123540771D01*
X83571065Y-123540771D02*
X83618684Y-123588390D01*
X83618684Y-123588390D02*
X83666303Y-123683628D01*
X83666303Y-123683628D02*
X83666303Y-123969342D01*
X83666303Y-123969342D02*
X83618684Y-124064580D01*
X83618684Y-124064580D02*
X83571065Y-124112200D01*
X83571065Y-124112200D02*
X83475827Y-124159819D01*
X83475827Y-124159819D02*
X83332970Y-124159819D01*
X84094875Y-124159819D02*
X84094875Y-123493152D01*
X84094875Y-123588390D02*
X84142494Y-123540771D01*
X84142494Y-123540771D02*
X84237732Y-123493152D01*
X84237732Y-123493152D02*
X84380589Y-123493152D01*
X84380589Y-123493152D02*
X84475827Y-123540771D01*
X84475827Y-123540771D02*
X84523446Y-123636009D01*
X84523446Y-123636009D02*
X84523446Y-124159819D01*
X84523446Y-123636009D02*
X84571065Y-123540771D01*
X84571065Y-123540771D02*
X84666303Y-123493152D01*
X84666303Y-123493152D02*
X84809160Y-123493152D01*
X84809160Y-123493152D02*
X84904399Y-123540771D01*
X84904399Y-123540771D02*
X84952018Y-123636009D01*
X84952018Y-123636009D02*
X84952018Y-124159819D01*
X86142493Y-123112200D02*
X85285351Y-124397914D01*
X86809160Y-123636009D02*
X86952017Y-123683628D01*
X86952017Y-123683628D02*
X86999636Y-123731247D01*
X86999636Y-123731247D02*
X87047255Y-123826485D01*
X87047255Y-123826485D02*
X87047255Y-123969342D01*
X87047255Y-123969342D02*
X86999636Y-124064580D01*
X86999636Y-124064580D02*
X86952017Y-124112200D01*
X86952017Y-124112200D02*
X86856779Y-124159819D01*
X86856779Y-124159819D02*
X86475827Y-124159819D01*
X86475827Y-124159819D02*
X86475827Y-123159819D01*
X86475827Y-123159819D02*
X86809160Y-123159819D01*
X86809160Y-123159819D02*
X86904398Y-123207438D01*
X86904398Y-123207438D02*
X86952017Y-123255057D01*
X86952017Y-123255057D02*
X86999636Y-123350295D01*
X86999636Y-123350295D02*
X86999636Y-123445533D01*
X86999636Y-123445533D02*
X86952017Y-123540771D01*
X86952017Y-123540771D02*
X86904398Y-123588390D01*
X86904398Y-123588390D02*
X86809160Y-123636009D01*
X86809160Y-123636009D02*
X86475827Y-123636009D01*
X87380589Y-123493152D02*
X87571065Y-124159819D01*
X87571065Y-124159819D02*
X87761541Y-123683628D01*
X87761541Y-123683628D02*
X87952017Y-124159819D01*
X87952017Y-124159819D02*
X88142493Y-123493152D01*
X88952017Y-124159819D02*
X88952017Y-123636009D01*
X88952017Y-123636009D02*
X88904398Y-123540771D01*
X88904398Y-123540771D02*
X88809160Y-123493152D01*
X88809160Y-123493152D02*
X88618684Y-123493152D01*
X88618684Y-123493152D02*
X88523446Y-123540771D01*
X88952017Y-124112200D02*
X88856779Y-124159819D01*
X88856779Y-124159819D02*
X88618684Y-124159819D01*
X88618684Y-124159819D02*
X88523446Y-124112200D01*
X88523446Y-124112200D02*
X88475827Y-124016961D01*
X88475827Y-124016961D02*
X88475827Y-123921723D01*
X88475827Y-123921723D02*
X88523446Y-123826485D01*
X88523446Y-123826485D02*
X88618684Y-123778866D01*
X88618684Y-123778866D02*
X88856779Y-123778866D01*
X88856779Y-123778866D02*
X88952017Y-123731247D01*
X89428208Y-123493152D02*
X89428208Y-124159819D01*
X89428208Y-123588390D02*
X89475827Y-123540771D01*
X89475827Y-123540771D02*
X89571065Y-123493152D01*
X89571065Y-123493152D02*
X89713922Y-123493152D01*
X89713922Y-123493152D02*
X89809160Y-123540771D01*
X89809160Y-123540771D02*
X89856779Y-123636009D01*
X89856779Y-123636009D02*
X89856779Y-124159819D01*
X90761541Y-124159819D02*
X90761541Y-123636009D01*
X90761541Y-123636009D02*
X90713922Y-123540771D01*
X90713922Y-123540771D02*
X90618684Y-123493152D01*
X90618684Y-123493152D02*
X90428208Y-123493152D01*
X90428208Y-123493152D02*
X90332970Y-123540771D01*
X90761541Y-124112200D02*
X90666303Y-124159819D01*
X90666303Y-124159819D02*
X90428208Y-124159819D01*
X90428208Y-124159819D02*
X90332970Y-124112200D01*
X90332970Y-124112200D02*
X90285351Y-124016961D01*
X90285351Y-124016961D02*
X90285351Y-123921723D01*
X90285351Y-123921723D02*
X90332970Y-123826485D01*
X90332970Y-123826485D02*
X90428208Y-123778866D01*
X90428208Y-123778866D02*
X90666303Y-123778866D01*
X90666303Y-123778866D02*
X90761541Y-123731247D01*
X91571065Y-123636009D02*
X91237732Y-123636009D01*
X91237732Y-124159819D02*
X91237732Y-123159819D01*
X91237732Y-123159819D02*
X91713922Y-123159819D01*
X92094875Y-124159819D02*
X92094875Y-123493152D01*
X92094875Y-123683628D02*
X92142494Y-123588390D01*
X92142494Y-123588390D02*
X92190113Y-123540771D01*
X92190113Y-123540771D02*
X92285351Y-123493152D01*
X92285351Y-123493152D02*
X92380589Y-123493152D01*
X93428208Y-123112200D02*
X92571066Y-124397914D01*
X93618685Y-123493152D02*
X93999637Y-123493152D01*
X93761542Y-124159819D02*
X93761542Y-123302676D01*
X93761542Y-123302676D02*
X93809161Y-123207438D01*
X93809161Y-123207438D02*
X93904399Y-123159819D01*
X93904399Y-123159819D02*
X93999637Y-123159819D01*
X94475828Y-124159819D02*
X94380590Y-124112200D01*
X94380590Y-124112200D02*
X94332971Y-124016961D01*
X94332971Y-124016961D02*
X94332971Y-123159819D01*
X94856781Y-124159819D02*
X94856781Y-123493152D01*
X94856781Y-123159819D02*
X94809162Y-123207438D01*
X94809162Y-123207438D02*
X94856781Y-123255057D01*
X94856781Y-123255057D02*
X94904400Y-123207438D01*
X94904400Y-123207438D02*
X94856781Y-123159819D01*
X94856781Y-123159819D02*
X94856781Y-123255057D01*
X95332971Y-123493152D02*
X95332971Y-124493152D01*
X95332971Y-123540771D02*
X95428209Y-123493152D01*
X95428209Y-123493152D02*
X95618685Y-123493152D01*
X95618685Y-123493152D02*
X95713923Y-123540771D01*
X95713923Y-123540771D02*
X95761542Y-123588390D01*
X95761542Y-123588390D02*
X95809161Y-123683628D01*
X95809161Y-123683628D02*
X95809161Y-123969342D01*
X95809161Y-123969342D02*
X95761542Y-124064580D01*
X95761542Y-124064580D02*
X95713923Y-124112200D01*
X95713923Y-124112200D02*
X95618685Y-124159819D01*
X95618685Y-124159819D02*
X95428209Y-124159819D01*
X95428209Y-124159819D02*
X95332971Y-124112200D01*
X96666304Y-124159819D02*
X96666304Y-123159819D01*
X96666304Y-124112200D02*
X96571066Y-124159819D01*
X96571066Y-124159819D02*
X96380590Y-124159819D01*
X96380590Y-124159819D02*
X96285352Y-124112200D01*
X96285352Y-124112200D02*
X96237733Y-124064580D01*
X96237733Y-124064580D02*
X96190114Y-123969342D01*
X96190114Y-123969342D02*
X96190114Y-123683628D01*
X96190114Y-123683628D02*
X96237733Y-123588390D01*
X96237733Y-123588390D02*
X96285352Y-123540771D01*
X96285352Y-123540771D02*
X96380590Y-123493152D01*
X96380590Y-123493152D02*
X96571066Y-123493152D01*
X96571066Y-123493152D02*
X96666304Y-123540771D01*
X97285352Y-124159819D02*
X97190114Y-124112200D01*
X97190114Y-124112200D02*
X97142495Y-124064580D01*
X97142495Y-124064580D02*
X97094876Y-123969342D01*
X97094876Y-123969342D02*
X97094876Y-123683628D01*
X97094876Y-123683628D02*
X97142495Y-123588390D01*
X97142495Y-123588390D02*
X97190114Y-123540771D01*
X97190114Y-123540771D02*
X97285352Y-123493152D01*
X97285352Y-123493152D02*
X97428209Y-123493152D01*
X97428209Y-123493152D02*
X97523447Y-123540771D01*
X97523447Y-123540771D02*
X97571066Y-123588390D01*
X97571066Y-123588390D02*
X97618685Y-123683628D01*
X97618685Y-123683628D02*
X97618685Y-123969342D01*
X97618685Y-123969342D02*
X97571066Y-124064580D01*
X97571066Y-124064580D02*
X97523447Y-124112200D01*
X97523447Y-124112200D02*
X97428209Y-124159819D01*
X97428209Y-124159819D02*
X97285352Y-124159819D01*
X97904400Y-123493152D02*
X98285352Y-123493152D01*
X98047257Y-123159819D02*
X98047257Y-124016961D01*
X98047257Y-124016961D02*
X98094876Y-124112200D01*
X98094876Y-124112200D02*
X98190114Y-124159819D01*
X98190114Y-124159819D02*
X98285352Y-124159819D01*
X98618686Y-123778866D02*
X99380591Y-123778866D01*
X100285352Y-124112200D02*
X100190114Y-124159819D01*
X100190114Y-124159819D02*
X99999638Y-124159819D01*
X99999638Y-124159819D02*
X99904400Y-124112200D01*
X99904400Y-124112200D02*
X99856781Y-124064580D01*
X99856781Y-124064580D02*
X99809162Y-123969342D01*
X99809162Y-123969342D02*
X99809162Y-123683628D01*
X99809162Y-123683628D02*
X99856781Y-123588390D01*
X99856781Y-123588390D02*
X99904400Y-123540771D01*
X99904400Y-123540771D02*
X99999638Y-123493152D01*
X99999638Y-123493152D02*
X100190114Y-123493152D01*
X100190114Y-123493152D02*
X100285352Y-123540771D01*
X100856781Y-124159819D02*
X100761543Y-124112200D01*
X100761543Y-124112200D02*
X100713924Y-124064580D01*
X100713924Y-124064580D02*
X100666305Y-123969342D01*
X100666305Y-123969342D02*
X100666305Y-123683628D01*
X100666305Y-123683628D02*
X100713924Y-123588390D01*
X100713924Y-123588390D02*
X100761543Y-123540771D01*
X100761543Y-123540771D02*
X100856781Y-123493152D01*
X100856781Y-123493152D02*
X100999638Y-123493152D01*
X100999638Y-123493152D02*
X101094876Y-123540771D01*
X101094876Y-123540771D02*
X101142495Y-123588390D01*
X101142495Y-123588390D02*
X101190114Y-123683628D01*
X101190114Y-123683628D02*
X101190114Y-123969342D01*
X101190114Y-123969342D02*
X101142495Y-124064580D01*
X101142495Y-124064580D02*
X101094876Y-124112200D01*
X101094876Y-124112200D02*
X100999638Y-124159819D01*
X100999638Y-124159819D02*
X100856781Y-124159819D01*
X101618686Y-123493152D02*
X101618686Y-124159819D01*
X101618686Y-123588390D02*
X101666305Y-123540771D01*
X101666305Y-123540771D02*
X101761543Y-123493152D01*
X101761543Y-123493152D02*
X101904400Y-123493152D01*
X101904400Y-123493152D02*
X101999638Y-123540771D01*
X101999638Y-123540771D02*
X102047257Y-123636009D01*
X102047257Y-123636009D02*
X102047257Y-124159819D01*
X102380591Y-123493152D02*
X102761543Y-123493152D01*
X102523448Y-123159819D02*
X102523448Y-124016961D01*
X102523448Y-124016961D02*
X102571067Y-124112200D01*
X102571067Y-124112200D02*
X102666305Y-124159819D01*
X102666305Y-124159819D02*
X102761543Y-124159819D01*
X103094877Y-124159819D02*
X103094877Y-123493152D01*
X103094877Y-123683628D02*
X103142496Y-123588390D01*
X103142496Y-123588390D02*
X103190115Y-123540771D01*
X103190115Y-123540771D02*
X103285353Y-123493152D01*
X103285353Y-123493152D02*
X103380591Y-123493152D01*
X103856782Y-124159819D02*
X103761544Y-124112200D01*
X103761544Y-124112200D02*
X103713925Y-124064580D01*
X103713925Y-124064580D02*
X103666306Y-123969342D01*
X103666306Y-123969342D02*
X103666306Y-123683628D01*
X103666306Y-123683628D02*
X103713925Y-123588390D01*
X103713925Y-123588390D02*
X103761544Y-123540771D01*
X103761544Y-123540771D02*
X103856782Y-123493152D01*
X103856782Y-123493152D02*
X103999639Y-123493152D01*
X103999639Y-123493152D02*
X104094877Y-123540771D01*
X104094877Y-123540771D02*
X104142496Y-123588390D01*
X104142496Y-123588390D02*
X104190115Y-123683628D01*
X104190115Y-123683628D02*
X104190115Y-123969342D01*
X104190115Y-123969342D02*
X104142496Y-124064580D01*
X104142496Y-124064580D02*
X104094877Y-124112200D01*
X104094877Y-124112200D02*
X103999639Y-124159819D01*
X103999639Y-124159819D02*
X103856782Y-124159819D01*
X104761544Y-124159819D02*
X104666306Y-124112200D01*
X104666306Y-124112200D02*
X104618687Y-124016961D01*
X104618687Y-124016961D02*
X104618687Y-123159819D01*
X105285354Y-124159819D02*
X105190116Y-124112200D01*
X105190116Y-124112200D02*
X105142497Y-124016961D01*
X105142497Y-124016961D02*
X105142497Y-123159819D01*
X106047259Y-124112200D02*
X105952021Y-124159819D01*
X105952021Y-124159819D02*
X105761545Y-124159819D01*
X105761545Y-124159819D02*
X105666307Y-124112200D01*
X105666307Y-124112200D02*
X105618688Y-124016961D01*
X105618688Y-124016961D02*
X105618688Y-123636009D01*
X105618688Y-123636009D02*
X105666307Y-123540771D01*
X105666307Y-123540771D02*
X105761545Y-123493152D01*
X105761545Y-123493152D02*
X105952021Y-123493152D01*
X105952021Y-123493152D02*
X106047259Y-123540771D01*
X106047259Y-123540771D02*
X106094878Y-123636009D01*
X106094878Y-123636009D02*
X106094878Y-123731247D01*
X106094878Y-123731247D02*
X105618688Y-123826485D01*
X106523450Y-124159819D02*
X106523450Y-123493152D01*
X106523450Y-123683628D02*
X106571069Y-123588390D01*
X106571069Y-123588390D02*
X106618688Y-123540771D01*
X106618688Y-123540771D02*
X106713926Y-123493152D01*
X106713926Y-123493152D02*
X106809164Y-123493152D01*
X176150588Y-88927438D02*
X176055350Y-88879819D01*
X176055350Y-88879819D02*
X175912493Y-88879819D01*
X175912493Y-88879819D02*
X175769636Y-88927438D01*
X175769636Y-88927438D02*
X175674398Y-89022676D01*
X175674398Y-89022676D02*
X175626779Y-89117914D01*
X175626779Y-89117914D02*
X175579160Y-89308390D01*
X175579160Y-89308390D02*
X175579160Y-89451247D01*
X175579160Y-89451247D02*
X175626779Y-89641723D01*
X175626779Y-89641723D02*
X175674398Y-89736961D01*
X175674398Y-89736961D02*
X175769636Y-89832200D01*
X175769636Y-89832200D02*
X175912493Y-89879819D01*
X175912493Y-89879819D02*
X176007731Y-89879819D01*
X176007731Y-89879819D02*
X176150588Y-89832200D01*
X176150588Y-89832200D02*
X176198207Y-89784580D01*
X176198207Y-89784580D02*
X176198207Y-89451247D01*
X176198207Y-89451247D02*
X176007731Y-89451247D01*
X176626779Y-89879819D02*
X176626779Y-88879819D01*
X176626779Y-88879819D02*
X177198207Y-89879819D01*
X177198207Y-89879819D02*
X177198207Y-88879819D01*
X177674398Y-89879819D02*
X177674398Y-88879819D01*
X177674398Y-88879819D02*
X177912493Y-88879819D01*
X177912493Y-88879819D02*
X178055350Y-88927438D01*
X178055350Y-88927438D02*
X178150588Y-89022676D01*
X178150588Y-89022676D02*
X178198207Y-89117914D01*
X178198207Y-89117914D02*
X178245826Y-89308390D01*
X178245826Y-89308390D02*
X178245826Y-89451247D01*
X178245826Y-89451247D02*
X178198207Y-89641723D01*
X178198207Y-89641723D02*
X178150588Y-89736961D01*
X178150588Y-89736961D02*
X178055350Y-89832200D01*
X178055350Y-89832200D02*
X177912493Y-89879819D01*
X177912493Y-89879819D02*
X177674398Y-89879819D01*
X207535588Y-67542438D02*
X207440350Y-67494819D01*
X207440350Y-67494819D02*
X207297493Y-67494819D01*
X207297493Y-67494819D02*
X207154636Y-67542438D01*
X207154636Y-67542438D02*
X207059398Y-67637676D01*
X207059398Y-67637676D02*
X207011779Y-67732914D01*
X207011779Y-67732914D02*
X206964160Y-67923390D01*
X206964160Y-67923390D02*
X206964160Y-68066247D01*
X206964160Y-68066247D02*
X207011779Y-68256723D01*
X207011779Y-68256723D02*
X207059398Y-68351961D01*
X207059398Y-68351961D02*
X207154636Y-68447200D01*
X207154636Y-68447200D02*
X207297493Y-68494819D01*
X207297493Y-68494819D02*
X207392731Y-68494819D01*
X207392731Y-68494819D02*
X207535588Y-68447200D01*
X207535588Y-68447200D02*
X207583207Y-68399580D01*
X207583207Y-68399580D02*
X207583207Y-68066247D01*
X207583207Y-68066247D02*
X207392731Y-68066247D01*
X208011779Y-68494819D02*
X208011779Y-67494819D01*
X208011779Y-67494819D02*
X208583207Y-68494819D01*
X208583207Y-68494819D02*
X208583207Y-67494819D01*
X209059398Y-68494819D02*
X209059398Y-67494819D01*
X209059398Y-67494819D02*
X209297493Y-67494819D01*
X209297493Y-67494819D02*
X209440350Y-67542438D01*
X209440350Y-67542438D02*
X209535588Y-67637676D01*
X209535588Y-67637676D02*
X209583207Y-67732914D01*
X209583207Y-67732914D02*
X209630826Y-67923390D01*
X209630826Y-67923390D02*
X209630826Y-68066247D01*
X209630826Y-68066247D02*
X209583207Y-68256723D01*
X209583207Y-68256723D02*
X209535588Y-68351961D01*
X209535588Y-68351961D02*
X209440350Y-68447200D01*
X209440350Y-68447200D02*
X209297493Y-68494819D01*
X209297493Y-68494819D02*
X209059398Y-68494819D01*
X207510588Y-60842438D02*
X207415350Y-60794819D01*
X207415350Y-60794819D02*
X207272493Y-60794819D01*
X207272493Y-60794819D02*
X207129636Y-60842438D01*
X207129636Y-60842438D02*
X207034398Y-60937676D01*
X207034398Y-60937676D02*
X206986779Y-61032914D01*
X206986779Y-61032914D02*
X206939160Y-61223390D01*
X206939160Y-61223390D02*
X206939160Y-61366247D01*
X206939160Y-61366247D02*
X206986779Y-61556723D01*
X206986779Y-61556723D02*
X207034398Y-61651961D01*
X207034398Y-61651961D02*
X207129636Y-61747200D01*
X207129636Y-61747200D02*
X207272493Y-61794819D01*
X207272493Y-61794819D02*
X207367731Y-61794819D01*
X207367731Y-61794819D02*
X207510588Y-61747200D01*
X207510588Y-61747200D02*
X207558207Y-61699580D01*
X207558207Y-61699580D02*
X207558207Y-61366247D01*
X207558207Y-61366247D02*
X207367731Y-61366247D01*
X207986779Y-61794819D02*
X207986779Y-60794819D01*
X207986779Y-60794819D02*
X208558207Y-61794819D01*
X208558207Y-61794819D02*
X208558207Y-60794819D01*
X209034398Y-61794819D02*
X209034398Y-60794819D01*
X209034398Y-60794819D02*
X209272493Y-60794819D01*
X209272493Y-60794819D02*
X209415350Y-60842438D01*
X209415350Y-60842438D02*
X209510588Y-60937676D01*
X209510588Y-60937676D02*
X209558207Y-61032914D01*
X209558207Y-61032914D02*
X209605826Y-61223390D01*
X209605826Y-61223390D02*
X209605826Y-61366247D01*
X209605826Y-61366247D02*
X209558207Y-61556723D01*
X209558207Y-61556723D02*
X209510588Y-61651961D01*
X209510588Y-61651961D02*
X209415350Y-61747200D01*
X209415350Y-61747200D02*
X209272493Y-61794819D01*
X209272493Y-61794819D02*
X209034398Y-61794819D01*
X206387969Y-57069819D02*
X205911779Y-57069819D01*
X205911779Y-57069819D02*
X205911779Y-56069819D01*
X206721303Y-57069819D02*
X206721303Y-56069819D01*
X207721302Y-56117438D02*
X207626064Y-56069819D01*
X207626064Y-56069819D02*
X207483207Y-56069819D01*
X207483207Y-56069819D02*
X207340350Y-56117438D01*
X207340350Y-56117438D02*
X207245112Y-56212676D01*
X207245112Y-56212676D02*
X207197493Y-56307914D01*
X207197493Y-56307914D02*
X207149874Y-56498390D01*
X207149874Y-56498390D02*
X207149874Y-56641247D01*
X207149874Y-56641247D02*
X207197493Y-56831723D01*
X207197493Y-56831723D02*
X207245112Y-56926961D01*
X207245112Y-56926961D02*
X207340350Y-57022200D01*
X207340350Y-57022200D02*
X207483207Y-57069819D01*
X207483207Y-57069819D02*
X207578445Y-57069819D01*
X207578445Y-57069819D02*
X207721302Y-57022200D01*
X207721302Y-57022200D02*
X207768921Y-56974580D01*
X207768921Y-56974580D02*
X207768921Y-56641247D01*
X207768921Y-56641247D02*
X207578445Y-56641247D01*
X208197493Y-57069819D02*
X208197493Y-56069819D01*
X208197493Y-56546009D02*
X208768921Y-56546009D01*
X208768921Y-57069819D02*
X208768921Y-56069819D01*
X209102255Y-56069819D02*
X209673683Y-56069819D01*
X209387969Y-57069819D02*
X209387969Y-56069819D01*
X206736779Y-73288866D02*
X207498684Y-73288866D01*
X207117731Y-73669819D02*
X207117731Y-72907914D01*
X208451064Y-72669819D02*
X207974874Y-72669819D01*
X207974874Y-72669819D02*
X207927255Y-73146009D01*
X207927255Y-73146009D02*
X207974874Y-73098390D01*
X207974874Y-73098390D02*
X208070112Y-73050771D01*
X208070112Y-73050771D02*
X208308207Y-73050771D01*
X208308207Y-73050771D02*
X208403445Y-73098390D01*
X208403445Y-73098390D02*
X208451064Y-73146009D01*
X208451064Y-73146009D02*
X208498683Y-73241247D01*
X208498683Y-73241247D02*
X208498683Y-73479342D01*
X208498683Y-73479342D02*
X208451064Y-73574580D01*
X208451064Y-73574580D02*
X208403445Y-73622200D01*
X208403445Y-73622200D02*
X208308207Y-73669819D01*
X208308207Y-73669819D02*
X208070112Y-73669819D01*
X208070112Y-73669819D02*
X207974874Y-73622200D01*
X207974874Y-73622200D02*
X207927255Y-73574580D01*
X208784398Y-72669819D02*
X209117731Y-73669819D01*
X209117731Y-73669819D02*
X209451064Y-72669819D01*
X176198207Y-97539819D02*
X175864874Y-97063628D01*
X175626779Y-97539819D02*
X175626779Y-96539819D01*
X175626779Y-96539819D02*
X176007731Y-96539819D01*
X176007731Y-96539819D02*
X176102969Y-96587438D01*
X176102969Y-96587438D02*
X176150588Y-96635057D01*
X176150588Y-96635057D02*
X176198207Y-96730295D01*
X176198207Y-96730295D02*
X176198207Y-96873152D01*
X176198207Y-96873152D02*
X176150588Y-96968390D01*
X176150588Y-96968390D02*
X176102969Y-97016009D01*
X176102969Y-97016009D02*
X176007731Y-97063628D01*
X176007731Y-97063628D02*
X175626779Y-97063628D01*
X176531541Y-96539819D02*
X177198207Y-97539819D01*
X177198207Y-96539819D02*
X176531541Y-97539819D01*
X175483922Y-101819819D02*
X175817255Y-102819819D01*
X175817255Y-102819819D02*
X176150588Y-101819819D01*
X177055350Y-102724580D02*
X177007731Y-102772200D01*
X177007731Y-102772200D02*
X176864874Y-102819819D01*
X176864874Y-102819819D02*
X176769636Y-102819819D01*
X176769636Y-102819819D02*
X176626779Y-102772200D01*
X176626779Y-102772200D02*
X176531541Y-102676961D01*
X176531541Y-102676961D02*
X176483922Y-102581723D01*
X176483922Y-102581723D02*
X176436303Y-102391247D01*
X176436303Y-102391247D02*
X176436303Y-102248390D01*
X176436303Y-102248390D02*
X176483922Y-102057914D01*
X176483922Y-102057914D02*
X176531541Y-101962676D01*
X176531541Y-101962676D02*
X176626779Y-101867438D01*
X176626779Y-101867438D02*
X176769636Y-101819819D01*
X176769636Y-101819819D02*
X176864874Y-101819819D01*
X176864874Y-101819819D02*
X177007731Y-101867438D01*
X177007731Y-101867438D02*
X177055350Y-101915057D01*
X178055350Y-102724580D02*
X178007731Y-102772200D01*
X178007731Y-102772200D02*
X177864874Y-102819819D01*
X177864874Y-102819819D02*
X177769636Y-102819819D01*
X177769636Y-102819819D02*
X177626779Y-102772200D01*
X177626779Y-102772200D02*
X177531541Y-102676961D01*
X177531541Y-102676961D02*
X177483922Y-102581723D01*
X177483922Y-102581723D02*
X177436303Y-102391247D01*
X177436303Y-102391247D02*
X177436303Y-102248390D01*
X177436303Y-102248390D02*
X177483922Y-102057914D01*
X177483922Y-102057914D02*
X177531541Y-101962676D01*
X177531541Y-101962676D02*
X177626779Y-101867438D01*
X177626779Y-101867438D02*
X177769636Y-101819819D01*
X177769636Y-101819819D02*
X177864874Y-101819819D01*
X177864874Y-101819819D02*
X178007731Y-101867438D01*
X178007731Y-101867438D02*
X178055350Y-101915057D01*
X175483922Y-99279819D02*
X176055350Y-99279819D01*
X175769636Y-100279819D02*
X175769636Y-99279819D01*
X176293446Y-99279819D02*
X176960112Y-100279819D01*
X176960112Y-99279819D02*
X176293446Y-100279819D01*
X144409580Y-59896666D02*
X144457200Y-59944285D01*
X144457200Y-59944285D02*
X144504819Y-60087142D01*
X144504819Y-60087142D02*
X144504819Y-60182380D01*
X144504819Y-60182380D02*
X144457200Y-60325237D01*
X144457200Y-60325237D02*
X144361961Y-60420475D01*
X144361961Y-60420475D02*
X144266723Y-60468094D01*
X144266723Y-60468094D02*
X144076247Y-60515713D01*
X144076247Y-60515713D02*
X143933390Y-60515713D01*
X143933390Y-60515713D02*
X143742914Y-60468094D01*
X143742914Y-60468094D02*
X143647676Y-60420475D01*
X143647676Y-60420475D02*
X143552438Y-60325237D01*
X143552438Y-60325237D02*
X143504819Y-60182380D01*
X143504819Y-60182380D02*
X143504819Y-60087142D01*
X143504819Y-60087142D02*
X143552438Y-59944285D01*
X143552438Y-59944285D02*
X143600057Y-59896666D01*
X143838152Y-59039523D02*
X144504819Y-59039523D01*
X143457200Y-59277618D02*
X144171485Y-59515713D01*
X144171485Y-59515713D02*
X144171485Y-58896666D01*
X55459580Y-81342857D02*
X55507200Y-81390476D01*
X55507200Y-81390476D02*
X55554819Y-81533333D01*
X55554819Y-81533333D02*
X55554819Y-81628571D01*
X55554819Y-81628571D02*
X55507200Y-81771428D01*
X55507200Y-81771428D02*
X55411961Y-81866666D01*
X55411961Y-81866666D02*
X55316723Y-81914285D01*
X55316723Y-81914285D02*
X55126247Y-81961904D01*
X55126247Y-81961904D02*
X54983390Y-81961904D01*
X54983390Y-81961904D02*
X54792914Y-81914285D01*
X54792914Y-81914285D02*
X54697676Y-81866666D01*
X54697676Y-81866666D02*
X54602438Y-81771428D01*
X54602438Y-81771428D02*
X54554819Y-81628571D01*
X54554819Y-81628571D02*
X54554819Y-81533333D01*
X54554819Y-81533333D02*
X54602438Y-81390476D01*
X54602438Y-81390476D02*
X54650057Y-81342857D01*
X55554819Y-80390476D02*
X55554819Y-80961904D01*
X55554819Y-80676190D02*
X54554819Y-80676190D01*
X54554819Y-80676190D02*
X54697676Y-80771428D01*
X54697676Y-80771428D02*
X54792914Y-80866666D01*
X54792914Y-80866666D02*
X54840533Y-80961904D01*
X54554819Y-80057142D02*
X54554819Y-79390476D01*
X54554819Y-79390476D02*
X55554819Y-79819047D01*
X98324819Y-99861666D02*
X97848628Y-100194999D01*
X98324819Y-100433094D02*
X97324819Y-100433094D01*
X97324819Y-100433094D02*
X97324819Y-100052142D01*
X97324819Y-100052142D02*
X97372438Y-99956904D01*
X97372438Y-99956904D02*
X97420057Y-99909285D01*
X97420057Y-99909285D02*
X97515295Y-99861666D01*
X97515295Y-99861666D02*
X97658152Y-99861666D01*
X97658152Y-99861666D02*
X97753390Y-99909285D01*
X97753390Y-99909285D02*
X97801009Y-99956904D01*
X97801009Y-99956904D02*
X97848628Y-100052142D01*
X97848628Y-100052142D02*
X97848628Y-100433094D01*
X98324819Y-98909285D02*
X98324819Y-99480713D01*
X98324819Y-99194999D02*
X97324819Y-99194999D01*
X97324819Y-99194999D02*
X97467676Y-99290237D01*
X97467676Y-99290237D02*
X97562914Y-99385475D01*
X97562914Y-99385475D02*
X97610533Y-99480713D01*
X97324819Y-98575951D02*
X97324819Y-97956904D01*
X97324819Y-97956904D02*
X97705771Y-98290237D01*
X97705771Y-98290237D02*
X97705771Y-98147380D01*
X97705771Y-98147380D02*
X97753390Y-98052142D01*
X97753390Y-98052142D02*
X97801009Y-98004523D01*
X97801009Y-98004523D02*
X97896247Y-97956904D01*
X97896247Y-97956904D02*
X98134342Y-97956904D01*
X98134342Y-97956904D02*
X98229580Y-98004523D01*
X98229580Y-98004523D02*
X98277200Y-98052142D01*
X98277200Y-98052142D02*
X98324819Y-98147380D01*
X98324819Y-98147380D02*
X98324819Y-98433094D01*
X98324819Y-98433094D02*
X98277200Y-98528332D01*
X98277200Y-98528332D02*
X98229580Y-98575951D01*
X143288095Y-102956819D02*
X143859523Y-102956819D01*
X143573809Y-103956819D02*
X143573809Y-102956819D01*
X144192857Y-103956819D02*
X144192857Y-102956819D01*
X144192857Y-102956819D02*
X144573809Y-102956819D01*
X144573809Y-102956819D02*
X144669047Y-103004438D01*
X144669047Y-103004438D02*
X144716666Y-103052057D01*
X144716666Y-103052057D02*
X144764285Y-103147295D01*
X144764285Y-103147295D02*
X144764285Y-103290152D01*
X144764285Y-103290152D02*
X144716666Y-103385390D01*
X144716666Y-103385390D02*
X144669047Y-103433009D01*
X144669047Y-103433009D02*
X144573809Y-103480628D01*
X144573809Y-103480628D02*
X144192857Y-103480628D01*
X145621428Y-103290152D02*
X145621428Y-103956819D01*
X145383333Y-102909200D02*
X145145238Y-103623485D01*
X145145238Y-103623485D02*
X145764285Y-103623485D01*
X175338095Y-72354819D02*
X175338095Y-73164342D01*
X175338095Y-73164342D02*
X175385714Y-73259580D01*
X175385714Y-73259580D02*
X175433333Y-73307200D01*
X175433333Y-73307200D02*
X175528571Y-73354819D01*
X175528571Y-73354819D02*
X175719047Y-73354819D01*
X175719047Y-73354819D02*
X175814285Y-73307200D01*
X175814285Y-73307200D02*
X175861904Y-73259580D01*
X175861904Y-73259580D02*
X175909523Y-73164342D01*
X175909523Y-73164342D02*
X175909523Y-72354819D01*
X176909523Y-73354819D02*
X176338095Y-73354819D01*
X176623809Y-73354819D02*
X176623809Y-72354819D01*
X176623809Y-72354819D02*
X176528571Y-72497676D01*
X176528571Y-72497676D02*
X176433333Y-72592914D01*
X176433333Y-72592914D02*
X176338095Y-72640533D01*
X177779580Y-59936666D02*
X177827200Y-59984285D01*
X177827200Y-59984285D02*
X177874819Y-60127142D01*
X177874819Y-60127142D02*
X177874819Y-60222380D01*
X177874819Y-60222380D02*
X177827200Y-60365237D01*
X177827200Y-60365237D02*
X177731961Y-60460475D01*
X177731961Y-60460475D02*
X177636723Y-60508094D01*
X177636723Y-60508094D02*
X177446247Y-60555713D01*
X177446247Y-60555713D02*
X177303390Y-60555713D01*
X177303390Y-60555713D02*
X177112914Y-60508094D01*
X177112914Y-60508094D02*
X177017676Y-60460475D01*
X177017676Y-60460475D02*
X176922438Y-60365237D01*
X176922438Y-60365237D02*
X176874819Y-60222380D01*
X176874819Y-60222380D02*
X176874819Y-60127142D01*
X176874819Y-60127142D02*
X176922438Y-59984285D01*
X176922438Y-59984285D02*
X176970057Y-59936666D01*
X176970057Y-59555713D02*
X176922438Y-59508094D01*
X176922438Y-59508094D02*
X176874819Y-59412856D01*
X176874819Y-59412856D02*
X176874819Y-59174761D01*
X176874819Y-59174761D02*
X176922438Y-59079523D01*
X176922438Y-59079523D02*
X176970057Y-59031904D01*
X176970057Y-59031904D02*
X177065295Y-58984285D01*
X177065295Y-58984285D02*
X177160533Y-58984285D01*
X177160533Y-58984285D02*
X177303390Y-59031904D01*
X177303390Y-59031904D02*
X177874819Y-59603332D01*
X177874819Y-59603332D02*
X177874819Y-58984285D01*
X227966666Y-73784819D02*
X227966666Y-74499104D01*
X227966666Y-74499104D02*
X227919047Y-74641961D01*
X227919047Y-74641961D02*
X227823809Y-74737200D01*
X227823809Y-74737200D02*
X227680952Y-74784819D01*
X227680952Y-74784819D02*
X227585714Y-74784819D01*
X228919047Y-73784819D02*
X228442857Y-73784819D01*
X228442857Y-73784819D02*
X228395238Y-74261009D01*
X228395238Y-74261009D02*
X228442857Y-74213390D01*
X228442857Y-74213390D02*
X228538095Y-74165771D01*
X228538095Y-74165771D02*
X228776190Y-74165771D01*
X228776190Y-74165771D02*
X228871428Y-74213390D01*
X228871428Y-74213390D02*
X228919047Y-74261009D01*
X228919047Y-74261009D02*
X228966666Y-74356247D01*
X228966666Y-74356247D02*
X228966666Y-74594342D01*
X228966666Y-74594342D02*
X228919047Y-74689580D01*
X228919047Y-74689580D02*
X228871428Y-74737200D01*
X228871428Y-74737200D02*
X228776190Y-74784819D01*
X228776190Y-74784819D02*
X228538095Y-74784819D01*
X228538095Y-74784819D02*
X228442857Y-74737200D01*
X228442857Y-74737200D02*
X228395238Y-74689580D01*
X54967142Y-99409580D02*
X54919523Y-99457200D01*
X54919523Y-99457200D02*
X54776666Y-99504819D01*
X54776666Y-99504819D02*
X54681428Y-99504819D01*
X54681428Y-99504819D02*
X54538571Y-99457200D01*
X54538571Y-99457200D02*
X54443333Y-99361961D01*
X54443333Y-99361961D02*
X54395714Y-99266723D01*
X54395714Y-99266723D02*
X54348095Y-99076247D01*
X54348095Y-99076247D02*
X54348095Y-98933390D01*
X54348095Y-98933390D02*
X54395714Y-98742914D01*
X54395714Y-98742914D02*
X54443333Y-98647676D01*
X54443333Y-98647676D02*
X54538571Y-98552438D01*
X54538571Y-98552438D02*
X54681428Y-98504819D01*
X54681428Y-98504819D02*
X54776666Y-98504819D01*
X54776666Y-98504819D02*
X54919523Y-98552438D01*
X54919523Y-98552438D02*
X54967142Y-98600057D01*
X55919523Y-99504819D02*
X55348095Y-99504819D01*
X55633809Y-99504819D02*
X55633809Y-98504819D01*
X55633809Y-98504819D02*
X55538571Y-98647676D01*
X55538571Y-98647676D02*
X55443333Y-98742914D01*
X55443333Y-98742914D02*
X55348095Y-98790533D01*
X56824285Y-98504819D02*
X56348095Y-98504819D01*
X56348095Y-98504819D02*
X56300476Y-98981009D01*
X56300476Y-98981009D02*
X56348095Y-98933390D01*
X56348095Y-98933390D02*
X56443333Y-98885771D01*
X56443333Y-98885771D02*
X56681428Y-98885771D01*
X56681428Y-98885771D02*
X56776666Y-98933390D01*
X56776666Y-98933390D02*
X56824285Y-98981009D01*
X56824285Y-98981009D02*
X56871904Y-99076247D01*
X56871904Y-99076247D02*
X56871904Y-99314342D01*
X56871904Y-99314342D02*
X56824285Y-99409580D01*
X56824285Y-99409580D02*
X56776666Y-99457200D01*
X56776666Y-99457200D02*
X56681428Y-99504819D01*
X56681428Y-99504819D02*
X56443333Y-99504819D01*
X56443333Y-99504819D02*
X56348095Y-99457200D01*
X56348095Y-99457200D02*
X56300476Y-99409580D01*
X182067142Y-99484819D02*
X181733809Y-99008628D01*
X181495714Y-99484819D02*
X181495714Y-98484819D01*
X181495714Y-98484819D02*
X181876666Y-98484819D01*
X181876666Y-98484819D02*
X181971904Y-98532438D01*
X181971904Y-98532438D02*
X182019523Y-98580057D01*
X182019523Y-98580057D02*
X182067142Y-98675295D01*
X182067142Y-98675295D02*
X182067142Y-98818152D01*
X182067142Y-98818152D02*
X182019523Y-98913390D01*
X182019523Y-98913390D02*
X181971904Y-98961009D01*
X181971904Y-98961009D02*
X181876666Y-99008628D01*
X181876666Y-99008628D02*
X181495714Y-99008628D01*
X182400476Y-98484819D02*
X183019523Y-98484819D01*
X183019523Y-98484819D02*
X182686190Y-98865771D01*
X182686190Y-98865771D02*
X182829047Y-98865771D01*
X182829047Y-98865771D02*
X182924285Y-98913390D01*
X182924285Y-98913390D02*
X182971904Y-98961009D01*
X182971904Y-98961009D02*
X183019523Y-99056247D01*
X183019523Y-99056247D02*
X183019523Y-99294342D01*
X183019523Y-99294342D02*
X182971904Y-99389580D01*
X182971904Y-99389580D02*
X182924285Y-99437200D01*
X182924285Y-99437200D02*
X182829047Y-99484819D01*
X182829047Y-99484819D02*
X182543333Y-99484819D01*
X182543333Y-99484819D02*
X182448095Y-99437200D01*
X182448095Y-99437200D02*
X182400476Y-99389580D01*
X183590952Y-98913390D02*
X183495714Y-98865771D01*
X183495714Y-98865771D02*
X183448095Y-98818152D01*
X183448095Y-98818152D02*
X183400476Y-98722914D01*
X183400476Y-98722914D02*
X183400476Y-98675295D01*
X183400476Y-98675295D02*
X183448095Y-98580057D01*
X183448095Y-98580057D02*
X183495714Y-98532438D01*
X183495714Y-98532438D02*
X183590952Y-98484819D01*
X183590952Y-98484819D02*
X183781428Y-98484819D01*
X183781428Y-98484819D02*
X183876666Y-98532438D01*
X183876666Y-98532438D02*
X183924285Y-98580057D01*
X183924285Y-98580057D02*
X183971904Y-98675295D01*
X183971904Y-98675295D02*
X183971904Y-98722914D01*
X183971904Y-98722914D02*
X183924285Y-98818152D01*
X183924285Y-98818152D02*
X183876666Y-98865771D01*
X183876666Y-98865771D02*
X183781428Y-98913390D01*
X183781428Y-98913390D02*
X183590952Y-98913390D01*
X183590952Y-98913390D02*
X183495714Y-98961009D01*
X183495714Y-98961009D02*
X183448095Y-99008628D01*
X183448095Y-99008628D02*
X183400476Y-99103866D01*
X183400476Y-99103866D02*
X183400476Y-99294342D01*
X183400476Y-99294342D02*
X183448095Y-99389580D01*
X183448095Y-99389580D02*
X183495714Y-99437200D01*
X183495714Y-99437200D02*
X183590952Y-99484819D01*
X183590952Y-99484819D02*
X183781428Y-99484819D01*
X183781428Y-99484819D02*
X183876666Y-99437200D01*
X183876666Y-99437200D02*
X183924285Y-99389580D01*
X183924285Y-99389580D02*
X183971904Y-99294342D01*
X183971904Y-99294342D02*
X183971904Y-99103866D01*
X183971904Y-99103866D02*
X183924285Y-99008628D01*
X183924285Y-99008628D02*
X183876666Y-98961009D01*
X183876666Y-98961009D02*
X183781428Y-98913390D01*
X68544819Y-81778094D02*
X67544819Y-81778094D01*
X67544819Y-81778094D02*
X67544819Y-81539999D01*
X67544819Y-81539999D02*
X67592438Y-81397142D01*
X67592438Y-81397142D02*
X67687676Y-81301904D01*
X67687676Y-81301904D02*
X67782914Y-81254285D01*
X67782914Y-81254285D02*
X67973390Y-81206666D01*
X67973390Y-81206666D02*
X68116247Y-81206666D01*
X68116247Y-81206666D02*
X68306723Y-81254285D01*
X68306723Y-81254285D02*
X68401961Y-81301904D01*
X68401961Y-81301904D02*
X68497200Y-81397142D01*
X68497200Y-81397142D02*
X68544819Y-81539999D01*
X68544819Y-81539999D02*
X68544819Y-81778094D01*
X67544819Y-80301904D02*
X67544819Y-80778094D01*
X67544819Y-80778094D02*
X68021009Y-80825713D01*
X68021009Y-80825713D02*
X67973390Y-80778094D01*
X67973390Y-80778094D02*
X67925771Y-80682856D01*
X67925771Y-80682856D02*
X67925771Y-80444761D01*
X67925771Y-80444761D02*
X67973390Y-80349523D01*
X67973390Y-80349523D02*
X68021009Y-80301904D01*
X68021009Y-80301904D02*
X68116247Y-80254285D01*
X68116247Y-80254285D02*
X68354342Y-80254285D01*
X68354342Y-80254285D02*
X68449580Y-80301904D01*
X68449580Y-80301904D02*
X68497200Y-80349523D01*
X68497200Y-80349523D02*
X68544819Y-80444761D01*
X68544819Y-80444761D02*
X68544819Y-80682856D01*
X68544819Y-80682856D02*
X68497200Y-80778094D01*
X68497200Y-80778094D02*
X68449580Y-80825713D01*
X140443333Y-57744819D02*
X140110000Y-57268628D01*
X139871905Y-57744819D02*
X139871905Y-56744819D01*
X139871905Y-56744819D02*
X140252857Y-56744819D01*
X140252857Y-56744819D02*
X140348095Y-56792438D01*
X140348095Y-56792438D02*
X140395714Y-56840057D01*
X140395714Y-56840057D02*
X140443333Y-56935295D01*
X140443333Y-56935295D02*
X140443333Y-57078152D01*
X140443333Y-57078152D02*
X140395714Y-57173390D01*
X140395714Y-57173390D02*
X140348095Y-57221009D01*
X140348095Y-57221009D02*
X140252857Y-57268628D01*
X140252857Y-57268628D02*
X139871905Y-57268628D01*
X141395714Y-57744819D02*
X140824286Y-57744819D01*
X141110000Y-57744819D02*
X141110000Y-56744819D01*
X141110000Y-56744819D02*
X141014762Y-56887676D01*
X141014762Y-56887676D02*
X140919524Y-56982914D01*
X140919524Y-56982914D02*
X140824286Y-57030533D01*
X88324819Y-111411904D02*
X89134342Y-111411904D01*
X89134342Y-111411904D02*
X89229580Y-111364285D01*
X89229580Y-111364285D02*
X89277200Y-111316666D01*
X89277200Y-111316666D02*
X89324819Y-111221428D01*
X89324819Y-111221428D02*
X89324819Y-111030952D01*
X89324819Y-111030952D02*
X89277200Y-110935714D01*
X89277200Y-110935714D02*
X89229580Y-110888095D01*
X89229580Y-110888095D02*
X89134342Y-110840476D01*
X89134342Y-110840476D02*
X88324819Y-110840476D01*
X88324819Y-109935714D02*
X88324819Y-110126190D01*
X88324819Y-110126190D02*
X88372438Y-110221428D01*
X88372438Y-110221428D02*
X88420057Y-110269047D01*
X88420057Y-110269047D02*
X88562914Y-110364285D01*
X88562914Y-110364285D02*
X88753390Y-110411904D01*
X88753390Y-110411904D02*
X89134342Y-110411904D01*
X89134342Y-110411904D02*
X89229580Y-110364285D01*
X89229580Y-110364285D02*
X89277200Y-110316666D01*
X89277200Y-110316666D02*
X89324819Y-110221428D01*
X89324819Y-110221428D02*
X89324819Y-110030952D01*
X89324819Y-110030952D02*
X89277200Y-109935714D01*
X89277200Y-109935714D02*
X89229580Y-109888095D01*
X89229580Y-109888095D02*
X89134342Y-109840476D01*
X89134342Y-109840476D02*
X88896247Y-109840476D01*
X88896247Y-109840476D02*
X88801009Y-109888095D01*
X88801009Y-109888095D02*
X88753390Y-109935714D01*
X88753390Y-109935714D02*
X88705771Y-110030952D01*
X88705771Y-110030952D02*
X88705771Y-110221428D01*
X88705771Y-110221428D02*
X88753390Y-110316666D01*
X88753390Y-110316666D02*
X88801009Y-110364285D01*
X88801009Y-110364285D02*
X88896247Y-110411904D01*
X142399580Y-53976666D02*
X142447200Y-54024285D01*
X142447200Y-54024285D02*
X142494819Y-54167142D01*
X142494819Y-54167142D02*
X142494819Y-54262380D01*
X142494819Y-54262380D02*
X142447200Y-54405237D01*
X142447200Y-54405237D02*
X142351961Y-54500475D01*
X142351961Y-54500475D02*
X142256723Y-54548094D01*
X142256723Y-54548094D02*
X142066247Y-54595713D01*
X142066247Y-54595713D02*
X141923390Y-54595713D01*
X141923390Y-54595713D02*
X141732914Y-54548094D01*
X141732914Y-54548094D02*
X141637676Y-54500475D01*
X141637676Y-54500475D02*
X141542438Y-54405237D01*
X141542438Y-54405237D02*
X141494819Y-54262380D01*
X141494819Y-54262380D02*
X141494819Y-54167142D01*
X141494819Y-54167142D02*
X141542438Y-54024285D01*
X141542438Y-54024285D02*
X141590057Y-53976666D01*
X141494819Y-53643332D02*
X141494819Y-52976666D01*
X141494819Y-52976666D02*
X142494819Y-53405237D01*
X172284819Y-75871666D02*
X171808628Y-76204999D01*
X172284819Y-76443094D02*
X171284819Y-76443094D01*
X171284819Y-76443094D02*
X171284819Y-76062142D01*
X171284819Y-76062142D02*
X171332438Y-75966904D01*
X171332438Y-75966904D02*
X171380057Y-75919285D01*
X171380057Y-75919285D02*
X171475295Y-75871666D01*
X171475295Y-75871666D02*
X171618152Y-75871666D01*
X171618152Y-75871666D02*
X171713390Y-75919285D01*
X171713390Y-75919285D02*
X171761009Y-75966904D01*
X171761009Y-75966904D02*
X171808628Y-76062142D01*
X171808628Y-76062142D02*
X171808628Y-76443094D01*
X171380057Y-75490713D02*
X171332438Y-75443094D01*
X171332438Y-75443094D02*
X171284819Y-75347856D01*
X171284819Y-75347856D02*
X171284819Y-75109761D01*
X171284819Y-75109761D02*
X171332438Y-75014523D01*
X171332438Y-75014523D02*
X171380057Y-74966904D01*
X171380057Y-74966904D02*
X171475295Y-74919285D01*
X171475295Y-74919285D02*
X171570533Y-74919285D01*
X171570533Y-74919285D02*
X171713390Y-74966904D01*
X171713390Y-74966904D02*
X172284819Y-75538332D01*
X172284819Y-75538332D02*
X172284819Y-74919285D01*
X112338333Y-117994580D02*
X112290714Y-118042200D01*
X112290714Y-118042200D02*
X112147857Y-118089819D01*
X112147857Y-118089819D02*
X112052619Y-118089819D01*
X112052619Y-118089819D02*
X111909762Y-118042200D01*
X111909762Y-118042200D02*
X111814524Y-117946961D01*
X111814524Y-117946961D02*
X111766905Y-117851723D01*
X111766905Y-117851723D02*
X111719286Y-117661247D01*
X111719286Y-117661247D02*
X111719286Y-117518390D01*
X111719286Y-117518390D02*
X111766905Y-117327914D01*
X111766905Y-117327914D02*
X111814524Y-117232676D01*
X111814524Y-117232676D02*
X111909762Y-117137438D01*
X111909762Y-117137438D02*
X112052619Y-117089819D01*
X112052619Y-117089819D02*
X112147857Y-117089819D01*
X112147857Y-117089819D02*
X112290714Y-117137438D01*
X112290714Y-117137438D02*
X112338333Y-117185057D01*
X112814524Y-118089819D02*
X113005000Y-118089819D01*
X113005000Y-118089819D02*
X113100238Y-118042200D01*
X113100238Y-118042200D02*
X113147857Y-117994580D01*
X113147857Y-117994580D02*
X113243095Y-117851723D01*
X113243095Y-117851723D02*
X113290714Y-117661247D01*
X113290714Y-117661247D02*
X113290714Y-117280295D01*
X113290714Y-117280295D02*
X113243095Y-117185057D01*
X113243095Y-117185057D02*
X113195476Y-117137438D01*
X113195476Y-117137438D02*
X113100238Y-117089819D01*
X113100238Y-117089819D02*
X112909762Y-117089819D01*
X112909762Y-117089819D02*
X112814524Y-117137438D01*
X112814524Y-117137438D02*
X112766905Y-117185057D01*
X112766905Y-117185057D02*
X112719286Y-117280295D01*
X112719286Y-117280295D02*
X112719286Y-117518390D01*
X112719286Y-117518390D02*
X112766905Y-117613628D01*
X112766905Y-117613628D02*
X112814524Y-117661247D01*
X112814524Y-117661247D02*
X112909762Y-117708866D01*
X112909762Y-117708866D02*
X113100238Y-117708866D01*
X113100238Y-117708866D02*
X113195476Y-117661247D01*
X113195476Y-117661247D02*
X113243095Y-117613628D01*
X113243095Y-117613628D02*
X113290714Y-117518390D01*
X146871428Y-102956819D02*
X147442856Y-102956819D01*
X147157142Y-103956819D02*
X147157142Y-102956819D01*
X147776190Y-103956819D02*
X147776190Y-102956819D01*
X147776190Y-102956819D02*
X148157142Y-102956819D01*
X148157142Y-102956819D02*
X148252380Y-103004438D01*
X148252380Y-103004438D02*
X148299999Y-103052057D01*
X148299999Y-103052057D02*
X148347618Y-103147295D01*
X148347618Y-103147295D02*
X148347618Y-103290152D01*
X148347618Y-103290152D02*
X148299999Y-103385390D01*
X148299999Y-103385390D02*
X148252380Y-103433009D01*
X148252380Y-103433009D02*
X148157142Y-103480628D01*
X148157142Y-103480628D02*
X147776190Y-103480628D01*
X149299999Y-103956819D02*
X148728571Y-103956819D01*
X149014285Y-103956819D02*
X149014285Y-102956819D01*
X149014285Y-102956819D02*
X148919047Y-103099676D01*
X148919047Y-103099676D02*
X148823809Y-103194914D01*
X148823809Y-103194914D02*
X148728571Y-103242533D01*
X52919819Y-87222857D02*
X52443628Y-87556190D01*
X52919819Y-87794285D02*
X51919819Y-87794285D01*
X51919819Y-87794285D02*
X51919819Y-87413333D01*
X51919819Y-87413333D02*
X51967438Y-87318095D01*
X51967438Y-87318095D02*
X52015057Y-87270476D01*
X52015057Y-87270476D02*
X52110295Y-87222857D01*
X52110295Y-87222857D02*
X52253152Y-87222857D01*
X52253152Y-87222857D02*
X52348390Y-87270476D01*
X52348390Y-87270476D02*
X52396009Y-87318095D01*
X52396009Y-87318095D02*
X52443628Y-87413333D01*
X52443628Y-87413333D02*
X52443628Y-87794285D01*
X51919819Y-86889523D02*
X51919819Y-86270476D01*
X51919819Y-86270476D02*
X52300771Y-86603809D01*
X52300771Y-86603809D02*
X52300771Y-86460952D01*
X52300771Y-86460952D02*
X52348390Y-86365714D01*
X52348390Y-86365714D02*
X52396009Y-86318095D01*
X52396009Y-86318095D02*
X52491247Y-86270476D01*
X52491247Y-86270476D02*
X52729342Y-86270476D01*
X52729342Y-86270476D02*
X52824580Y-86318095D01*
X52824580Y-86318095D02*
X52872200Y-86365714D01*
X52872200Y-86365714D02*
X52919819Y-86460952D01*
X52919819Y-86460952D02*
X52919819Y-86746666D01*
X52919819Y-86746666D02*
X52872200Y-86841904D01*
X52872200Y-86841904D02*
X52824580Y-86889523D01*
X51919819Y-85365714D02*
X51919819Y-85841904D01*
X51919819Y-85841904D02*
X52396009Y-85889523D01*
X52396009Y-85889523D02*
X52348390Y-85841904D01*
X52348390Y-85841904D02*
X52300771Y-85746666D01*
X52300771Y-85746666D02*
X52300771Y-85508571D01*
X52300771Y-85508571D02*
X52348390Y-85413333D01*
X52348390Y-85413333D02*
X52396009Y-85365714D01*
X52396009Y-85365714D02*
X52491247Y-85318095D01*
X52491247Y-85318095D02*
X52729342Y-85318095D01*
X52729342Y-85318095D02*
X52824580Y-85365714D01*
X52824580Y-85365714D02*
X52872200Y-85413333D01*
X52872200Y-85413333D02*
X52919819Y-85508571D01*
X52919819Y-85508571D02*
X52919819Y-85746666D01*
X52919819Y-85746666D02*
X52872200Y-85841904D01*
X52872200Y-85841904D02*
X52824580Y-85889523D01*
X114359819Y-111424404D02*
X115169342Y-111424404D01*
X115169342Y-111424404D02*
X115264580Y-111376785D01*
X115264580Y-111376785D02*
X115312200Y-111329166D01*
X115312200Y-111329166D02*
X115359819Y-111233928D01*
X115359819Y-111233928D02*
X115359819Y-111043452D01*
X115359819Y-111043452D02*
X115312200Y-110948214D01*
X115312200Y-110948214D02*
X115264580Y-110900595D01*
X115264580Y-110900595D02*
X115169342Y-110852976D01*
X115169342Y-110852976D02*
X114359819Y-110852976D01*
X114693152Y-109948214D02*
X115359819Y-109948214D01*
X114312200Y-110186309D02*
X115026485Y-110424404D01*
X115026485Y-110424404D02*
X115026485Y-109805357D01*
X71863333Y-93514819D02*
X71387143Y-93514819D01*
X71387143Y-93514819D02*
X71387143Y-92514819D01*
X72149048Y-92610057D02*
X72196667Y-92562438D01*
X72196667Y-92562438D02*
X72291905Y-92514819D01*
X72291905Y-92514819D02*
X72530000Y-92514819D01*
X72530000Y-92514819D02*
X72625238Y-92562438D01*
X72625238Y-92562438D02*
X72672857Y-92610057D01*
X72672857Y-92610057D02*
X72720476Y-92705295D01*
X72720476Y-92705295D02*
X72720476Y-92800533D01*
X72720476Y-92800533D02*
X72672857Y-92943390D01*
X72672857Y-92943390D02*
X72101429Y-93514819D01*
X72101429Y-93514819D02*
X72720476Y-93514819D01*
X175006666Y-55974819D02*
X175006666Y-56689104D01*
X175006666Y-56689104D02*
X174959047Y-56831961D01*
X174959047Y-56831961D02*
X174863809Y-56927200D01*
X174863809Y-56927200D02*
X174720952Y-56974819D01*
X174720952Y-56974819D02*
X174625714Y-56974819D01*
X175435238Y-56070057D02*
X175482857Y-56022438D01*
X175482857Y-56022438D02*
X175578095Y-55974819D01*
X175578095Y-55974819D02*
X175816190Y-55974819D01*
X175816190Y-55974819D02*
X175911428Y-56022438D01*
X175911428Y-56022438D02*
X175959047Y-56070057D01*
X175959047Y-56070057D02*
X176006666Y-56165295D01*
X176006666Y-56165295D02*
X176006666Y-56260533D01*
X176006666Y-56260533D02*
X175959047Y-56403390D01*
X175959047Y-56403390D02*
X175387619Y-56974819D01*
X175387619Y-56974819D02*
X176006666Y-56974819D01*
X219614819Y-118702857D02*
X219138628Y-119036190D01*
X219614819Y-119274285D02*
X218614819Y-119274285D01*
X218614819Y-119274285D02*
X218614819Y-118893333D01*
X218614819Y-118893333D02*
X218662438Y-118798095D01*
X218662438Y-118798095D02*
X218710057Y-118750476D01*
X218710057Y-118750476D02*
X218805295Y-118702857D01*
X218805295Y-118702857D02*
X218948152Y-118702857D01*
X218948152Y-118702857D02*
X219043390Y-118750476D01*
X219043390Y-118750476D02*
X219091009Y-118798095D01*
X219091009Y-118798095D02*
X219138628Y-118893333D01*
X219138628Y-118893333D02*
X219138628Y-119274285D01*
X218710057Y-118321904D02*
X218662438Y-118274285D01*
X218662438Y-118274285D02*
X218614819Y-118179047D01*
X218614819Y-118179047D02*
X218614819Y-117940952D01*
X218614819Y-117940952D02*
X218662438Y-117845714D01*
X218662438Y-117845714D02*
X218710057Y-117798095D01*
X218710057Y-117798095D02*
X218805295Y-117750476D01*
X218805295Y-117750476D02*
X218900533Y-117750476D01*
X218900533Y-117750476D02*
X219043390Y-117798095D01*
X219043390Y-117798095D02*
X219614819Y-118369523D01*
X219614819Y-118369523D02*
X219614819Y-117750476D01*
X218614819Y-117417142D02*
X218614819Y-116750476D01*
X218614819Y-116750476D02*
X219614819Y-117179047D01*
X191484819Y-66579166D02*
X191008628Y-66912499D01*
X191484819Y-67150594D02*
X190484819Y-67150594D01*
X190484819Y-67150594D02*
X190484819Y-66769642D01*
X190484819Y-66769642D02*
X190532438Y-66674404D01*
X190532438Y-66674404D02*
X190580057Y-66626785D01*
X190580057Y-66626785D02*
X190675295Y-66579166D01*
X190675295Y-66579166D02*
X190818152Y-66579166D01*
X190818152Y-66579166D02*
X190913390Y-66626785D01*
X190913390Y-66626785D02*
X190961009Y-66674404D01*
X190961009Y-66674404D02*
X191008628Y-66769642D01*
X191008628Y-66769642D02*
X191008628Y-67150594D01*
X190818152Y-65722023D02*
X191484819Y-65722023D01*
X190437200Y-65960118D02*
X191151485Y-66198213D01*
X191151485Y-66198213D02*
X191151485Y-65579166D01*
X95714819Y-99876666D02*
X95238628Y-100209999D01*
X95714819Y-100448094D02*
X94714819Y-100448094D01*
X94714819Y-100448094D02*
X94714819Y-100067142D01*
X94714819Y-100067142D02*
X94762438Y-99971904D01*
X94762438Y-99971904D02*
X94810057Y-99924285D01*
X94810057Y-99924285D02*
X94905295Y-99876666D01*
X94905295Y-99876666D02*
X95048152Y-99876666D01*
X95048152Y-99876666D02*
X95143390Y-99924285D01*
X95143390Y-99924285D02*
X95191009Y-99971904D01*
X95191009Y-99971904D02*
X95238628Y-100067142D01*
X95238628Y-100067142D02*
X95238628Y-100448094D01*
X95143390Y-99305237D02*
X95095771Y-99400475D01*
X95095771Y-99400475D02*
X95048152Y-99448094D01*
X95048152Y-99448094D02*
X94952914Y-99495713D01*
X94952914Y-99495713D02*
X94905295Y-99495713D01*
X94905295Y-99495713D02*
X94810057Y-99448094D01*
X94810057Y-99448094D02*
X94762438Y-99400475D01*
X94762438Y-99400475D02*
X94714819Y-99305237D01*
X94714819Y-99305237D02*
X94714819Y-99114761D01*
X94714819Y-99114761D02*
X94762438Y-99019523D01*
X94762438Y-99019523D02*
X94810057Y-98971904D01*
X94810057Y-98971904D02*
X94905295Y-98924285D01*
X94905295Y-98924285D02*
X94952914Y-98924285D01*
X94952914Y-98924285D02*
X95048152Y-98971904D01*
X95048152Y-98971904D02*
X95095771Y-99019523D01*
X95095771Y-99019523D02*
X95143390Y-99114761D01*
X95143390Y-99114761D02*
X95143390Y-99305237D01*
X95143390Y-99305237D02*
X95191009Y-99400475D01*
X95191009Y-99400475D02*
X95238628Y-99448094D01*
X95238628Y-99448094D02*
X95333866Y-99495713D01*
X95333866Y-99495713D02*
X95524342Y-99495713D01*
X95524342Y-99495713D02*
X95619580Y-99448094D01*
X95619580Y-99448094D02*
X95667200Y-99400475D01*
X95667200Y-99400475D02*
X95714819Y-99305237D01*
X95714819Y-99305237D02*
X95714819Y-99114761D01*
X95714819Y-99114761D02*
X95667200Y-99019523D01*
X95667200Y-99019523D02*
X95619580Y-98971904D01*
X95619580Y-98971904D02*
X95524342Y-98924285D01*
X95524342Y-98924285D02*
X95333866Y-98924285D01*
X95333866Y-98924285D02*
X95238628Y-98971904D01*
X95238628Y-98971904D02*
X95191009Y-99019523D01*
X95191009Y-99019523D02*
X95143390Y-99114761D01*
X220609580Y-93132857D02*
X220657200Y-93180476D01*
X220657200Y-93180476D02*
X220704819Y-93323333D01*
X220704819Y-93323333D02*
X220704819Y-93418571D01*
X220704819Y-93418571D02*
X220657200Y-93561428D01*
X220657200Y-93561428D02*
X220561961Y-93656666D01*
X220561961Y-93656666D02*
X220466723Y-93704285D01*
X220466723Y-93704285D02*
X220276247Y-93751904D01*
X220276247Y-93751904D02*
X220133390Y-93751904D01*
X220133390Y-93751904D02*
X219942914Y-93704285D01*
X219942914Y-93704285D02*
X219847676Y-93656666D01*
X219847676Y-93656666D02*
X219752438Y-93561428D01*
X219752438Y-93561428D02*
X219704819Y-93418571D01*
X219704819Y-93418571D02*
X219704819Y-93323333D01*
X219704819Y-93323333D02*
X219752438Y-93180476D01*
X219752438Y-93180476D02*
X219800057Y-93132857D01*
X220704819Y-92180476D02*
X220704819Y-92751904D01*
X220704819Y-92466190D02*
X219704819Y-92466190D01*
X219704819Y-92466190D02*
X219847676Y-92561428D01*
X219847676Y-92561428D02*
X219942914Y-92656666D01*
X219942914Y-92656666D02*
X219990533Y-92751904D01*
X220038152Y-91323333D02*
X220704819Y-91323333D01*
X219657200Y-91561428D02*
X220371485Y-91799523D01*
X220371485Y-91799523D02*
X220371485Y-91180476D01*
X140929580Y-54016666D02*
X140977200Y-54064285D01*
X140977200Y-54064285D02*
X141024819Y-54207142D01*
X141024819Y-54207142D02*
X141024819Y-54302380D01*
X141024819Y-54302380D02*
X140977200Y-54445237D01*
X140977200Y-54445237D02*
X140881961Y-54540475D01*
X140881961Y-54540475D02*
X140786723Y-54588094D01*
X140786723Y-54588094D02*
X140596247Y-54635713D01*
X140596247Y-54635713D02*
X140453390Y-54635713D01*
X140453390Y-54635713D02*
X140262914Y-54588094D01*
X140262914Y-54588094D02*
X140167676Y-54540475D01*
X140167676Y-54540475D02*
X140072438Y-54445237D01*
X140072438Y-54445237D02*
X140024819Y-54302380D01*
X140024819Y-54302380D02*
X140024819Y-54207142D01*
X140024819Y-54207142D02*
X140072438Y-54064285D01*
X140072438Y-54064285D02*
X140120057Y-54016666D01*
X140453390Y-53445237D02*
X140405771Y-53540475D01*
X140405771Y-53540475D02*
X140358152Y-53588094D01*
X140358152Y-53588094D02*
X140262914Y-53635713D01*
X140262914Y-53635713D02*
X140215295Y-53635713D01*
X140215295Y-53635713D02*
X140120057Y-53588094D01*
X140120057Y-53588094D02*
X140072438Y-53540475D01*
X140072438Y-53540475D02*
X140024819Y-53445237D01*
X140024819Y-53445237D02*
X140024819Y-53254761D01*
X140024819Y-53254761D02*
X140072438Y-53159523D01*
X140072438Y-53159523D02*
X140120057Y-53111904D01*
X140120057Y-53111904D02*
X140215295Y-53064285D01*
X140215295Y-53064285D02*
X140262914Y-53064285D01*
X140262914Y-53064285D02*
X140358152Y-53111904D01*
X140358152Y-53111904D02*
X140405771Y-53159523D01*
X140405771Y-53159523D02*
X140453390Y-53254761D01*
X140453390Y-53254761D02*
X140453390Y-53445237D01*
X140453390Y-53445237D02*
X140501009Y-53540475D01*
X140501009Y-53540475D02*
X140548628Y-53588094D01*
X140548628Y-53588094D02*
X140643866Y-53635713D01*
X140643866Y-53635713D02*
X140834342Y-53635713D01*
X140834342Y-53635713D02*
X140929580Y-53588094D01*
X140929580Y-53588094D02*
X140977200Y-53540475D01*
X140977200Y-53540475D02*
X141024819Y-53445237D01*
X141024819Y-53445237D02*
X141024819Y-53254761D01*
X141024819Y-53254761D02*
X140977200Y-53159523D01*
X140977200Y-53159523D02*
X140929580Y-53111904D01*
X140929580Y-53111904D02*
X140834342Y-53064285D01*
X140834342Y-53064285D02*
X140643866Y-53064285D01*
X140643866Y-53064285D02*
X140548628Y-53111904D01*
X140548628Y-53111904D02*
X140501009Y-53159523D01*
X140501009Y-53159523D02*
X140453390Y-53254761D01*
X97049819Y-93737857D02*
X96573628Y-94071190D01*
X97049819Y-94309285D02*
X96049819Y-94309285D01*
X96049819Y-94309285D02*
X96049819Y-93928333D01*
X96049819Y-93928333D02*
X96097438Y-93833095D01*
X96097438Y-93833095D02*
X96145057Y-93785476D01*
X96145057Y-93785476D02*
X96240295Y-93737857D01*
X96240295Y-93737857D02*
X96383152Y-93737857D01*
X96383152Y-93737857D02*
X96478390Y-93785476D01*
X96478390Y-93785476D02*
X96526009Y-93833095D01*
X96526009Y-93833095D02*
X96573628Y-93928333D01*
X96573628Y-93928333D02*
X96573628Y-94309285D01*
X97049819Y-92785476D02*
X97049819Y-93356904D01*
X97049819Y-93071190D02*
X96049819Y-93071190D01*
X96049819Y-93071190D02*
X96192676Y-93166428D01*
X96192676Y-93166428D02*
X96287914Y-93261666D01*
X96287914Y-93261666D02*
X96335533Y-93356904D01*
X96478390Y-92214047D02*
X96430771Y-92309285D01*
X96430771Y-92309285D02*
X96383152Y-92356904D01*
X96383152Y-92356904D02*
X96287914Y-92404523D01*
X96287914Y-92404523D02*
X96240295Y-92404523D01*
X96240295Y-92404523D02*
X96145057Y-92356904D01*
X96145057Y-92356904D02*
X96097438Y-92309285D01*
X96097438Y-92309285D02*
X96049819Y-92214047D01*
X96049819Y-92214047D02*
X96049819Y-92023571D01*
X96049819Y-92023571D02*
X96097438Y-91928333D01*
X96097438Y-91928333D02*
X96145057Y-91880714D01*
X96145057Y-91880714D02*
X96240295Y-91833095D01*
X96240295Y-91833095D02*
X96287914Y-91833095D01*
X96287914Y-91833095D02*
X96383152Y-91880714D01*
X96383152Y-91880714D02*
X96430771Y-91928333D01*
X96430771Y-91928333D02*
X96478390Y-92023571D01*
X96478390Y-92023571D02*
X96478390Y-92214047D01*
X96478390Y-92214047D02*
X96526009Y-92309285D01*
X96526009Y-92309285D02*
X96573628Y-92356904D01*
X96573628Y-92356904D02*
X96668866Y-92404523D01*
X96668866Y-92404523D02*
X96859342Y-92404523D01*
X96859342Y-92404523D02*
X96954580Y-92356904D01*
X96954580Y-92356904D02*
X97002200Y-92309285D01*
X97002200Y-92309285D02*
X97049819Y-92214047D01*
X97049819Y-92214047D02*
X97049819Y-92023571D01*
X97049819Y-92023571D02*
X97002200Y-91928333D01*
X97002200Y-91928333D02*
X96954580Y-91880714D01*
X96954580Y-91880714D02*
X96859342Y-91833095D01*
X96859342Y-91833095D02*
X96668866Y-91833095D01*
X96668866Y-91833095D02*
X96573628Y-91880714D01*
X96573628Y-91880714D02*
X96526009Y-91928333D01*
X96526009Y-91928333D02*
X96478390Y-92023571D01*
X85852142Y-118014580D02*
X85804523Y-118062200D01*
X85804523Y-118062200D02*
X85661666Y-118109819D01*
X85661666Y-118109819D02*
X85566428Y-118109819D01*
X85566428Y-118109819D02*
X85423571Y-118062200D01*
X85423571Y-118062200D02*
X85328333Y-117966961D01*
X85328333Y-117966961D02*
X85280714Y-117871723D01*
X85280714Y-117871723D02*
X85233095Y-117681247D01*
X85233095Y-117681247D02*
X85233095Y-117538390D01*
X85233095Y-117538390D02*
X85280714Y-117347914D01*
X85280714Y-117347914D02*
X85328333Y-117252676D01*
X85328333Y-117252676D02*
X85423571Y-117157438D01*
X85423571Y-117157438D02*
X85566428Y-117109819D01*
X85566428Y-117109819D02*
X85661666Y-117109819D01*
X85661666Y-117109819D02*
X85804523Y-117157438D01*
X85804523Y-117157438D02*
X85852142Y-117205057D01*
X86804523Y-118109819D02*
X86233095Y-118109819D01*
X86518809Y-118109819D02*
X86518809Y-117109819D01*
X86518809Y-117109819D02*
X86423571Y-117252676D01*
X86423571Y-117252676D02*
X86328333Y-117347914D01*
X86328333Y-117347914D02*
X86233095Y-117395533D01*
X87756904Y-118109819D02*
X87185476Y-118109819D01*
X87471190Y-118109819D02*
X87471190Y-117109819D01*
X87471190Y-117109819D02*
X87375952Y-117252676D01*
X87375952Y-117252676D02*
X87280714Y-117347914D01*
X87280714Y-117347914D02*
X87185476Y-117395533D01*
X100824819Y-99861666D02*
X100348628Y-100194999D01*
X100824819Y-100433094D02*
X99824819Y-100433094D01*
X99824819Y-100433094D02*
X99824819Y-100052142D01*
X99824819Y-100052142D02*
X99872438Y-99956904D01*
X99872438Y-99956904D02*
X99920057Y-99909285D01*
X99920057Y-99909285D02*
X100015295Y-99861666D01*
X100015295Y-99861666D02*
X100158152Y-99861666D01*
X100158152Y-99861666D02*
X100253390Y-99909285D01*
X100253390Y-99909285D02*
X100301009Y-99956904D01*
X100301009Y-99956904D02*
X100348628Y-100052142D01*
X100348628Y-100052142D02*
X100348628Y-100433094D01*
X100824819Y-99385475D02*
X100824819Y-99194999D01*
X100824819Y-99194999D02*
X100777200Y-99099761D01*
X100777200Y-99099761D02*
X100729580Y-99052142D01*
X100729580Y-99052142D02*
X100586723Y-98956904D01*
X100586723Y-98956904D02*
X100396247Y-98909285D01*
X100396247Y-98909285D02*
X100015295Y-98909285D01*
X100015295Y-98909285D02*
X99920057Y-98956904D01*
X99920057Y-98956904D02*
X99872438Y-99004523D01*
X99872438Y-99004523D02*
X99824819Y-99099761D01*
X99824819Y-99099761D02*
X99824819Y-99290237D01*
X99824819Y-99290237D02*
X99872438Y-99385475D01*
X99872438Y-99385475D02*
X99920057Y-99433094D01*
X99920057Y-99433094D02*
X100015295Y-99480713D01*
X100015295Y-99480713D02*
X100253390Y-99480713D01*
X100253390Y-99480713D02*
X100348628Y-99433094D01*
X100348628Y-99433094D02*
X100396247Y-99385475D01*
X100396247Y-99385475D02*
X100443866Y-99290237D01*
X100443866Y-99290237D02*
X100443866Y-99099761D01*
X100443866Y-99099761D02*
X100396247Y-99004523D01*
X100396247Y-99004523D02*
X100348628Y-98956904D01*
X100348628Y-98956904D02*
X100253390Y-98909285D01*
X175953333Y-76209580D02*
X175905714Y-76257200D01*
X175905714Y-76257200D02*
X175762857Y-76304819D01*
X175762857Y-76304819D02*
X175667619Y-76304819D01*
X175667619Y-76304819D02*
X175524762Y-76257200D01*
X175524762Y-76257200D02*
X175429524Y-76161961D01*
X175429524Y-76161961D02*
X175381905Y-76066723D01*
X175381905Y-76066723D02*
X175334286Y-75876247D01*
X175334286Y-75876247D02*
X175334286Y-75733390D01*
X175334286Y-75733390D02*
X175381905Y-75542914D01*
X175381905Y-75542914D02*
X175429524Y-75447676D01*
X175429524Y-75447676D02*
X175524762Y-75352438D01*
X175524762Y-75352438D02*
X175667619Y-75304819D01*
X175667619Y-75304819D02*
X175762857Y-75304819D01*
X175762857Y-75304819D02*
X175905714Y-75352438D01*
X175905714Y-75352438D02*
X175953333Y-75400057D01*
X176858095Y-75304819D02*
X176381905Y-75304819D01*
X176381905Y-75304819D02*
X176334286Y-75781009D01*
X176334286Y-75781009D02*
X176381905Y-75733390D01*
X176381905Y-75733390D02*
X176477143Y-75685771D01*
X176477143Y-75685771D02*
X176715238Y-75685771D01*
X176715238Y-75685771D02*
X176810476Y-75733390D01*
X176810476Y-75733390D02*
X176858095Y-75781009D01*
X176858095Y-75781009D02*
X176905714Y-75876247D01*
X176905714Y-75876247D02*
X176905714Y-76114342D01*
X176905714Y-76114342D02*
X176858095Y-76209580D01*
X176858095Y-76209580D02*
X176810476Y-76257200D01*
X176810476Y-76257200D02*
X176715238Y-76304819D01*
X176715238Y-76304819D02*
X176477143Y-76304819D01*
X176477143Y-76304819D02*
X176381905Y-76257200D01*
X176381905Y-76257200D02*
X176334286Y-76209580D01*
X107054819Y-93657857D02*
X106578628Y-93991190D01*
X107054819Y-94229285D02*
X106054819Y-94229285D01*
X106054819Y-94229285D02*
X106054819Y-93848333D01*
X106054819Y-93848333D02*
X106102438Y-93753095D01*
X106102438Y-93753095D02*
X106150057Y-93705476D01*
X106150057Y-93705476D02*
X106245295Y-93657857D01*
X106245295Y-93657857D02*
X106388152Y-93657857D01*
X106388152Y-93657857D02*
X106483390Y-93705476D01*
X106483390Y-93705476D02*
X106531009Y-93753095D01*
X106531009Y-93753095D02*
X106578628Y-93848333D01*
X106578628Y-93848333D02*
X106578628Y-94229285D01*
X106150057Y-93276904D02*
X106102438Y-93229285D01*
X106102438Y-93229285D02*
X106054819Y-93134047D01*
X106054819Y-93134047D02*
X106054819Y-92895952D01*
X106054819Y-92895952D02*
X106102438Y-92800714D01*
X106102438Y-92800714D02*
X106150057Y-92753095D01*
X106150057Y-92753095D02*
X106245295Y-92705476D01*
X106245295Y-92705476D02*
X106340533Y-92705476D01*
X106340533Y-92705476D02*
X106483390Y-92753095D01*
X106483390Y-92753095D02*
X107054819Y-93324523D01*
X107054819Y-93324523D02*
X107054819Y-92705476D01*
X106054819Y-91800714D02*
X106054819Y-92276904D01*
X106054819Y-92276904D02*
X106531009Y-92324523D01*
X106531009Y-92324523D02*
X106483390Y-92276904D01*
X106483390Y-92276904D02*
X106435771Y-92181666D01*
X106435771Y-92181666D02*
X106435771Y-91943571D01*
X106435771Y-91943571D02*
X106483390Y-91848333D01*
X106483390Y-91848333D02*
X106531009Y-91800714D01*
X106531009Y-91800714D02*
X106626247Y-91753095D01*
X106626247Y-91753095D02*
X106864342Y-91753095D01*
X106864342Y-91753095D02*
X106959580Y-91800714D01*
X106959580Y-91800714D02*
X107007200Y-91848333D01*
X107007200Y-91848333D02*
X107054819Y-91943571D01*
X107054819Y-91943571D02*
X107054819Y-92181666D01*
X107054819Y-92181666D02*
X107007200Y-92276904D01*
X107007200Y-92276904D02*
X106959580Y-92324523D01*
X83234819Y-99897857D02*
X82758628Y-100231190D01*
X83234819Y-100469285D02*
X82234819Y-100469285D01*
X82234819Y-100469285D02*
X82234819Y-100088333D01*
X82234819Y-100088333D02*
X82282438Y-99993095D01*
X82282438Y-99993095D02*
X82330057Y-99945476D01*
X82330057Y-99945476D02*
X82425295Y-99897857D01*
X82425295Y-99897857D02*
X82568152Y-99897857D01*
X82568152Y-99897857D02*
X82663390Y-99945476D01*
X82663390Y-99945476D02*
X82711009Y-99993095D01*
X82711009Y-99993095D02*
X82758628Y-100088333D01*
X82758628Y-100088333D02*
X82758628Y-100469285D01*
X83234819Y-98945476D02*
X83234819Y-99516904D01*
X83234819Y-99231190D02*
X82234819Y-99231190D01*
X82234819Y-99231190D02*
X82377676Y-99326428D01*
X82377676Y-99326428D02*
X82472914Y-99421666D01*
X82472914Y-99421666D02*
X82520533Y-99516904D01*
X83234819Y-97993095D02*
X83234819Y-98564523D01*
X83234819Y-98278809D02*
X82234819Y-98278809D01*
X82234819Y-98278809D02*
X82377676Y-98374047D01*
X82377676Y-98374047D02*
X82472914Y-98469285D01*
X82472914Y-98469285D02*
X82520533Y-98564523D01*
X223126666Y-70054819D02*
X223126666Y-70769104D01*
X223126666Y-70769104D02*
X223079047Y-70911961D01*
X223079047Y-70911961D02*
X222983809Y-71007200D01*
X222983809Y-71007200D02*
X222840952Y-71054819D01*
X222840952Y-71054819D02*
X222745714Y-71054819D01*
X224126666Y-71054819D02*
X223555238Y-71054819D01*
X223840952Y-71054819D02*
X223840952Y-70054819D01*
X223840952Y-70054819D02*
X223745714Y-70197676D01*
X223745714Y-70197676D02*
X223650476Y-70292914D01*
X223650476Y-70292914D02*
X223555238Y-70340533D01*
X72224819Y-53923333D02*
X72939104Y-53923333D01*
X72939104Y-53923333D02*
X73081961Y-53970952D01*
X73081961Y-53970952D02*
X73177200Y-54066190D01*
X73177200Y-54066190D02*
X73224819Y-54209047D01*
X73224819Y-54209047D02*
X73224819Y-54304285D01*
X72224819Y-53542380D02*
X72224819Y-52923333D01*
X72224819Y-52923333D02*
X72605771Y-53256666D01*
X72605771Y-53256666D02*
X72605771Y-53113809D01*
X72605771Y-53113809D02*
X72653390Y-53018571D01*
X72653390Y-53018571D02*
X72701009Y-52970952D01*
X72701009Y-52970952D02*
X72796247Y-52923333D01*
X72796247Y-52923333D02*
X73034342Y-52923333D01*
X73034342Y-52923333D02*
X73129580Y-52970952D01*
X73129580Y-52970952D02*
X73177200Y-53018571D01*
X73177200Y-53018571D02*
X73224819Y-53113809D01*
X73224819Y-53113809D02*
X73224819Y-53399523D01*
X73224819Y-53399523D02*
X73177200Y-53494761D01*
X73177200Y-53494761D02*
X73129580Y-53542380D01*
X181991905Y-65229819D02*
X181991905Y-64229819D01*
X181991905Y-64229819D02*
X182230000Y-64229819D01*
X182230000Y-64229819D02*
X182372857Y-64277438D01*
X182372857Y-64277438D02*
X182468095Y-64372676D01*
X182468095Y-64372676D02*
X182515714Y-64467914D01*
X182515714Y-64467914D02*
X182563333Y-64658390D01*
X182563333Y-64658390D02*
X182563333Y-64801247D01*
X182563333Y-64801247D02*
X182515714Y-64991723D01*
X182515714Y-64991723D02*
X182468095Y-65086961D01*
X182468095Y-65086961D02*
X182372857Y-65182200D01*
X182372857Y-65182200D02*
X182230000Y-65229819D01*
X182230000Y-65229819D02*
X181991905Y-65229819D01*
X183515714Y-65229819D02*
X182944286Y-65229819D01*
X183230000Y-65229819D02*
X183230000Y-64229819D01*
X183230000Y-64229819D02*
X183134762Y-64372676D01*
X183134762Y-64372676D02*
X183039524Y-64467914D01*
X183039524Y-64467914D02*
X182944286Y-64515533D01*
X102029819Y-93737857D02*
X101553628Y-94071190D01*
X102029819Y-94309285D02*
X101029819Y-94309285D01*
X101029819Y-94309285D02*
X101029819Y-93928333D01*
X101029819Y-93928333D02*
X101077438Y-93833095D01*
X101077438Y-93833095D02*
X101125057Y-93785476D01*
X101125057Y-93785476D02*
X101220295Y-93737857D01*
X101220295Y-93737857D02*
X101363152Y-93737857D01*
X101363152Y-93737857D02*
X101458390Y-93785476D01*
X101458390Y-93785476D02*
X101506009Y-93833095D01*
X101506009Y-93833095D02*
X101553628Y-93928333D01*
X101553628Y-93928333D02*
X101553628Y-94309285D01*
X102029819Y-92785476D02*
X102029819Y-93356904D01*
X102029819Y-93071190D02*
X101029819Y-93071190D01*
X101029819Y-93071190D02*
X101172676Y-93166428D01*
X101172676Y-93166428D02*
X101267914Y-93261666D01*
X101267914Y-93261666D02*
X101315533Y-93356904D01*
X102029819Y-92309285D02*
X102029819Y-92118809D01*
X102029819Y-92118809D02*
X101982200Y-92023571D01*
X101982200Y-92023571D02*
X101934580Y-91975952D01*
X101934580Y-91975952D02*
X101791723Y-91880714D01*
X101791723Y-91880714D02*
X101601247Y-91833095D01*
X101601247Y-91833095D02*
X101220295Y-91833095D01*
X101220295Y-91833095D02*
X101125057Y-91880714D01*
X101125057Y-91880714D02*
X101077438Y-91928333D01*
X101077438Y-91928333D02*
X101029819Y-92023571D01*
X101029819Y-92023571D02*
X101029819Y-92214047D01*
X101029819Y-92214047D02*
X101077438Y-92309285D01*
X101077438Y-92309285D02*
X101125057Y-92356904D01*
X101125057Y-92356904D02*
X101220295Y-92404523D01*
X101220295Y-92404523D02*
X101458390Y-92404523D01*
X101458390Y-92404523D02*
X101553628Y-92356904D01*
X101553628Y-92356904D02*
X101601247Y-92309285D01*
X101601247Y-92309285D02*
X101648866Y-92214047D01*
X101648866Y-92214047D02*
X101648866Y-92023571D01*
X101648866Y-92023571D02*
X101601247Y-91928333D01*
X101601247Y-91928333D02*
X101553628Y-91880714D01*
X101553628Y-91880714D02*
X101458390Y-91833095D01*
X145158095Y-70984819D02*
X145158095Y-71794342D01*
X145158095Y-71794342D02*
X145205714Y-71889580D01*
X145205714Y-71889580D02*
X145253333Y-71937200D01*
X145253333Y-71937200D02*
X145348571Y-71984819D01*
X145348571Y-71984819D02*
X145539047Y-71984819D01*
X145539047Y-71984819D02*
X145634285Y-71937200D01*
X145634285Y-71937200D02*
X145681904Y-71889580D01*
X145681904Y-71889580D02*
X145729523Y-71794342D01*
X145729523Y-71794342D02*
X145729523Y-70984819D01*
X146158095Y-71080057D02*
X146205714Y-71032438D01*
X146205714Y-71032438D02*
X146300952Y-70984819D01*
X146300952Y-70984819D02*
X146539047Y-70984819D01*
X146539047Y-70984819D02*
X146634285Y-71032438D01*
X146634285Y-71032438D02*
X146681904Y-71080057D01*
X146681904Y-71080057D02*
X146729523Y-71175295D01*
X146729523Y-71175295D02*
X146729523Y-71270533D01*
X146729523Y-71270533D02*
X146681904Y-71413390D01*
X146681904Y-71413390D02*
X146110476Y-71984819D01*
X146110476Y-71984819D02*
X146729523Y-71984819D01*
X60959580Y-103642857D02*
X61007200Y-103690476D01*
X61007200Y-103690476D02*
X61054819Y-103833333D01*
X61054819Y-103833333D02*
X61054819Y-103928571D01*
X61054819Y-103928571D02*
X61007200Y-104071428D01*
X61007200Y-104071428D02*
X60911961Y-104166666D01*
X60911961Y-104166666D02*
X60816723Y-104214285D01*
X60816723Y-104214285D02*
X60626247Y-104261904D01*
X60626247Y-104261904D02*
X60483390Y-104261904D01*
X60483390Y-104261904D02*
X60292914Y-104214285D01*
X60292914Y-104214285D02*
X60197676Y-104166666D01*
X60197676Y-104166666D02*
X60102438Y-104071428D01*
X60102438Y-104071428D02*
X60054819Y-103928571D01*
X60054819Y-103928571D02*
X60054819Y-103833333D01*
X60054819Y-103833333D02*
X60102438Y-103690476D01*
X60102438Y-103690476D02*
X60150057Y-103642857D01*
X61054819Y-102690476D02*
X61054819Y-103261904D01*
X61054819Y-102976190D02*
X60054819Y-102976190D01*
X60054819Y-102976190D02*
X60197676Y-103071428D01*
X60197676Y-103071428D02*
X60292914Y-103166666D01*
X60292914Y-103166666D02*
X60340533Y-103261904D01*
X60150057Y-102309523D02*
X60102438Y-102261904D01*
X60102438Y-102261904D02*
X60054819Y-102166666D01*
X60054819Y-102166666D02*
X60054819Y-101928571D01*
X60054819Y-101928571D02*
X60102438Y-101833333D01*
X60102438Y-101833333D02*
X60150057Y-101785714D01*
X60150057Y-101785714D02*
X60245295Y-101738095D01*
X60245295Y-101738095D02*
X60340533Y-101738095D01*
X60340533Y-101738095D02*
X60483390Y-101785714D01*
X60483390Y-101785714D02*
X61054819Y-102357142D01*
X61054819Y-102357142D02*
X61054819Y-101738095D01*
X116974819Y-93687857D02*
X116498628Y-94021190D01*
X116974819Y-94259285D02*
X115974819Y-94259285D01*
X115974819Y-94259285D02*
X115974819Y-93878333D01*
X115974819Y-93878333D02*
X116022438Y-93783095D01*
X116022438Y-93783095D02*
X116070057Y-93735476D01*
X116070057Y-93735476D02*
X116165295Y-93687857D01*
X116165295Y-93687857D02*
X116308152Y-93687857D01*
X116308152Y-93687857D02*
X116403390Y-93735476D01*
X116403390Y-93735476D02*
X116451009Y-93783095D01*
X116451009Y-93783095D02*
X116498628Y-93878333D01*
X116498628Y-93878333D02*
X116498628Y-94259285D01*
X116070057Y-93306904D02*
X116022438Y-93259285D01*
X116022438Y-93259285D02*
X115974819Y-93164047D01*
X115974819Y-93164047D02*
X115974819Y-92925952D01*
X115974819Y-92925952D02*
X116022438Y-92830714D01*
X116022438Y-92830714D02*
X116070057Y-92783095D01*
X116070057Y-92783095D02*
X116165295Y-92735476D01*
X116165295Y-92735476D02*
X116260533Y-92735476D01*
X116260533Y-92735476D02*
X116403390Y-92783095D01*
X116403390Y-92783095D02*
X116974819Y-93354523D01*
X116974819Y-93354523D02*
X116974819Y-92735476D01*
X116974819Y-91783095D02*
X116974819Y-92354523D01*
X116974819Y-92068809D02*
X115974819Y-92068809D01*
X115974819Y-92068809D02*
X116117676Y-92164047D01*
X116117676Y-92164047D02*
X116212914Y-92259285D01*
X116212914Y-92259285D02*
X116260533Y-92354523D01*
X70404819Y-115592857D02*
X69928628Y-115926190D01*
X70404819Y-116164285D02*
X69404819Y-116164285D01*
X69404819Y-116164285D02*
X69404819Y-115783333D01*
X69404819Y-115783333D02*
X69452438Y-115688095D01*
X69452438Y-115688095D02*
X69500057Y-115640476D01*
X69500057Y-115640476D02*
X69595295Y-115592857D01*
X69595295Y-115592857D02*
X69738152Y-115592857D01*
X69738152Y-115592857D02*
X69833390Y-115640476D01*
X69833390Y-115640476D02*
X69881009Y-115688095D01*
X69881009Y-115688095D02*
X69928628Y-115783333D01*
X69928628Y-115783333D02*
X69928628Y-116164285D01*
X69404819Y-115259523D02*
X69404819Y-114640476D01*
X69404819Y-114640476D02*
X69785771Y-114973809D01*
X69785771Y-114973809D02*
X69785771Y-114830952D01*
X69785771Y-114830952D02*
X69833390Y-114735714D01*
X69833390Y-114735714D02*
X69881009Y-114688095D01*
X69881009Y-114688095D02*
X69976247Y-114640476D01*
X69976247Y-114640476D02*
X70214342Y-114640476D01*
X70214342Y-114640476D02*
X70309580Y-114688095D01*
X70309580Y-114688095D02*
X70357200Y-114735714D01*
X70357200Y-114735714D02*
X70404819Y-114830952D01*
X70404819Y-114830952D02*
X70404819Y-115116666D01*
X70404819Y-115116666D02*
X70357200Y-115211904D01*
X70357200Y-115211904D02*
X70309580Y-115259523D01*
X69500057Y-114259523D02*
X69452438Y-114211904D01*
X69452438Y-114211904D02*
X69404819Y-114116666D01*
X69404819Y-114116666D02*
X69404819Y-113878571D01*
X69404819Y-113878571D02*
X69452438Y-113783333D01*
X69452438Y-113783333D02*
X69500057Y-113735714D01*
X69500057Y-113735714D02*
X69595295Y-113688095D01*
X69595295Y-113688095D02*
X69690533Y-113688095D01*
X69690533Y-113688095D02*
X69833390Y-113735714D01*
X69833390Y-113735714D02*
X70404819Y-114307142D01*
X70404819Y-114307142D02*
X70404819Y-113688095D01*
X222659580Y-96042857D02*
X222707200Y-96090476D01*
X222707200Y-96090476D02*
X222754819Y-96233333D01*
X222754819Y-96233333D02*
X222754819Y-96328571D01*
X222754819Y-96328571D02*
X222707200Y-96471428D01*
X222707200Y-96471428D02*
X222611961Y-96566666D01*
X222611961Y-96566666D02*
X222516723Y-96614285D01*
X222516723Y-96614285D02*
X222326247Y-96661904D01*
X222326247Y-96661904D02*
X222183390Y-96661904D01*
X222183390Y-96661904D02*
X221992914Y-96614285D01*
X221992914Y-96614285D02*
X221897676Y-96566666D01*
X221897676Y-96566666D02*
X221802438Y-96471428D01*
X221802438Y-96471428D02*
X221754819Y-96328571D01*
X221754819Y-96328571D02*
X221754819Y-96233333D01*
X221754819Y-96233333D02*
X221802438Y-96090476D01*
X221802438Y-96090476D02*
X221850057Y-96042857D01*
X222754819Y-95090476D02*
X222754819Y-95661904D01*
X222754819Y-95376190D02*
X221754819Y-95376190D01*
X221754819Y-95376190D02*
X221897676Y-95471428D01*
X221897676Y-95471428D02*
X221992914Y-95566666D01*
X221992914Y-95566666D02*
X222040533Y-95661904D01*
X221754819Y-94757142D02*
X221754819Y-94138095D01*
X221754819Y-94138095D02*
X222135771Y-94471428D01*
X222135771Y-94471428D02*
X222135771Y-94328571D01*
X222135771Y-94328571D02*
X222183390Y-94233333D01*
X222183390Y-94233333D02*
X222231009Y-94185714D01*
X222231009Y-94185714D02*
X222326247Y-94138095D01*
X222326247Y-94138095D02*
X222564342Y-94138095D01*
X222564342Y-94138095D02*
X222659580Y-94185714D01*
X222659580Y-94185714D02*
X222707200Y-94233333D01*
X222707200Y-94233333D02*
X222754819Y-94328571D01*
X222754819Y-94328571D02*
X222754819Y-94614285D01*
X222754819Y-94614285D02*
X222707200Y-94709523D01*
X222707200Y-94709523D02*
X222659580Y-94757142D01*
X67864819Y-121742857D02*
X67388628Y-122076190D01*
X67864819Y-122314285D02*
X66864819Y-122314285D01*
X66864819Y-122314285D02*
X66864819Y-121933333D01*
X66864819Y-121933333D02*
X66912438Y-121838095D01*
X66912438Y-121838095D02*
X66960057Y-121790476D01*
X66960057Y-121790476D02*
X67055295Y-121742857D01*
X67055295Y-121742857D02*
X67198152Y-121742857D01*
X67198152Y-121742857D02*
X67293390Y-121790476D01*
X67293390Y-121790476D02*
X67341009Y-121838095D01*
X67341009Y-121838095D02*
X67388628Y-121933333D01*
X67388628Y-121933333D02*
X67388628Y-122314285D01*
X66960057Y-121361904D02*
X66912438Y-121314285D01*
X66912438Y-121314285D02*
X66864819Y-121219047D01*
X66864819Y-121219047D02*
X66864819Y-120980952D01*
X66864819Y-120980952D02*
X66912438Y-120885714D01*
X66912438Y-120885714D02*
X66960057Y-120838095D01*
X66960057Y-120838095D02*
X67055295Y-120790476D01*
X67055295Y-120790476D02*
X67150533Y-120790476D01*
X67150533Y-120790476D02*
X67293390Y-120838095D01*
X67293390Y-120838095D02*
X67864819Y-121409523D01*
X67864819Y-121409523D02*
X67864819Y-120790476D01*
X67293390Y-120219047D02*
X67245771Y-120314285D01*
X67245771Y-120314285D02*
X67198152Y-120361904D01*
X67198152Y-120361904D02*
X67102914Y-120409523D01*
X67102914Y-120409523D02*
X67055295Y-120409523D01*
X67055295Y-120409523D02*
X66960057Y-120361904D01*
X66960057Y-120361904D02*
X66912438Y-120314285D01*
X66912438Y-120314285D02*
X66864819Y-120219047D01*
X66864819Y-120219047D02*
X66864819Y-120028571D01*
X66864819Y-120028571D02*
X66912438Y-119933333D01*
X66912438Y-119933333D02*
X66960057Y-119885714D01*
X66960057Y-119885714D02*
X67055295Y-119838095D01*
X67055295Y-119838095D02*
X67102914Y-119838095D01*
X67102914Y-119838095D02*
X67198152Y-119885714D01*
X67198152Y-119885714D02*
X67245771Y-119933333D01*
X67245771Y-119933333D02*
X67293390Y-120028571D01*
X67293390Y-120028571D02*
X67293390Y-120219047D01*
X67293390Y-120219047D02*
X67341009Y-120314285D01*
X67341009Y-120314285D02*
X67388628Y-120361904D01*
X67388628Y-120361904D02*
X67483866Y-120409523D01*
X67483866Y-120409523D02*
X67674342Y-120409523D01*
X67674342Y-120409523D02*
X67769580Y-120361904D01*
X67769580Y-120361904D02*
X67817200Y-120314285D01*
X67817200Y-120314285D02*
X67864819Y-120219047D01*
X67864819Y-120219047D02*
X67864819Y-120028571D01*
X67864819Y-120028571D02*
X67817200Y-119933333D01*
X67817200Y-119933333D02*
X67769580Y-119885714D01*
X67769580Y-119885714D02*
X67674342Y-119838095D01*
X67674342Y-119838095D02*
X67483866Y-119838095D01*
X67483866Y-119838095D02*
X67388628Y-119885714D01*
X67388628Y-119885714D02*
X67341009Y-119933333D01*
X67341009Y-119933333D02*
X67293390Y-120028571D01*
X110264819Y-93647857D02*
X109788628Y-93981190D01*
X110264819Y-94219285D02*
X109264819Y-94219285D01*
X109264819Y-94219285D02*
X109264819Y-93838333D01*
X109264819Y-93838333D02*
X109312438Y-93743095D01*
X109312438Y-93743095D02*
X109360057Y-93695476D01*
X109360057Y-93695476D02*
X109455295Y-93647857D01*
X109455295Y-93647857D02*
X109598152Y-93647857D01*
X109598152Y-93647857D02*
X109693390Y-93695476D01*
X109693390Y-93695476D02*
X109741009Y-93743095D01*
X109741009Y-93743095D02*
X109788628Y-93838333D01*
X109788628Y-93838333D02*
X109788628Y-94219285D01*
X109360057Y-93266904D02*
X109312438Y-93219285D01*
X109312438Y-93219285D02*
X109264819Y-93124047D01*
X109264819Y-93124047D02*
X109264819Y-92885952D01*
X109264819Y-92885952D02*
X109312438Y-92790714D01*
X109312438Y-92790714D02*
X109360057Y-92743095D01*
X109360057Y-92743095D02*
X109455295Y-92695476D01*
X109455295Y-92695476D02*
X109550533Y-92695476D01*
X109550533Y-92695476D02*
X109693390Y-92743095D01*
X109693390Y-92743095D02*
X110264819Y-93314523D01*
X110264819Y-93314523D02*
X110264819Y-92695476D01*
X109264819Y-92076428D02*
X109264819Y-91981190D01*
X109264819Y-91981190D02*
X109312438Y-91885952D01*
X109312438Y-91885952D02*
X109360057Y-91838333D01*
X109360057Y-91838333D02*
X109455295Y-91790714D01*
X109455295Y-91790714D02*
X109645771Y-91743095D01*
X109645771Y-91743095D02*
X109883866Y-91743095D01*
X109883866Y-91743095D02*
X110074342Y-91790714D01*
X110074342Y-91790714D02*
X110169580Y-91838333D01*
X110169580Y-91838333D02*
X110217200Y-91885952D01*
X110217200Y-91885952D02*
X110264819Y-91981190D01*
X110264819Y-91981190D02*
X110264819Y-92076428D01*
X110264819Y-92076428D02*
X110217200Y-92171666D01*
X110217200Y-92171666D02*
X110169580Y-92219285D01*
X110169580Y-92219285D02*
X110074342Y-92266904D01*
X110074342Y-92266904D02*
X109883866Y-92314523D01*
X109883866Y-92314523D02*
X109645771Y-92314523D01*
X109645771Y-92314523D02*
X109455295Y-92266904D01*
X109455295Y-92266904D02*
X109360057Y-92219285D01*
X109360057Y-92219285D02*
X109312438Y-92171666D01*
X109312438Y-92171666D02*
X109264819Y-92076428D01*
X201501905Y-80464819D02*
X201501905Y-79464819D01*
X201501905Y-79464819D02*
X201740000Y-79464819D01*
X201740000Y-79464819D02*
X201882857Y-79512438D01*
X201882857Y-79512438D02*
X201978095Y-79607676D01*
X201978095Y-79607676D02*
X202025714Y-79702914D01*
X202025714Y-79702914D02*
X202073333Y-79893390D01*
X202073333Y-79893390D02*
X202073333Y-80036247D01*
X202073333Y-80036247D02*
X202025714Y-80226723D01*
X202025714Y-80226723D02*
X201978095Y-80321961D01*
X201978095Y-80321961D02*
X201882857Y-80417200D01*
X201882857Y-80417200D02*
X201740000Y-80464819D01*
X201740000Y-80464819D02*
X201501905Y-80464819D01*
X202930476Y-79798152D02*
X202930476Y-80464819D01*
X202692381Y-79417200D02*
X202454286Y-80131485D01*
X202454286Y-80131485D02*
X203073333Y-80131485D01*
X87794819Y-93677857D02*
X87318628Y-94011190D01*
X87794819Y-94249285D02*
X86794819Y-94249285D01*
X86794819Y-94249285D02*
X86794819Y-93868333D01*
X86794819Y-93868333D02*
X86842438Y-93773095D01*
X86842438Y-93773095D02*
X86890057Y-93725476D01*
X86890057Y-93725476D02*
X86985295Y-93677857D01*
X86985295Y-93677857D02*
X87128152Y-93677857D01*
X87128152Y-93677857D02*
X87223390Y-93725476D01*
X87223390Y-93725476D02*
X87271009Y-93773095D01*
X87271009Y-93773095D02*
X87318628Y-93868333D01*
X87318628Y-93868333D02*
X87318628Y-94249285D01*
X87794819Y-92725476D02*
X87794819Y-93296904D01*
X87794819Y-93011190D02*
X86794819Y-93011190D01*
X86794819Y-93011190D02*
X86937676Y-93106428D01*
X86937676Y-93106428D02*
X87032914Y-93201666D01*
X87032914Y-93201666D02*
X87080533Y-93296904D01*
X86794819Y-92392142D02*
X86794819Y-91725476D01*
X86794819Y-91725476D02*
X87794819Y-92154047D01*
X210654819Y-92502857D02*
X210178628Y-92836190D01*
X210654819Y-93074285D02*
X209654819Y-93074285D01*
X209654819Y-93074285D02*
X209654819Y-92693333D01*
X209654819Y-92693333D02*
X209702438Y-92598095D01*
X209702438Y-92598095D02*
X209750057Y-92550476D01*
X209750057Y-92550476D02*
X209845295Y-92502857D01*
X209845295Y-92502857D02*
X209988152Y-92502857D01*
X209988152Y-92502857D02*
X210083390Y-92550476D01*
X210083390Y-92550476D02*
X210131009Y-92598095D01*
X210131009Y-92598095D02*
X210178628Y-92693333D01*
X210178628Y-92693333D02*
X210178628Y-93074285D01*
X209654819Y-92169523D02*
X209654819Y-91550476D01*
X209654819Y-91550476D02*
X210035771Y-91883809D01*
X210035771Y-91883809D02*
X210035771Y-91740952D01*
X210035771Y-91740952D02*
X210083390Y-91645714D01*
X210083390Y-91645714D02*
X210131009Y-91598095D01*
X210131009Y-91598095D02*
X210226247Y-91550476D01*
X210226247Y-91550476D02*
X210464342Y-91550476D01*
X210464342Y-91550476D02*
X210559580Y-91598095D01*
X210559580Y-91598095D02*
X210607200Y-91645714D01*
X210607200Y-91645714D02*
X210654819Y-91740952D01*
X210654819Y-91740952D02*
X210654819Y-92026666D01*
X210654819Y-92026666D02*
X210607200Y-92121904D01*
X210607200Y-92121904D02*
X210559580Y-92169523D01*
X209988152Y-90693333D02*
X210654819Y-90693333D01*
X209607200Y-90931428D02*
X210321485Y-91169523D01*
X210321485Y-91169523D02*
X210321485Y-90550476D01*
X98782142Y-117997080D02*
X98734523Y-118044700D01*
X98734523Y-118044700D02*
X98591666Y-118092319D01*
X98591666Y-118092319D02*
X98496428Y-118092319D01*
X98496428Y-118092319D02*
X98353571Y-118044700D01*
X98353571Y-118044700D02*
X98258333Y-117949461D01*
X98258333Y-117949461D02*
X98210714Y-117854223D01*
X98210714Y-117854223D02*
X98163095Y-117663747D01*
X98163095Y-117663747D02*
X98163095Y-117520890D01*
X98163095Y-117520890D02*
X98210714Y-117330414D01*
X98210714Y-117330414D02*
X98258333Y-117235176D01*
X98258333Y-117235176D02*
X98353571Y-117139938D01*
X98353571Y-117139938D02*
X98496428Y-117092319D01*
X98496428Y-117092319D02*
X98591666Y-117092319D01*
X98591666Y-117092319D02*
X98734523Y-117139938D01*
X98734523Y-117139938D02*
X98782142Y-117187557D01*
X99734523Y-118092319D02*
X99163095Y-118092319D01*
X99448809Y-118092319D02*
X99448809Y-117092319D01*
X99448809Y-117092319D02*
X99353571Y-117235176D01*
X99353571Y-117235176D02*
X99258333Y-117330414D01*
X99258333Y-117330414D02*
X99163095Y-117378033D01*
X100353571Y-117092319D02*
X100448809Y-117092319D01*
X100448809Y-117092319D02*
X100544047Y-117139938D01*
X100544047Y-117139938D02*
X100591666Y-117187557D01*
X100591666Y-117187557D02*
X100639285Y-117282795D01*
X100639285Y-117282795D02*
X100686904Y-117473271D01*
X100686904Y-117473271D02*
X100686904Y-117711366D01*
X100686904Y-117711366D02*
X100639285Y-117901842D01*
X100639285Y-117901842D02*
X100591666Y-117997080D01*
X100591666Y-117997080D02*
X100544047Y-118044700D01*
X100544047Y-118044700D02*
X100448809Y-118092319D01*
X100448809Y-118092319D02*
X100353571Y-118092319D01*
X100353571Y-118092319D02*
X100258333Y-118044700D01*
X100258333Y-118044700D02*
X100210714Y-117997080D01*
X100210714Y-117997080D02*
X100163095Y-117901842D01*
X100163095Y-117901842D02*
X100115476Y-117711366D01*
X100115476Y-117711366D02*
X100115476Y-117473271D01*
X100115476Y-117473271D02*
X100163095Y-117282795D01*
X100163095Y-117282795D02*
X100210714Y-117187557D01*
X100210714Y-117187557D02*
X100258333Y-117139938D01*
X100258333Y-117139938D02*
X100353571Y-117092319D01*
X113394819Y-93627857D02*
X112918628Y-93961190D01*
X113394819Y-94199285D02*
X112394819Y-94199285D01*
X112394819Y-94199285D02*
X112394819Y-93818333D01*
X112394819Y-93818333D02*
X112442438Y-93723095D01*
X112442438Y-93723095D02*
X112490057Y-93675476D01*
X112490057Y-93675476D02*
X112585295Y-93627857D01*
X112585295Y-93627857D02*
X112728152Y-93627857D01*
X112728152Y-93627857D02*
X112823390Y-93675476D01*
X112823390Y-93675476D02*
X112871009Y-93723095D01*
X112871009Y-93723095D02*
X112918628Y-93818333D01*
X112918628Y-93818333D02*
X112918628Y-94199285D01*
X113394819Y-92675476D02*
X113394819Y-93246904D01*
X113394819Y-92961190D02*
X112394819Y-92961190D01*
X112394819Y-92961190D02*
X112537676Y-93056428D01*
X112537676Y-93056428D02*
X112632914Y-93151666D01*
X112632914Y-93151666D02*
X112680533Y-93246904D01*
X112394819Y-91770714D02*
X112394819Y-92246904D01*
X112394819Y-92246904D02*
X112871009Y-92294523D01*
X112871009Y-92294523D02*
X112823390Y-92246904D01*
X112823390Y-92246904D02*
X112775771Y-92151666D01*
X112775771Y-92151666D02*
X112775771Y-91913571D01*
X112775771Y-91913571D02*
X112823390Y-91818333D01*
X112823390Y-91818333D02*
X112871009Y-91770714D01*
X112871009Y-91770714D02*
X112966247Y-91723095D01*
X112966247Y-91723095D02*
X113204342Y-91723095D01*
X113204342Y-91723095D02*
X113299580Y-91770714D01*
X113299580Y-91770714D02*
X113347200Y-91818333D01*
X113347200Y-91818333D02*
X113394819Y-91913571D01*
X113394819Y-91913571D02*
X113394819Y-92151666D01*
X113394819Y-92151666D02*
X113347200Y-92246904D01*
X113347200Y-92246904D02*
X113299580Y-92294523D01*
X84824819Y-93697857D02*
X84348628Y-94031190D01*
X84824819Y-94269285D02*
X83824819Y-94269285D01*
X83824819Y-94269285D02*
X83824819Y-93888333D01*
X83824819Y-93888333D02*
X83872438Y-93793095D01*
X83872438Y-93793095D02*
X83920057Y-93745476D01*
X83920057Y-93745476D02*
X84015295Y-93697857D01*
X84015295Y-93697857D02*
X84158152Y-93697857D01*
X84158152Y-93697857D02*
X84253390Y-93745476D01*
X84253390Y-93745476D02*
X84301009Y-93793095D01*
X84301009Y-93793095D02*
X84348628Y-93888333D01*
X84348628Y-93888333D02*
X84348628Y-94269285D01*
X83920057Y-93316904D02*
X83872438Y-93269285D01*
X83872438Y-93269285D02*
X83824819Y-93174047D01*
X83824819Y-93174047D02*
X83824819Y-92935952D01*
X83824819Y-92935952D02*
X83872438Y-92840714D01*
X83872438Y-92840714D02*
X83920057Y-92793095D01*
X83920057Y-92793095D02*
X84015295Y-92745476D01*
X84015295Y-92745476D02*
X84110533Y-92745476D01*
X84110533Y-92745476D02*
X84253390Y-92793095D01*
X84253390Y-92793095D02*
X84824819Y-93364523D01*
X84824819Y-93364523D02*
X84824819Y-92745476D01*
X83920057Y-92364523D02*
X83872438Y-92316904D01*
X83872438Y-92316904D02*
X83824819Y-92221666D01*
X83824819Y-92221666D02*
X83824819Y-91983571D01*
X83824819Y-91983571D02*
X83872438Y-91888333D01*
X83872438Y-91888333D02*
X83920057Y-91840714D01*
X83920057Y-91840714D02*
X84015295Y-91793095D01*
X84015295Y-91793095D02*
X84110533Y-91793095D01*
X84110533Y-91793095D02*
X84253390Y-91840714D01*
X84253390Y-91840714D02*
X84824819Y-92412142D01*
X84824819Y-92412142D02*
X84824819Y-91793095D01*
X61500057Y-108545238D02*
X61452438Y-108640476D01*
X61452438Y-108640476D02*
X61357200Y-108735714D01*
X61357200Y-108735714D02*
X61214342Y-108878571D01*
X61214342Y-108878571D02*
X61166723Y-108973809D01*
X61166723Y-108973809D02*
X61166723Y-109069047D01*
X61404819Y-109021428D02*
X61357200Y-109116666D01*
X61357200Y-109116666D02*
X61261961Y-109211904D01*
X61261961Y-109211904D02*
X61071485Y-109259523D01*
X61071485Y-109259523D02*
X60738152Y-109259523D01*
X60738152Y-109259523D02*
X60547676Y-109211904D01*
X60547676Y-109211904D02*
X60452438Y-109116666D01*
X60452438Y-109116666D02*
X60404819Y-109021428D01*
X60404819Y-109021428D02*
X60404819Y-108830952D01*
X60404819Y-108830952D02*
X60452438Y-108735714D01*
X60452438Y-108735714D02*
X60547676Y-108640476D01*
X60547676Y-108640476D02*
X60738152Y-108592857D01*
X60738152Y-108592857D02*
X61071485Y-108592857D01*
X61071485Y-108592857D02*
X61261961Y-108640476D01*
X61261961Y-108640476D02*
X61357200Y-108735714D01*
X61357200Y-108735714D02*
X61404819Y-108830952D01*
X61404819Y-108830952D02*
X61404819Y-109021428D01*
X60404819Y-107735714D02*
X60404819Y-107926190D01*
X60404819Y-107926190D02*
X60452438Y-108021428D01*
X60452438Y-108021428D02*
X60500057Y-108069047D01*
X60500057Y-108069047D02*
X60642914Y-108164285D01*
X60642914Y-108164285D02*
X60833390Y-108211904D01*
X60833390Y-108211904D02*
X61214342Y-108211904D01*
X61214342Y-108211904D02*
X61309580Y-108164285D01*
X61309580Y-108164285D02*
X61357200Y-108116666D01*
X61357200Y-108116666D02*
X61404819Y-108021428D01*
X61404819Y-108021428D02*
X61404819Y-107830952D01*
X61404819Y-107830952D02*
X61357200Y-107735714D01*
X61357200Y-107735714D02*
X61309580Y-107688095D01*
X61309580Y-107688095D02*
X61214342Y-107640476D01*
X61214342Y-107640476D02*
X60976247Y-107640476D01*
X60976247Y-107640476D02*
X60881009Y-107688095D01*
X60881009Y-107688095D02*
X60833390Y-107735714D01*
X60833390Y-107735714D02*
X60785771Y-107830952D01*
X60785771Y-107830952D02*
X60785771Y-108021428D01*
X60785771Y-108021428D02*
X60833390Y-108116666D01*
X60833390Y-108116666D02*
X60881009Y-108164285D01*
X60881009Y-108164285D02*
X60976247Y-108211904D01*
X199766666Y-75456819D02*
X199766666Y-76171104D01*
X199766666Y-76171104D02*
X199719047Y-76313961D01*
X199719047Y-76313961D02*
X199623809Y-76409200D01*
X199623809Y-76409200D02*
X199480952Y-76456819D01*
X199480952Y-76456819D02*
X199385714Y-76456819D01*
X200671428Y-75456819D02*
X200480952Y-75456819D01*
X200480952Y-75456819D02*
X200385714Y-75504438D01*
X200385714Y-75504438D02*
X200338095Y-75552057D01*
X200338095Y-75552057D02*
X200242857Y-75694914D01*
X200242857Y-75694914D02*
X200195238Y-75885390D01*
X200195238Y-75885390D02*
X200195238Y-76266342D01*
X200195238Y-76266342D02*
X200242857Y-76361580D01*
X200242857Y-76361580D02*
X200290476Y-76409200D01*
X200290476Y-76409200D02*
X200385714Y-76456819D01*
X200385714Y-76456819D02*
X200576190Y-76456819D01*
X200576190Y-76456819D02*
X200671428Y-76409200D01*
X200671428Y-76409200D02*
X200719047Y-76361580D01*
X200719047Y-76361580D02*
X200766666Y-76266342D01*
X200766666Y-76266342D02*
X200766666Y-76028247D01*
X200766666Y-76028247D02*
X200719047Y-75933009D01*
X200719047Y-75933009D02*
X200671428Y-75885390D01*
X200671428Y-75885390D02*
X200576190Y-75837771D01*
X200576190Y-75837771D02*
X200385714Y-75837771D01*
X200385714Y-75837771D02*
X200290476Y-75885390D01*
X200290476Y-75885390D02*
X200242857Y-75933009D01*
X200242857Y-75933009D02*
X200195238Y-76028247D01*
X55597142Y-89454819D02*
X55263809Y-88978628D01*
X55025714Y-89454819D02*
X55025714Y-88454819D01*
X55025714Y-88454819D02*
X55406666Y-88454819D01*
X55406666Y-88454819D02*
X55501904Y-88502438D01*
X55501904Y-88502438D02*
X55549523Y-88550057D01*
X55549523Y-88550057D02*
X55597142Y-88645295D01*
X55597142Y-88645295D02*
X55597142Y-88788152D01*
X55597142Y-88788152D02*
X55549523Y-88883390D01*
X55549523Y-88883390D02*
X55501904Y-88931009D01*
X55501904Y-88931009D02*
X55406666Y-88978628D01*
X55406666Y-88978628D02*
X55025714Y-88978628D01*
X55930476Y-88454819D02*
X56549523Y-88454819D01*
X56549523Y-88454819D02*
X56216190Y-88835771D01*
X56216190Y-88835771D02*
X56359047Y-88835771D01*
X56359047Y-88835771D02*
X56454285Y-88883390D01*
X56454285Y-88883390D02*
X56501904Y-88931009D01*
X56501904Y-88931009D02*
X56549523Y-89026247D01*
X56549523Y-89026247D02*
X56549523Y-89264342D01*
X56549523Y-89264342D02*
X56501904Y-89359580D01*
X56501904Y-89359580D02*
X56454285Y-89407200D01*
X56454285Y-89407200D02*
X56359047Y-89454819D01*
X56359047Y-89454819D02*
X56073333Y-89454819D01*
X56073333Y-89454819D02*
X55978095Y-89407200D01*
X55978095Y-89407200D02*
X55930476Y-89359580D01*
X57406666Y-88454819D02*
X57216190Y-88454819D01*
X57216190Y-88454819D02*
X57120952Y-88502438D01*
X57120952Y-88502438D02*
X57073333Y-88550057D01*
X57073333Y-88550057D02*
X56978095Y-88692914D01*
X56978095Y-88692914D02*
X56930476Y-88883390D01*
X56930476Y-88883390D02*
X56930476Y-89264342D01*
X56930476Y-89264342D02*
X56978095Y-89359580D01*
X56978095Y-89359580D02*
X57025714Y-89407200D01*
X57025714Y-89407200D02*
X57120952Y-89454819D01*
X57120952Y-89454819D02*
X57311428Y-89454819D01*
X57311428Y-89454819D02*
X57406666Y-89407200D01*
X57406666Y-89407200D02*
X57454285Y-89359580D01*
X57454285Y-89359580D02*
X57501904Y-89264342D01*
X57501904Y-89264342D02*
X57501904Y-89026247D01*
X57501904Y-89026247D02*
X57454285Y-88931009D01*
X57454285Y-88931009D02*
X57406666Y-88883390D01*
X57406666Y-88883390D02*
X57311428Y-88835771D01*
X57311428Y-88835771D02*
X57120952Y-88835771D01*
X57120952Y-88835771D02*
X57025714Y-88883390D01*
X57025714Y-88883390D02*
X56978095Y-88931009D01*
X56978095Y-88931009D02*
X56930476Y-89026247D01*
X171504819Y-63488094D02*
X170504819Y-63488094D01*
X170504819Y-63488094D02*
X170504819Y-63249999D01*
X170504819Y-63249999D02*
X170552438Y-63107142D01*
X170552438Y-63107142D02*
X170647676Y-63011904D01*
X170647676Y-63011904D02*
X170742914Y-62964285D01*
X170742914Y-62964285D02*
X170933390Y-62916666D01*
X170933390Y-62916666D02*
X171076247Y-62916666D01*
X171076247Y-62916666D02*
X171266723Y-62964285D01*
X171266723Y-62964285D02*
X171361961Y-63011904D01*
X171361961Y-63011904D02*
X171457200Y-63107142D01*
X171457200Y-63107142D02*
X171504819Y-63249999D01*
X171504819Y-63249999D02*
X171504819Y-63488094D01*
X170600057Y-62535713D02*
X170552438Y-62488094D01*
X170552438Y-62488094D02*
X170504819Y-62392856D01*
X170504819Y-62392856D02*
X170504819Y-62154761D01*
X170504819Y-62154761D02*
X170552438Y-62059523D01*
X170552438Y-62059523D02*
X170600057Y-62011904D01*
X170600057Y-62011904D02*
X170695295Y-61964285D01*
X170695295Y-61964285D02*
X170790533Y-61964285D01*
X170790533Y-61964285D02*
X170933390Y-62011904D01*
X170933390Y-62011904D02*
X171504819Y-62583332D01*
X171504819Y-62583332D02*
X171504819Y-61964285D01*
X111844819Y-99825358D02*
X111368628Y-100158691D01*
X111844819Y-100396786D02*
X110844819Y-100396786D01*
X110844819Y-100396786D02*
X110844819Y-100015834D01*
X110844819Y-100015834D02*
X110892438Y-99920596D01*
X110892438Y-99920596D02*
X110940057Y-99872977D01*
X110940057Y-99872977D02*
X111035295Y-99825358D01*
X111035295Y-99825358D02*
X111178152Y-99825358D01*
X111178152Y-99825358D02*
X111273390Y-99872977D01*
X111273390Y-99872977D02*
X111321009Y-99920596D01*
X111321009Y-99920596D02*
X111368628Y-100015834D01*
X111368628Y-100015834D02*
X111368628Y-100396786D01*
X111844819Y-98872977D02*
X111844819Y-99444405D01*
X111844819Y-99158691D02*
X110844819Y-99158691D01*
X110844819Y-99158691D02*
X110987676Y-99253929D01*
X110987676Y-99253929D02*
X111082914Y-99349167D01*
X111082914Y-99349167D02*
X111130533Y-99444405D01*
X110844819Y-98253929D02*
X110844819Y-98158691D01*
X110844819Y-98158691D02*
X110892438Y-98063453D01*
X110892438Y-98063453D02*
X110940057Y-98015834D01*
X110940057Y-98015834D02*
X111035295Y-97968215D01*
X111035295Y-97968215D02*
X111225771Y-97920596D01*
X111225771Y-97920596D02*
X111463866Y-97920596D01*
X111463866Y-97920596D02*
X111654342Y-97968215D01*
X111654342Y-97968215D02*
X111749580Y-98015834D01*
X111749580Y-98015834D02*
X111797200Y-98063453D01*
X111797200Y-98063453D02*
X111844819Y-98158691D01*
X111844819Y-98158691D02*
X111844819Y-98253929D01*
X111844819Y-98253929D02*
X111797200Y-98349167D01*
X111797200Y-98349167D02*
X111749580Y-98396786D01*
X111749580Y-98396786D02*
X111654342Y-98444405D01*
X111654342Y-98444405D02*
X111463866Y-98492024D01*
X111463866Y-98492024D02*
X111225771Y-98492024D01*
X111225771Y-98492024D02*
X111035295Y-98444405D01*
X111035295Y-98444405D02*
X110940057Y-98396786D01*
X110940057Y-98396786D02*
X110892438Y-98349167D01*
X110892438Y-98349167D02*
X110844819Y-98253929D01*
X99599819Y-93737857D02*
X99123628Y-94071190D01*
X99599819Y-94309285D02*
X98599819Y-94309285D01*
X98599819Y-94309285D02*
X98599819Y-93928333D01*
X98599819Y-93928333D02*
X98647438Y-93833095D01*
X98647438Y-93833095D02*
X98695057Y-93785476D01*
X98695057Y-93785476D02*
X98790295Y-93737857D01*
X98790295Y-93737857D02*
X98933152Y-93737857D01*
X98933152Y-93737857D02*
X99028390Y-93785476D01*
X99028390Y-93785476D02*
X99076009Y-93833095D01*
X99076009Y-93833095D02*
X99123628Y-93928333D01*
X99123628Y-93928333D02*
X99123628Y-94309285D01*
X98695057Y-93356904D02*
X98647438Y-93309285D01*
X98647438Y-93309285D02*
X98599819Y-93214047D01*
X98599819Y-93214047D02*
X98599819Y-92975952D01*
X98599819Y-92975952D02*
X98647438Y-92880714D01*
X98647438Y-92880714D02*
X98695057Y-92833095D01*
X98695057Y-92833095D02*
X98790295Y-92785476D01*
X98790295Y-92785476D02*
X98885533Y-92785476D01*
X98885533Y-92785476D02*
X99028390Y-92833095D01*
X99028390Y-92833095D02*
X99599819Y-93404523D01*
X99599819Y-93404523D02*
X99599819Y-92785476D01*
X98933152Y-91928333D02*
X99599819Y-91928333D01*
X98552200Y-92166428D02*
X99266485Y-92404523D01*
X99266485Y-92404523D02*
X99266485Y-91785476D01*
X182127142Y-102724819D02*
X181793809Y-102248628D01*
X181555714Y-102724819D02*
X181555714Y-101724819D01*
X181555714Y-101724819D02*
X181936666Y-101724819D01*
X181936666Y-101724819D02*
X182031904Y-101772438D01*
X182031904Y-101772438D02*
X182079523Y-101820057D01*
X182079523Y-101820057D02*
X182127142Y-101915295D01*
X182127142Y-101915295D02*
X182127142Y-102058152D01*
X182127142Y-102058152D02*
X182079523Y-102153390D01*
X182079523Y-102153390D02*
X182031904Y-102201009D01*
X182031904Y-102201009D02*
X181936666Y-102248628D01*
X181936666Y-102248628D02*
X181555714Y-102248628D01*
X182460476Y-101724819D02*
X183079523Y-101724819D01*
X183079523Y-101724819D02*
X182746190Y-102105771D01*
X182746190Y-102105771D02*
X182889047Y-102105771D01*
X182889047Y-102105771D02*
X182984285Y-102153390D01*
X182984285Y-102153390D02*
X183031904Y-102201009D01*
X183031904Y-102201009D02*
X183079523Y-102296247D01*
X183079523Y-102296247D02*
X183079523Y-102534342D01*
X183079523Y-102534342D02*
X183031904Y-102629580D01*
X183031904Y-102629580D02*
X182984285Y-102677200D01*
X182984285Y-102677200D02*
X182889047Y-102724819D01*
X182889047Y-102724819D02*
X182603333Y-102724819D01*
X182603333Y-102724819D02*
X182508095Y-102677200D01*
X182508095Y-102677200D02*
X182460476Y-102629580D01*
X183412857Y-101724819D02*
X184079523Y-101724819D01*
X184079523Y-101724819D02*
X183650952Y-102724819D01*
X183617261Y-60850057D02*
X183522023Y-60802438D01*
X183522023Y-60802438D02*
X183426785Y-60707200D01*
X183426785Y-60707200D02*
X183283928Y-60564342D01*
X183283928Y-60564342D02*
X183188690Y-60516723D01*
X183188690Y-60516723D02*
X183093452Y-60516723D01*
X183141071Y-60754819D02*
X183045833Y-60707200D01*
X183045833Y-60707200D02*
X182950595Y-60611961D01*
X182950595Y-60611961D02*
X182902976Y-60421485D01*
X182902976Y-60421485D02*
X182902976Y-60088152D01*
X182902976Y-60088152D02*
X182950595Y-59897676D01*
X182950595Y-59897676D02*
X183045833Y-59802438D01*
X183045833Y-59802438D02*
X183141071Y-59754819D01*
X183141071Y-59754819D02*
X183331547Y-59754819D01*
X183331547Y-59754819D02*
X183426785Y-59802438D01*
X183426785Y-59802438D02*
X183522023Y-59897676D01*
X183522023Y-59897676D02*
X183569642Y-60088152D01*
X183569642Y-60088152D02*
X183569642Y-60421485D01*
X183569642Y-60421485D02*
X183522023Y-60611961D01*
X183522023Y-60611961D02*
X183426785Y-60707200D01*
X183426785Y-60707200D02*
X183331547Y-60754819D01*
X183331547Y-60754819D02*
X183141071Y-60754819D01*
X183950595Y-59850057D02*
X183998214Y-59802438D01*
X183998214Y-59802438D02*
X184093452Y-59754819D01*
X184093452Y-59754819D02*
X184331547Y-59754819D01*
X184331547Y-59754819D02*
X184426785Y-59802438D01*
X184426785Y-59802438D02*
X184474404Y-59850057D01*
X184474404Y-59850057D02*
X184522023Y-59945295D01*
X184522023Y-59945295D02*
X184522023Y-60040533D01*
X184522023Y-60040533D02*
X184474404Y-60183390D01*
X184474404Y-60183390D02*
X183902976Y-60754819D01*
X183902976Y-60754819D02*
X184522023Y-60754819D01*
X176013333Y-79179580D02*
X175965714Y-79227200D01*
X175965714Y-79227200D02*
X175822857Y-79274819D01*
X175822857Y-79274819D02*
X175727619Y-79274819D01*
X175727619Y-79274819D02*
X175584762Y-79227200D01*
X175584762Y-79227200D02*
X175489524Y-79131961D01*
X175489524Y-79131961D02*
X175441905Y-79036723D01*
X175441905Y-79036723D02*
X175394286Y-78846247D01*
X175394286Y-78846247D02*
X175394286Y-78703390D01*
X175394286Y-78703390D02*
X175441905Y-78512914D01*
X175441905Y-78512914D02*
X175489524Y-78417676D01*
X175489524Y-78417676D02*
X175584762Y-78322438D01*
X175584762Y-78322438D02*
X175727619Y-78274819D01*
X175727619Y-78274819D02*
X175822857Y-78274819D01*
X175822857Y-78274819D02*
X175965714Y-78322438D01*
X175965714Y-78322438D02*
X176013333Y-78370057D01*
X176870476Y-78274819D02*
X176680000Y-78274819D01*
X176680000Y-78274819D02*
X176584762Y-78322438D01*
X176584762Y-78322438D02*
X176537143Y-78370057D01*
X176537143Y-78370057D02*
X176441905Y-78512914D01*
X176441905Y-78512914D02*
X176394286Y-78703390D01*
X176394286Y-78703390D02*
X176394286Y-79084342D01*
X176394286Y-79084342D02*
X176441905Y-79179580D01*
X176441905Y-79179580D02*
X176489524Y-79227200D01*
X176489524Y-79227200D02*
X176584762Y-79274819D01*
X176584762Y-79274819D02*
X176775238Y-79274819D01*
X176775238Y-79274819D02*
X176870476Y-79227200D01*
X176870476Y-79227200D02*
X176918095Y-79179580D01*
X176918095Y-79179580D02*
X176965714Y-79084342D01*
X176965714Y-79084342D02*
X176965714Y-78846247D01*
X176965714Y-78846247D02*
X176918095Y-78751009D01*
X176918095Y-78751009D02*
X176870476Y-78703390D01*
X176870476Y-78703390D02*
X176775238Y-78655771D01*
X176775238Y-78655771D02*
X176584762Y-78655771D01*
X176584762Y-78655771D02*
X176489524Y-78703390D01*
X176489524Y-78703390D02*
X176441905Y-78751009D01*
X176441905Y-78751009D02*
X176394286Y-78846247D01*
X55334580Y-75492857D02*
X55382200Y-75540476D01*
X55382200Y-75540476D02*
X55429819Y-75683333D01*
X55429819Y-75683333D02*
X55429819Y-75778571D01*
X55429819Y-75778571D02*
X55382200Y-75921428D01*
X55382200Y-75921428D02*
X55286961Y-76016666D01*
X55286961Y-76016666D02*
X55191723Y-76064285D01*
X55191723Y-76064285D02*
X55001247Y-76111904D01*
X55001247Y-76111904D02*
X54858390Y-76111904D01*
X54858390Y-76111904D02*
X54667914Y-76064285D01*
X54667914Y-76064285D02*
X54572676Y-76016666D01*
X54572676Y-76016666D02*
X54477438Y-75921428D01*
X54477438Y-75921428D02*
X54429819Y-75778571D01*
X54429819Y-75778571D02*
X54429819Y-75683333D01*
X54429819Y-75683333D02*
X54477438Y-75540476D01*
X54477438Y-75540476D02*
X54525057Y-75492857D01*
X55429819Y-74540476D02*
X55429819Y-75111904D01*
X55429819Y-74826190D02*
X54429819Y-74826190D01*
X54429819Y-74826190D02*
X54572676Y-74921428D01*
X54572676Y-74921428D02*
X54667914Y-75016666D01*
X54667914Y-75016666D02*
X54715533Y-75111904D01*
X55429819Y-74064285D02*
X55429819Y-73873809D01*
X55429819Y-73873809D02*
X55382200Y-73778571D01*
X55382200Y-73778571D02*
X55334580Y-73730952D01*
X55334580Y-73730952D02*
X55191723Y-73635714D01*
X55191723Y-73635714D02*
X55001247Y-73588095D01*
X55001247Y-73588095D02*
X54620295Y-73588095D01*
X54620295Y-73588095D02*
X54525057Y-73635714D01*
X54525057Y-73635714D02*
X54477438Y-73683333D01*
X54477438Y-73683333D02*
X54429819Y-73778571D01*
X54429819Y-73778571D02*
X54429819Y-73969047D01*
X54429819Y-73969047D02*
X54477438Y-74064285D01*
X54477438Y-74064285D02*
X54525057Y-74111904D01*
X54525057Y-74111904D02*
X54620295Y-74159523D01*
X54620295Y-74159523D02*
X54858390Y-74159523D01*
X54858390Y-74159523D02*
X54953628Y-74111904D01*
X54953628Y-74111904D02*
X55001247Y-74064285D01*
X55001247Y-74064285D02*
X55048866Y-73969047D01*
X55048866Y-73969047D02*
X55048866Y-73778571D01*
X55048866Y-73778571D02*
X55001247Y-73683333D01*
X55001247Y-73683333D02*
X54953628Y-73635714D01*
X54953628Y-73635714D02*
X54858390Y-73588095D01*
X201257142Y-93359580D02*
X201209523Y-93407200D01*
X201209523Y-93407200D02*
X201066666Y-93454819D01*
X201066666Y-93454819D02*
X200971428Y-93454819D01*
X200971428Y-93454819D02*
X200828571Y-93407200D01*
X200828571Y-93407200D02*
X200733333Y-93311961D01*
X200733333Y-93311961D02*
X200685714Y-93216723D01*
X200685714Y-93216723D02*
X200638095Y-93026247D01*
X200638095Y-93026247D02*
X200638095Y-92883390D01*
X200638095Y-92883390D02*
X200685714Y-92692914D01*
X200685714Y-92692914D02*
X200733333Y-92597676D01*
X200733333Y-92597676D02*
X200828571Y-92502438D01*
X200828571Y-92502438D02*
X200971428Y-92454819D01*
X200971428Y-92454819D02*
X201066666Y-92454819D01*
X201066666Y-92454819D02*
X201209523Y-92502438D01*
X201209523Y-92502438D02*
X201257142Y-92550057D01*
X202209523Y-93454819D02*
X201638095Y-93454819D01*
X201923809Y-93454819D02*
X201923809Y-92454819D01*
X201923809Y-92454819D02*
X201828571Y-92597676D01*
X201828571Y-92597676D02*
X201733333Y-92692914D01*
X201733333Y-92692914D02*
X201638095Y-92740533D01*
X203066666Y-92454819D02*
X202876190Y-92454819D01*
X202876190Y-92454819D02*
X202780952Y-92502438D01*
X202780952Y-92502438D02*
X202733333Y-92550057D01*
X202733333Y-92550057D02*
X202638095Y-92692914D01*
X202638095Y-92692914D02*
X202590476Y-92883390D01*
X202590476Y-92883390D02*
X202590476Y-93264342D01*
X202590476Y-93264342D02*
X202638095Y-93359580D01*
X202638095Y-93359580D02*
X202685714Y-93407200D01*
X202685714Y-93407200D02*
X202780952Y-93454819D01*
X202780952Y-93454819D02*
X202971428Y-93454819D01*
X202971428Y-93454819D02*
X203066666Y-93407200D01*
X203066666Y-93407200D02*
X203114285Y-93359580D01*
X203114285Y-93359580D02*
X203161904Y-93264342D01*
X203161904Y-93264342D02*
X203161904Y-93026247D01*
X203161904Y-93026247D02*
X203114285Y-92931009D01*
X203114285Y-92931009D02*
X203066666Y-92883390D01*
X203066666Y-92883390D02*
X202971428Y-92835771D01*
X202971428Y-92835771D02*
X202780952Y-92835771D01*
X202780952Y-92835771D02*
X202685714Y-92883390D01*
X202685714Y-92883390D02*
X202638095Y-92931009D01*
X202638095Y-92931009D02*
X202590476Y-93026247D01*
X62974819Y-121717857D02*
X62498628Y-122051190D01*
X62974819Y-122289285D02*
X61974819Y-122289285D01*
X61974819Y-122289285D02*
X61974819Y-121908333D01*
X61974819Y-121908333D02*
X62022438Y-121813095D01*
X62022438Y-121813095D02*
X62070057Y-121765476D01*
X62070057Y-121765476D02*
X62165295Y-121717857D01*
X62165295Y-121717857D02*
X62308152Y-121717857D01*
X62308152Y-121717857D02*
X62403390Y-121765476D01*
X62403390Y-121765476D02*
X62451009Y-121813095D01*
X62451009Y-121813095D02*
X62498628Y-121908333D01*
X62498628Y-121908333D02*
X62498628Y-122289285D01*
X61974819Y-121384523D02*
X61974819Y-120765476D01*
X61974819Y-120765476D02*
X62355771Y-121098809D01*
X62355771Y-121098809D02*
X62355771Y-120955952D01*
X62355771Y-120955952D02*
X62403390Y-120860714D01*
X62403390Y-120860714D02*
X62451009Y-120813095D01*
X62451009Y-120813095D02*
X62546247Y-120765476D01*
X62546247Y-120765476D02*
X62784342Y-120765476D01*
X62784342Y-120765476D02*
X62879580Y-120813095D01*
X62879580Y-120813095D02*
X62927200Y-120860714D01*
X62927200Y-120860714D02*
X62974819Y-120955952D01*
X62974819Y-120955952D02*
X62974819Y-121241666D01*
X62974819Y-121241666D02*
X62927200Y-121336904D01*
X62927200Y-121336904D02*
X62879580Y-121384523D01*
X61974819Y-120146428D02*
X61974819Y-120051190D01*
X61974819Y-120051190D02*
X62022438Y-119955952D01*
X62022438Y-119955952D02*
X62070057Y-119908333D01*
X62070057Y-119908333D02*
X62165295Y-119860714D01*
X62165295Y-119860714D02*
X62355771Y-119813095D01*
X62355771Y-119813095D02*
X62593866Y-119813095D01*
X62593866Y-119813095D02*
X62784342Y-119860714D01*
X62784342Y-119860714D02*
X62879580Y-119908333D01*
X62879580Y-119908333D02*
X62927200Y-119955952D01*
X62927200Y-119955952D02*
X62974819Y-120051190D01*
X62974819Y-120051190D02*
X62974819Y-120146428D01*
X62974819Y-120146428D02*
X62927200Y-120241666D01*
X62927200Y-120241666D02*
X62879580Y-120289285D01*
X62879580Y-120289285D02*
X62784342Y-120336904D01*
X62784342Y-120336904D02*
X62593866Y-120384523D01*
X62593866Y-120384523D02*
X62355771Y-120384523D01*
X62355771Y-120384523D02*
X62165295Y-120336904D01*
X62165295Y-120336904D02*
X62070057Y-120289285D01*
X62070057Y-120289285D02*
X62022438Y-120241666D01*
X62022438Y-120241666D02*
X61974819Y-120146428D01*
X195407142Y-93484580D02*
X195359523Y-93532200D01*
X195359523Y-93532200D02*
X195216666Y-93579819D01*
X195216666Y-93579819D02*
X195121428Y-93579819D01*
X195121428Y-93579819D02*
X194978571Y-93532200D01*
X194978571Y-93532200D02*
X194883333Y-93436961D01*
X194883333Y-93436961D02*
X194835714Y-93341723D01*
X194835714Y-93341723D02*
X194788095Y-93151247D01*
X194788095Y-93151247D02*
X194788095Y-93008390D01*
X194788095Y-93008390D02*
X194835714Y-92817914D01*
X194835714Y-92817914D02*
X194883333Y-92722676D01*
X194883333Y-92722676D02*
X194978571Y-92627438D01*
X194978571Y-92627438D02*
X195121428Y-92579819D01*
X195121428Y-92579819D02*
X195216666Y-92579819D01*
X195216666Y-92579819D02*
X195359523Y-92627438D01*
X195359523Y-92627438D02*
X195407142Y-92675057D01*
X196359523Y-93579819D02*
X195788095Y-93579819D01*
X196073809Y-93579819D02*
X196073809Y-92579819D01*
X196073809Y-92579819D02*
X195978571Y-92722676D01*
X195978571Y-92722676D02*
X195883333Y-92817914D01*
X195883333Y-92817914D02*
X195788095Y-92865533D01*
X196930952Y-93008390D02*
X196835714Y-92960771D01*
X196835714Y-92960771D02*
X196788095Y-92913152D01*
X196788095Y-92913152D02*
X196740476Y-92817914D01*
X196740476Y-92817914D02*
X196740476Y-92770295D01*
X196740476Y-92770295D02*
X196788095Y-92675057D01*
X196788095Y-92675057D02*
X196835714Y-92627438D01*
X196835714Y-92627438D02*
X196930952Y-92579819D01*
X196930952Y-92579819D02*
X197121428Y-92579819D01*
X197121428Y-92579819D02*
X197216666Y-92627438D01*
X197216666Y-92627438D02*
X197264285Y-92675057D01*
X197264285Y-92675057D02*
X197311904Y-92770295D01*
X197311904Y-92770295D02*
X197311904Y-92817914D01*
X197311904Y-92817914D02*
X197264285Y-92913152D01*
X197264285Y-92913152D02*
X197216666Y-92960771D01*
X197216666Y-92960771D02*
X197121428Y-93008390D01*
X197121428Y-93008390D02*
X196930952Y-93008390D01*
X196930952Y-93008390D02*
X196835714Y-93056009D01*
X196835714Y-93056009D02*
X196788095Y-93103628D01*
X196788095Y-93103628D02*
X196740476Y-93198866D01*
X196740476Y-93198866D02*
X196740476Y-93389342D01*
X196740476Y-93389342D02*
X196788095Y-93484580D01*
X196788095Y-93484580D02*
X196835714Y-93532200D01*
X196835714Y-93532200D02*
X196930952Y-93579819D01*
X196930952Y-93579819D02*
X197121428Y-93579819D01*
X197121428Y-93579819D02*
X197216666Y-93532200D01*
X197216666Y-93532200D02*
X197264285Y-93484580D01*
X197264285Y-93484580D02*
X197311904Y-93389342D01*
X197311904Y-93389342D02*
X197311904Y-93198866D01*
X197311904Y-93198866D02*
X197264285Y-93103628D01*
X197264285Y-93103628D02*
X197216666Y-93056009D01*
X197216666Y-93056009D02*
X197121428Y-93008390D01*
X144407200Y-79033332D02*
X144454819Y-78890475D01*
X144454819Y-78890475D02*
X144454819Y-78652380D01*
X144454819Y-78652380D02*
X144407200Y-78557142D01*
X144407200Y-78557142D02*
X144359580Y-78509523D01*
X144359580Y-78509523D02*
X144264342Y-78461904D01*
X144264342Y-78461904D02*
X144169104Y-78461904D01*
X144169104Y-78461904D02*
X144073866Y-78509523D01*
X144073866Y-78509523D02*
X144026247Y-78557142D01*
X144026247Y-78557142D02*
X143978628Y-78652380D01*
X143978628Y-78652380D02*
X143931009Y-78842856D01*
X143931009Y-78842856D02*
X143883390Y-78938094D01*
X143883390Y-78938094D02*
X143835771Y-78985713D01*
X143835771Y-78985713D02*
X143740533Y-79033332D01*
X143740533Y-79033332D02*
X143645295Y-79033332D01*
X143645295Y-79033332D02*
X143550057Y-78985713D01*
X143550057Y-78985713D02*
X143502438Y-78938094D01*
X143502438Y-78938094D02*
X143454819Y-78842856D01*
X143454819Y-78842856D02*
X143454819Y-78604761D01*
X143454819Y-78604761D02*
X143502438Y-78461904D01*
X143454819Y-78128570D02*
X144454819Y-77890475D01*
X144454819Y-77890475D02*
X143740533Y-77699999D01*
X143740533Y-77699999D02*
X144454819Y-77509523D01*
X144454819Y-77509523D02*
X143454819Y-77271428D01*
X144454819Y-76366666D02*
X144454819Y-76938094D01*
X144454819Y-76652380D02*
X143454819Y-76652380D01*
X143454819Y-76652380D02*
X143597676Y-76747618D01*
X143597676Y-76747618D02*
X143692914Y-76842856D01*
X143692914Y-76842856D02*
X143740533Y-76938094D01*
X139704762Y-102956819D02*
X140276190Y-102956819D01*
X139990476Y-103956819D02*
X139990476Y-102956819D01*
X140609524Y-103956819D02*
X140609524Y-102956819D01*
X140609524Y-102956819D02*
X140990476Y-102956819D01*
X140990476Y-102956819D02*
X141085714Y-103004438D01*
X141085714Y-103004438D02*
X141133333Y-103052057D01*
X141133333Y-103052057D02*
X141180952Y-103147295D01*
X141180952Y-103147295D02*
X141180952Y-103290152D01*
X141180952Y-103290152D02*
X141133333Y-103385390D01*
X141133333Y-103385390D02*
X141085714Y-103433009D01*
X141085714Y-103433009D02*
X140990476Y-103480628D01*
X140990476Y-103480628D02*
X140609524Y-103480628D01*
X141514286Y-102956819D02*
X142133333Y-102956819D01*
X142133333Y-102956819D02*
X141800000Y-103337771D01*
X141800000Y-103337771D02*
X141942857Y-103337771D01*
X141942857Y-103337771D02*
X142038095Y-103385390D01*
X142038095Y-103385390D02*
X142085714Y-103433009D01*
X142085714Y-103433009D02*
X142133333Y-103528247D01*
X142133333Y-103528247D02*
X142133333Y-103766342D01*
X142133333Y-103766342D02*
X142085714Y-103861580D01*
X142085714Y-103861580D02*
X142038095Y-103909200D01*
X142038095Y-103909200D02*
X141942857Y-103956819D01*
X141942857Y-103956819D02*
X141657143Y-103956819D01*
X141657143Y-103956819D02*
X141561905Y-103909200D01*
X141561905Y-103909200D02*
X141514286Y-103861580D01*
X211604761Y-116500057D02*
X211509523Y-116452438D01*
X211509523Y-116452438D02*
X211414285Y-116357200D01*
X211414285Y-116357200D02*
X211271428Y-116214342D01*
X211271428Y-116214342D02*
X211176190Y-116166723D01*
X211176190Y-116166723D02*
X211080952Y-116166723D01*
X211128571Y-116404819D02*
X211033333Y-116357200D01*
X211033333Y-116357200D02*
X210938095Y-116261961D01*
X210938095Y-116261961D02*
X210890476Y-116071485D01*
X210890476Y-116071485D02*
X210890476Y-115738152D01*
X210890476Y-115738152D02*
X210938095Y-115547676D01*
X210938095Y-115547676D02*
X211033333Y-115452438D01*
X211033333Y-115452438D02*
X211128571Y-115404819D01*
X211128571Y-115404819D02*
X211319047Y-115404819D01*
X211319047Y-115404819D02*
X211414285Y-115452438D01*
X211414285Y-115452438D02*
X211509523Y-115547676D01*
X211509523Y-115547676D02*
X211557142Y-115738152D01*
X211557142Y-115738152D02*
X211557142Y-116071485D01*
X211557142Y-116071485D02*
X211509523Y-116261961D01*
X211509523Y-116261961D02*
X211414285Y-116357200D01*
X211414285Y-116357200D02*
X211319047Y-116404819D01*
X211319047Y-116404819D02*
X211128571Y-116404819D01*
X211890476Y-115404819D02*
X212509523Y-115404819D01*
X212509523Y-115404819D02*
X212176190Y-115785771D01*
X212176190Y-115785771D02*
X212319047Y-115785771D01*
X212319047Y-115785771D02*
X212414285Y-115833390D01*
X212414285Y-115833390D02*
X212461904Y-115881009D01*
X212461904Y-115881009D02*
X212509523Y-115976247D01*
X212509523Y-115976247D02*
X212509523Y-116214342D01*
X212509523Y-116214342D02*
X212461904Y-116309580D01*
X212461904Y-116309580D02*
X212414285Y-116357200D01*
X212414285Y-116357200D02*
X212319047Y-116404819D01*
X212319047Y-116404819D02*
X212033333Y-116404819D01*
X212033333Y-116404819D02*
X211938095Y-116357200D01*
X211938095Y-116357200D02*
X211890476Y-116309580D01*
X172966666Y-86564819D02*
X172966666Y-87279104D01*
X172966666Y-87279104D02*
X172919047Y-87421961D01*
X172919047Y-87421961D02*
X172823809Y-87517200D01*
X172823809Y-87517200D02*
X172680952Y-87564819D01*
X172680952Y-87564819D02*
X172585714Y-87564819D01*
X173585714Y-86993390D02*
X173490476Y-86945771D01*
X173490476Y-86945771D02*
X173442857Y-86898152D01*
X173442857Y-86898152D02*
X173395238Y-86802914D01*
X173395238Y-86802914D02*
X173395238Y-86755295D01*
X173395238Y-86755295D02*
X173442857Y-86660057D01*
X173442857Y-86660057D02*
X173490476Y-86612438D01*
X173490476Y-86612438D02*
X173585714Y-86564819D01*
X173585714Y-86564819D02*
X173776190Y-86564819D01*
X173776190Y-86564819D02*
X173871428Y-86612438D01*
X173871428Y-86612438D02*
X173919047Y-86660057D01*
X173919047Y-86660057D02*
X173966666Y-86755295D01*
X173966666Y-86755295D02*
X173966666Y-86802914D01*
X173966666Y-86802914D02*
X173919047Y-86898152D01*
X173919047Y-86898152D02*
X173871428Y-86945771D01*
X173871428Y-86945771D02*
X173776190Y-86993390D01*
X173776190Y-86993390D02*
X173585714Y-86993390D01*
X173585714Y-86993390D02*
X173490476Y-87041009D01*
X173490476Y-87041009D02*
X173442857Y-87088628D01*
X173442857Y-87088628D02*
X173395238Y-87183866D01*
X173395238Y-87183866D02*
X173395238Y-87374342D01*
X173395238Y-87374342D02*
X173442857Y-87469580D01*
X173442857Y-87469580D02*
X173490476Y-87517200D01*
X173490476Y-87517200D02*
X173585714Y-87564819D01*
X173585714Y-87564819D02*
X173776190Y-87564819D01*
X173776190Y-87564819D02*
X173871428Y-87517200D01*
X173871428Y-87517200D02*
X173919047Y-87469580D01*
X173919047Y-87469580D02*
X173966666Y-87374342D01*
X173966666Y-87374342D02*
X173966666Y-87183866D01*
X173966666Y-87183866D02*
X173919047Y-87088628D01*
X173919047Y-87088628D02*
X173871428Y-87041009D01*
X173871428Y-87041009D02*
X173776190Y-86993390D01*
X215182142Y-107174819D02*
X214848809Y-106698628D01*
X214610714Y-107174819D02*
X214610714Y-106174819D01*
X214610714Y-106174819D02*
X214991666Y-106174819D01*
X214991666Y-106174819D02*
X215086904Y-106222438D01*
X215086904Y-106222438D02*
X215134523Y-106270057D01*
X215134523Y-106270057D02*
X215182142Y-106365295D01*
X215182142Y-106365295D02*
X215182142Y-106508152D01*
X215182142Y-106508152D02*
X215134523Y-106603390D01*
X215134523Y-106603390D02*
X215086904Y-106651009D01*
X215086904Y-106651009D02*
X214991666Y-106698628D01*
X214991666Y-106698628D02*
X214610714Y-106698628D01*
X215515476Y-106174819D02*
X216134523Y-106174819D01*
X216134523Y-106174819D02*
X215801190Y-106555771D01*
X215801190Y-106555771D02*
X215944047Y-106555771D01*
X215944047Y-106555771D02*
X216039285Y-106603390D01*
X216039285Y-106603390D02*
X216086904Y-106651009D01*
X216086904Y-106651009D02*
X216134523Y-106746247D01*
X216134523Y-106746247D02*
X216134523Y-106984342D01*
X216134523Y-106984342D02*
X216086904Y-107079580D01*
X216086904Y-107079580D02*
X216039285Y-107127200D01*
X216039285Y-107127200D02*
X215944047Y-107174819D01*
X215944047Y-107174819D02*
X215658333Y-107174819D01*
X215658333Y-107174819D02*
X215563095Y-107127200D01*
X215563095Y-107127200D02*
X215515476Y-107079580D01*
X217086904Y-107174819D02*
X216515476Y-107174819D01*
X216801190Y-107174819D02*
X216801190Y-106174819D01*
X216801190Y-106174819D02*
X216705952Y-106317676D01*
X216705952Y-106317676D02*
X216610714Y-106412914D01*
X216610714Y-106412914D02*
X216515476Y-106460533D01*
X230404761Y-81480057D02*
X230309523Y-81432438D01*
X230309523Y-81432438D02*
X230214285Y-81337200D01*
X230214285Y-81337200D02*
X230071428Y-81194342D01*
X230071428Y-81194342D02*
X229976190Y-81146723D01*
X229976190Y-81146723D02*
X229880952Y-81146723D01*
X229928571Y-81384819D02*
X229833333Y-81337200D01*
X229833333Y-81337200D02*
X229738095Y-81241961D01*
X229738095Y-81241961D02*
X229690476Y-81051485D01*
X229690476Y-81051485D02*
X229690476Y-80718152D01*
X229690476Y-80718152D02*
X229738095Y-80527676D01*
X229738095Y-80527676D02*
X229833333Y-80432438D01*
X229833333Y-80432438D02*
X229928571Y-80384819D01*
X229928571Y-80384819D02*
X230119047Y-80384819D01*
X230119047Y-80384819D02*
X230214285Y-80432438D01*
X230214285Y-80432438D02*
X230309523Y-80527676D01*
X230309523Y-80527676D02*
X230357142Y-80718152D01*
X230357142Y-80718152D02*
X230357142Y-81051485D01*
X230357142Y-81051485D02*
X230309523Y-81241961D01*
X230309523Y-81241961D02*
X230214285Y-81337200D01*
X230214285Y-81337200D02*
X230119047Y-81384819D01*
X230119047Y-81384819D02*
X229928571Y-81384819D01*
X231261904Y-80384819D02*
X230785714Y-80384819D01*
X230785714Y-80384819D02*
X230738095Y-80861009D01*
X230738095Y-80861009D02*
X230785714Y-80813390D01*
X230785714Y-80813390D02*
X230880952Y-80765771D01*
X230880952Y-80765771D02*
X231119047Y-80765771D01*
X231119047Y-80765771D02*
X231214285Y-80813390D01*
X231214285Y-80813390D02*
X231261904Y-80861009D01*
X231261904Y-80861009D02*
X231309523Y-80956247D01*
X231309523Y-80956247D02*
X231309523Y-81194342D01*
X231309523Y-81194342D02*
X231261904Y-81289580D01*
X231261904Y-81289580D02*
X231214285Y-81337200D01*
X231214285Y-81337200D02*
X231119047Y-81384819D01*
X231119047Y-81384819D02*
X230880952Y-81384819D01*
X230880952Y-81384819D02*
X230785714Y-81337200D01*
X230785714Y-81337200D02*
X230738095Y-81289580D01*
X179909580Y-59916666D02*
X179957200Y-59964285D01*
X179957200Y-59964285D02*
X180004819Y-60107142D01*
X180004819Y-60107142D02*
X180004819Y-60202380D01*
X180004819Y-60202380D02*
X179957200Y-60345237D01*
X179957200Y-60345237D02*
X179861961Y-60440475D01*
X179861961Y-60440475D02*
X179766723Y-60488094D01*
X179766723Y-60488094D02*
X179576247Y-60535713D01*
X179576247Y-60535713D02*
X179433390Y-60535713D01*
X179433390Y-60535713D02*
X179242914Y-60488094D01*
X179242914Y-60488094D02*
X179147676Y-60440475D01*
X179147676Y-60440475D02*
X179052438Y-60345237D01*
X179052438Y-60345237D02*
X179004819Y-60202380D01*
X179004819Y-60202380D02*
X179004819Y-60107142D01*
X179004819Y-60107142D02*
X179052438Y-59964285D01*
X179052438Y-59964285D02*
X179100057Y-59916666D01*
X179004819Y-59583332D02*
X179004819Y-58964285D01*
X179004819Y-58964285D02*
X179385771Y-59297618D01*
X179385771Y-59297618D02*
X179385771Y-59154761D01*
X179385771Y-59154761D02*
X179433390Y-59059523D01*
X179433390Y-59059523D02*
X179481009Y-59011904D01*
X179481009Y-59011904D02*
X179576247Y-58964285D01*
X179576247Y-58964285D02*
X179814342Y-58964285D01*
X179814342Y-58964285D02*
X179909580Y-59011904D01*
X179909580Y-59011904D02*
X179957200Y-59059523D01*
X179957200Y-59059523D02*
X180004819Y-59154761D01*
X180004819Y-59154761D02*
X180004819Y-59440475D01*
X180004819Y-59440475D02*
X179957200Y-59535713D01*
X179957200Y-59535713D02*
X179909580Y-59583332D01*
X158207200Y-79333332D02*
X158254819Y-79190475D01*
X158254819Y-79190475D02*
X158254819Y-78952380D01*
X158254819Y-78952380D02*
X158207200Y-78857142D01*
X158207200Y-78857142D02*
X158159580Y-78809523D01*
X158159580Y-78809523D02*
X158064342Y-78761904D01*
X158064342Y-78761904D02*
X157969104Y-78761904D01*
X157969104Y-78761904D02*
X157873866Y-78809523D01*
X157873866Y-78809523D02*
X157826247Y-78857142D01*
X157826247Y-78857142D02*
X157778628Y-78952380D01*
X157778628Y-78952380D02*
X157731009Y-79142856D01*
X157731009Y-79142856D02*
X157683390Y-79238094D01*
X157683390Y-79238094D02*
X157635771Y-79285713D01*
X157635771Y-79285713D02*
X157540533Y-79333332D01*
X157540533Y-79333332D02*
X157445295Y-79333332D01*
X157445295Y-79333332D02*
X157350057Y-79285713D01*
X157350057Y-79285713D02*
X157302438Y-79238094D01*
X157302438Y-79238094D02*
X157254819Y-79142856D01*
X157254819Y-79142856D02*
X157254819Y-78904761D01*
X157254819Y-78904761D02*
X157302438Y-78761904D01*
X157254819Y-78428570D02*
X158254819Y-78190475D01*
X158254819Y-78190475D02*
X157540533Y-77999999D01*
X157540533Y-77999999D02*
X158254819Y-77809523D01*
X158254819Y-77809523D02*
X157254819Y-77571428D01*
X157350057Y-77238094D02*
X157302438Y-77190475D01*
X157302438Y-77190475D02*
X157254819Y-77095237D01*
X157254819Y-77095237D02*
X157254819Y-76857142D01*
X157254819Y-76857142D02*
X157302438Y-76761904D01*
X157302438Y-76761904D02*
X157350057Y-76714285D01*
X157350057Y-76714285D02*
X157445295Y-76666666D01*
X157445295Y-76666666D02*
X157540533Y-76666666D01*
X157540533Y-76666666D02*
X157683390Y-76714285D01*
X157683390Y-76714285D02*
X158254819Y-77285713D01*
X158254819Y-77285713D02*
X158254819Y-76666666D01*
X115274819Y-99825358D02*
X114798628Y-100158691D01*
X115274819Y-100396786D02*
X114274819Y-100396786D01*
X114274819Y-100396786D02*
X114274819Y-100015834D01*
X114274819Y-100015834D02*
X114322438Y-99920596D01*
X114322438Y-99920596D02*
X114370057Y-99872977D01*
X114370057Y-99872977D02*
X114465295Y-99825358D01*
X114465295Y-99825358D02*
X114608152Y-99825358D01*
X114608152Y-99825358D02*
X114703390Y-99872977D01*
X114703390Y-99872977D02*
X114751009Y-99920596D01*
X114751009Y-99920596D02*
X114798628Y-100015834D01*
X114798628Y-100015834D02*
X114798628Y-100396786D01*
X114370057Y-99444405D02*
X114322438Y-99396786D01*
X114322438Y-99396786D02*
X114274819Y-99301548D01*
X114274819Y-99301548D02*
X114274819Y-99063453D01*
X114274819Y-99063453D02*
X114322438Y-98968215D01*
X114322438Y-98968215D02*
X114370057Y-98920596D01*
X114370057Y-98920596D02*
X114465295Y-98872977D01*
X114465295Y-98872977D02*
X114560533Y-98872977D01*
X114560533Y-98872977D02*
X114703390Y-98920596D01*
X114703390Y-98920596D02*
X115274819Y-99492024D01*
X115274819Y-99492024D02*
X115274819Y-98872977D01*
X114274819Y-98015834D02*
X114274819Y-98206310D01*
X114274819Y-98206310D02*
X114322438Y-98301548D01*
X114322438Y-98301548D02*
X114370057Y-98349167D01*
X114370057Y-98349167D02*
X114512914Y-98444405D01*
X114512914Y-98444405D02*
X114703390Y-98492024D01*
X114703390Y-98492024D02*
X115084342Y-98492024D01*
X115084342Y-98492024D02*
X115179580Y-98444405D01*
X115179580Y-98444405D02*
X115227200Y-98396786D01*
X115227200Y-98396786D02*
X115274819Y-98301548D01*
X115274819Y-98301548D02*
X115274819Y-98111072D01*
X115274819Y-98111072D02*
X115227200Y-98015834D01*
X115227200Y-98015834D02*
X115179580Y-97968215D01*
X115179580Y-97968215D02*
X115084342Y-97920596D01*
X115084342Y-97920596D02*
X114846247Y-97920596D01*
X114846247Y-97920596D02*
X114751009Y-97968215D01*
X114751009Y-97968215D02*
X114703390Y-98015834D01*
X114703390Y-98015834D02*
X114655771Y-98111072D01*
X114655771Y-98111072D02*
X114655771Y-98301548D01*
X114655771Y-98301548D02*
X114703390Y-98396786D01*
X114703390Y-98396786D02*
X114751009Y-98444405D01*
X114751009Y-98444405D02*
X114846247Y-98492024D01*
X213838095Y-93104819D02*
X213838095Y-93914342D01*
X213838095Y-93914342D02*
X213885714Y-94009580D01*
X213885714Y-94009580D02*
X213933333Y-94057200D01*
X213933333Y-94057200D02*
X214028571Y-94104819D01*
X214028571Y-94104819D02*
X214219047Y-94104819D01*
X214219047Y-94104819D02*
X214314285Y-94057200D01*
X214314285Y-94057200D02*
X214361904Y-94009580D01*
X214361904Y-94009580D02*
X214409523Y-93914342D01*
X214409523Y-93914342D02*
X214409523Y-93104819D01*
X214790476Y-93104819D02*
X215457142Y-93104819D01*
X215457142Y-93104819D02*
X215028571Y-94104819D01*
X108614819Y-99722857D02*
X108138628Y-100056190D01*
X108614819Y-100294285D02*
X107614819Y-100294285D01*
X107614819Y-100294285D02*
X107614819Y-99913333D01*
X107614819Y-99913333D02*
X107662438Y-99818095D01*
X107662438Y-99818095D02*
X107710057Y-99770476D01*
X107710057Y-99770476D02*
X107805295Y-99722857D01*
X107805295Y-99722857D02*
X107948152Y-99722857D01*
X107948152Y-99722857D02*
X108043390Y-99770476D01*
X108043390Y-99770476D02*
X108091009Y-99818095D01*
X108091009Y-99818095D02*
X108138628Y-99913333D01*
X108138628Y-99913333D02*
X108138628Y-100294285D01*
X108614819Y-98770476D02*
X108614819Y-99341904D01*
X108614819Y-99056190D02*
X107614819Y-99056190D01*
X107614819Y-99056190D02*
X107757676Y-99151428D01*
X107757676Y-99151428D02*
X107852914Y-99246666D01*
X107852914Y-99246666D02*
X107900533Y-99341904D01*
X107948152Y-97913333D02*
X108614819Y-97913333D01*
X107567200Y-98151428D02*
X108281485Y-98389523D01*
X108281485Y-98389523D02*
X108281485Y-97770476D01*
X90684819Y-93677857D02*
X90208628Y-94011190D01*
X90684819Y-94249285D02*
X89684819Y-94249285D01*
X89684819Y-94249285D02*
X89684819Y-93868333D01*
X89684819Y-93868333D02*
X89732438Y-93773095D01*
X89732438Y-93773095D02*
X89780057Y-93725476D01*
X89780057Y-93725476D02*
X89875295Y-93677857D01*
X89875295Y-93677857D02*
X90018152Y-93677857D01*
X90018152Y-93677857D02*
X90113390Y-93725476D01*
X90113390Y-93725476D02*
X90161009Y-93773095D01*
X90161009Y-93773095D02*
X90208628Y-93868333D01*
X90208628Y-93868333D02*
X90208628Y-94249285D01*
X89780057Y-93296904D02*
X89732438Y-93249285D01*
X89732438Y-93249285D02*
X89684819Y-93154047D01*
X89684819Y-93154047D02*
X89684819Y-92915952D01*
X89684819Y-92915952D02*
X89732438Y-92820714D01*
X89732438Y-92820714D02*
X89780057Y-92773095D01*
X89780057Y-92773095D02*
X89875295Y-92725476D01*
X89875295Y-92725476D02*
X89970533Y-92725476D01*
X89970533Y-92725476D02*
X90113390Y-92773095D01*
X90113390Y-92773095D02*
X90684819Y-93344523D01*
X90684819Y-93344523D02*
X90684819Y-92725476D01*
X89684819Y-92392142D02*
X89684819Y-91773095D01*
X89684819Y-91773095D02*
X90065771Y-92106428D01*
X90065771Y-92106428D02*
X90065771Y-91963571D01*
X90065771Y-91963571D02*
X90113390Y-91868333D01*
X90113390Y-91868333D02*
X90161009Y-91820714D01*
X90161009Y-91820714D02*
X90256247Y-91773095D01*
X90256247Y-91773095D02*
X90494342Y-91773095D01*
X90494342Y-91773095D02*
X90589580Y-91820714D01*
X90589580Y-91820714D02*
X90637200Y-91868333D01*
X90637200Y-91868333D02*
X90684819Y-91963571D01*
X90684819Y-91963571D02*
X90684819Y-92249285D01*
X90684819Y-92249285D02*
X90637200Y-92344523D01*
X90637200Y-92344523D02*
X90589580Y-92392142D01*
X189058333Y-63904819D02*
X188725000Y-63428628D01*
X188486905Y-63904819D02*
X188486905Y-62904819D01*
X188486905Y-62904819D02*
X188867857Y-62904819D01*
X188867857Y-62904819D02*
X188963095Y-62952438D01*
X188963095Y-62952438D02*
X189010714Y-63000057D01*
X189010714Y-63000057D02*
X189058333Y-63095295D01*
X189058333Y-63095295D02*
X189058333Y-63238152D01*
X189058333Y-63238152D02*
X189010714Y-63333390D01*
X189010714Y-63333390D02*
X188963095Y-63381009D01*
X188963095Y-63381009D02*
X188867857Y-63428628D01*
X188867857Y-63428628D02*
X188486905Y-63428628D01*
X189963095Y-62904819D02*
X189486905Y-62904819D01*
X189486905Y-62904819D02*
X189439286Y-63381009D01*
X189439286Y-63381009D02*
X189486905Y-63333390D01*
X189486905Y-63333390D02*
X189582143Y-63285771D01*
X189582143Y-63285771D02*
X189820238Y-63285771D01*
X189820238Y-63285771D02*
X189915476Y-63333390D01*
X189915476Y-63333390D02*
X189963095Y-63381009D01*
X189963095Y-63381009D02*
X190010714Y-63476247D01*
X190010714Y-63476247D02*
X190010714Y-63714342D01*
X190010714Y-63714342D02*
X189963095Y-63809580D01*
X189963095Y-63809580D02*
X189915476Y-63857200D01*
X189915476Y-63857200D02*
X189820238Y-63904819D01*
X189820238Y-63904819D02*
X189582143Y-63904819D01*
X189582143Y-63904819D02*
X189486905Y-63857200D01*
X189486905Y-63857200D02*
X189439286Y-63809580D01*
X65116666Y-58606819D02*
X65116666Y-59321104D01*
X65116666Y-59321104D02*
X65069047Y-59463961D01*
X65069047Y-59463961D02*
X64973809Y-59559200D01*
X64973809Y-59559200D02*
X64830952Y-59606819D01*
X64830952Y-59606819D02*
X64735714Y-59606819D01*
X65497619Y-58606819D02*
X66164285Y-58606819D01*
X66164285Y-58606819D02*
X65735714Y-59606819D01*
X188084819Y-66579166D02*
X187608628Y-66912499D01*
X188084819Y-67150594D02*
X187084819Y-67150594D01*
X187084819Y-67150594D02*
X187084819Y-66769642D01*
X187084819Y-66769642D02*
X187132438Y-66674404D01*
X187132438Y-66674404D02*
X187180057Y-66626785D01*
X187180057Y-66626785D02*
X187275295Y-66579166D01*
X187275295Y-66579166D02*
X187418152Y-66579166D01*
X187418152Y-66579166D02*
X187513390Y-66626785D01*
X187513390Y-66626785D02*
X187561009Y-66674404D01*
X187561009Y-66674404D02*
X187608628Y-66769642D01*
X187608628Y-66769642D02*
X187608628Y-67150594D01*
X187084819Y-66245832D02*
X187084819Y-65626785D01*
X187084819Y-65626785D02*
X187465771Y-65960118D01*
X187465771Y-65960118D02*
X187465771Y-65817261D01*
X187465771Y-65817261D02*
X187513390Y-65722023D01*
X187513390Y-65722023D02*
X187561009Y-65674404D01*
X187561009Y-65674404D02*
X187656247Y-65626785D01*
X187656247Y-65626785D02*
X187894342Y-65626785D01*
X187894342Y-65626785D02*
X187989580Y-65674404D01*
X187989580Y-65674404D02*
X188037200Y-65722023D01*
X188037200Y-65722023D02*
X188084819Y-65817261D01*
X188084819Y-65817261D02*
X188084819Y-66102975D01*
X188084819Y-66102975D02*
X188037200Y-66198213D01*
X188037200Y-66198213D02*
X187989580Y-66245832D01*
X207137142Y-96089819D02*
X206803809Y-95613628D01*
X206565714Y-96089819D02*
X206565714Y-95089819D01*
X206565714Y-95089819D02*
X206946666Y-95089819D01*
X206946666Y-95089819D02*
X207041904Y-95137438D01*
X207041904Y-95137438D02*
X207089523Y-95185057D01*
X207089523Y-95185057D02*
X207137142Y-95280295D01*
X207137142Y-95280295D02*
X207137142Y-95423152D01*
X207137142Y-95423152D02*
X207089523Y-95518390D01*
X207089523Y-95518390D02*
X207041904Y-95566009D01*
X207041904Y-95566009D02*
X206946666Y-95613628D01*
X206946666Y-95613628D02*
X206565714Y-95613628D01*
X207470476Y-95089819D02*
X208089523Y-95089819D01*
X208089523Y-95089819D02*
X207756190Y-95470771D01*
X207756190Y-95470771D02*
X207899047Y-95470771D01*
X207899047Y-95470771D02*
X207994285Y-95518390D01*
X207994285Y-95518390D02*
X208041904Y-95566009D01*
X208041904Y-95566009D02*
X208089523Y-95661247D01*
X208089523Y-95661247D02*
X208089523Y-95899342D01*
X208089523Y-95899342D02*
X208041904Y-95994580D01*
X208041904Y-95994580D02*
X207994285Y-96042200D01*
X207994285Y-96042200D02*
X207899047Y-96089819D01*
X207899047Y-96089819D02*
X207613333Y-96089819D01*
X207613333Y-96089819D02*
X207518095Y-96042200D01*
X207518095Y-96042200D02*
X207470476Y-95994580D01*
X208422857Y-95089819D02*
X209041904Y-95089819D01*
X209041904Y-95089819D02*
X208708571Y-95470771D01*
X208708571Y-95470771D02*
X208851428Y-95470771D01*
X208851428Y-95470771D02*
X208946666Y-95518390D01*
X208946666Y-95518390D02*
X208994285Y-95566009D01*
X208994285Y-95566009D02*
X209041904Y-95661247D01*
X209041904Y-95661247D02*
X209041904Y-95899342D01*
X209041904Y-95899342D02*
X208994285Y-95994580D01*
X208994285Y-95994580D02*
X208946666Y-96042200D01*
X208946666Y-96042200D02*
X208851428Y-96089819D01*
X208851428Y-96089819D02*
X208565714Y-96089819D01*
X208565714Y-96089819D02*
X208470476Y-96042200D01*
X208470476Y-96042200D02*
X208422857Y-95994580D01*
X172284819Y-80480594D02*
X171284819Y-80480594D01*
X171284819Y-80480594D02*
X171284819Y-80242499D01*
X171284819Y-80242499D02*
X171332438Y-80099642D01*
X171332438Y-80099642D02*
X171427676Y-80004404D01*
X171427676Y-80004404D02*
X171522914Y-79956785D01*
X171522914Y-79956785D02*
X171713390Y-79909166D01*
X171713390Y-79909166D02*
X171856247Y-79909166D01*
X171856247Y-79909166D02*
X172046723Y-79956785D01*
X172046723Y-79956785D02*
X172141961Y-80004404D01*
X172141961Y-80004404D02*
X172237200Y-80099642D01*
X172237200Y-80099642D02*
X172284819Y-80242499D01*
X172284819Y-80242499D02*
X172284819Y-80480594D01*
X171284819Y-79575832D02*
X171284819Y-78956785D01*
X171284819Y-78956785D02*
X171665771Y-79290118D01*
X171665771Y-79290118D02*
X171665771Y-79147261D01*
X171665771Y-79147261D02*
X171713390Y-79052023D01*
X171713390Y-79052023D02*
X171761009Y-79004404D01*
X171761009Y-79004404D02*
X171856247Y-78956785D01*
X171856247Y-78956785D02*
X172094342Y-78956785D01*
X172094342Y-78956785D02*
X172189580Y-79004404D01*
X172189580Y-79004404D02*
X172237200Y-79052023D01*
X172237200Y-79052023D02*
X172284819Y-79147261D01*
X172284819Y-79147261D02*
X172284819Y-79432975D01*
X172284819Y-79432975D02*
X172237200Y-79528213D01*
X172237200Y-79528213D02*
X172189580Y-79575832D01*
X81874819Y-93687857D02*
X81398628Y-94021190D01*
X81874819Y-94259285D02*
X80874819Y-94259285D01*
X80874819Y-94259285D02*
X80874819Y-93878333D01*
X80874819Y-93878333D02*
X80922438Y-93783095D01*
X80922438Y-93783095D02*
X80970057Y-93735476D01*
X80970057Y-93735476D02*
X81065295Y-93687857D01*
X81065295Y-93687857D02*
X81208152Y-93687857D01*
X81208152Y-93687857D02*
X81303390Y-93735476D01*
X81303390Y-93735476D02*
X81351009Y-93783095D01*
X81351009Y-93783095D02*
X81398628Y-93878333D01*
X81398628Y-93878333D02*
X81398628Y-94259285D01*
X81874819Y-92735476D02*
X81874819Y-93306904D01*
X81874819Y-93021190D02*
X80874819Y-93021190D01*
X80874819Y-93021190D02*
X81017676Y-93116428D01*
X81017676Y-93116428D02*
X81112914Y-93211666D01*
X81112914Y-93211666D02*
X81160533Y-93306904D01*
X80874819Y-91878333D02*
X80874819Y-92068809D01*
X80874819Y-92068809D02*
X80922438Y-92164047D01*
X80922438Y-92164047D02*
X80970057Y-92211666D01*
X80970057Y-92211666D02*
X81112914Y-92306904D01*
X81112914Y-92306904D02*
X81303390Y-92354523D01*
X81303390Y-92354523D02*
X81684342Y-92354523D01*
X81684342Y-92354523D02*
X81779580Y-92306904D01*
X81779580Y-92306904D02*
X81827200Y-92259285D01*
X81827200Y-92259285D02*
X81874819Y-92164047D01*
X81874819Y-92164047D02*
X81874819Y-91973571D01*
X81874819Y-91973571D02*
X81827200Y-91878333D01*
X81827200Y-91878333D02*
X81779580Y-91830714D01*
X81779580Y-91830714D02*
X81684342Y-91783095D01*
X81684342Y-91783095D02*
X81446247Y-91783095D01*
X81446247Y-91783095D02*
X81351009Y-91830714D01*
X81351009Y-91830714D02*
X81303390Y-91878333D01*
X81303390Y-91878333D02*
X81255771Y-91973571D01*
X81255771Y-91973571D02*
X81255771Y-92164047D01*
X81255771Y-92164047D02*
X81303390Y-92259285D01*
X81303390Y-92259285D02*
X81351009Y-92306904D01*
X81351009Y-92306904D02*
X81446247Y-92354523D01*
X150454762Y-102956819D02*
X151026190Y-102956819D01*
X150740476Y-103956819D02*
X150740476Y-102956819D01*
X151359524Y-103956819D02*
X151359524Y-102956819D01*
X151359524Y-102956819D02*
X151740476Y-102956819D01*
X151740476Y-102956819D02*
X151835714Y-103004438D01*
X151835714Y-103004438D02*
X151883333Y-103052057D01*
X151883333Y-103052057D02*
X151930952Y-103147295D01*
X151930952Y-103147295D02*
X151930952Y-103290152D01*
X151930952Y-103290152D02*
X151883333Y-103385390D01*
X151883333Y-103385390D02*
X151835714Y-103433009D01*
X151835714Y-103433009D02*
X151740476Y-103480628D01*
X151740476Y-103480628D02*
X151359524Y-103480628D01*
X152311905Y-103052057D02*
X152359524Y-103004438D01*
X152359524Y-103004438D02*
X152454762Y-102956819D01*
X152454762Y-102956819D02*
X152692857Y-102956819D01*
X152692857Y-102956819D02*
X152788095Y-103004438D01*
X152788095Y-103004438D02*
X152835714Y-103052057D01*
X152835714Y-103052057D02*
X152883333Y-103147295D01*
X152883333Y-103147295D02*
X152883333Y-103242533D01*
X152883333Y-103242533D02*
X152835714Y-103385390D01*
X152835714Y-103385390D02*
X152264286Y-103956819D01*
X152264286Y-103956819D02*
X152883333Y-103956819D01*
X101342319Y-111411904D02*
X102151842Y-111411904D01*
X102151842Y-111411904D02*
X102247080Y-111364285D01*
X102247080Y-111364285D02*
X102294700Y-111316666D01*
X102294700Y-111316666D02*
X102342319Y-111221428D01*
X102342319Y-111221428D02*
X102342319Y-111030952D01*
X102342319Y-111030952D02*
X102294700Y-110935714D01*
X102294700Y-110935714D02*
X102247080Y-110888095D01*
X102247080Y-110888095D02*
X102151842Y-110840476D01*
X102151842Y-110840476D02*
X101342319Y-110840476D01*
X101342319Y-109888095D02*
X101342319Y-110364285D01*
X101342319Y-110364285D02*
X101818509Y-110411904D01*
X101818509Y-110411904D02*
X101770890Y-110364285D01*
X101770890Y-110364285D02*
X101723271Y-110269047D01*
X101723271Y-110269047D02*
X101723271Y-110030952D01*
X101723271Y-110030952D02*
X101770890Y-109935714D01*
X101770890Y-109935714D02*
X101818509Y-109888095D01*
X101818509Y-109888095D02*
X101913747Y-109840476D01*
X101913747Y-109840476D02*
X102151842Y-109840476D01*
X102151842Y-109840476D02*
X102247080Y-109888095D01*
X102247080Y-109888095D02*
X102294700Y-109935714D01*
X102294700Y-109935714D02*
X102342319Y-110030952D01*
X102342319Y-110030952D02*
X102342319Y-110269047D01*
X102342319Y-110269047D02*
X102294700Y-110364285D01*
X102294700Y-110364285D02*
X102247080Y-110411904D01*
X67830057Y-118315238D02*
X67782438Y-118410476D01*
X67782438Y-118410476D02*
X67687200Y-118505714D01*
X67687200Y-118505714D02*
X67544342Y-118648571D01*
X67544342Y-118648571D02*
X67496723Y-118743809D01*
X67496723Y-118743809D02*
X67496723Y-118839047D01*
X67734819Y-118791428D02*
X67687200Y-118886666D01*
X67687200Y-118886666D02*
X67591961Y-118981904D01*
X67591961Y-118981904D02*
X67401485Y-119029523D01*
X67401485Y-119029523D02*
X67068152Y-119029523D01*
X67068152Y-119029523D02*
X66877676Y-118981904D01*
X66877676Y-118981904D02*
X66782438Y-118886666D01*
X66782438Y-118886666D02*
X66734819Y-118791428D01*
X66734819Y-118791428D02*
X66734819Y-118600952D01*
X66734819Y-118600952D02*
X66782438Y-118505714D01*
X66782438Y-118505714D02*
X66877676Y-118410476D01*
X66877676Y-118410476D02*
X67068152Y-118362857D01*
X67068152Y-118362857D02*
X67401485Y-118362857D01*
X67401485Y-118362857D02*
X67591961Y-118410476D01*
X67591961Y-118410476D02*
X67687200Y-118505714D01*
X67687200Y-118505714D02*
X67734819Y-118600952D01*
X67734819Y-118600952D02*
X67734819Y-118791428D01*
X67068152Y-117505714D02*
X67734819Y-117505714D01*
X66687200Y-117743809D02*
X67401485Y-117981904D01*
X67401485Y-117981904D02*
X67401485Y-117362857D01*
X219614819Y-114592857D02*
X219138628Y-114926190D01*
X219614819Y-115164285D02*
X218614819Y-115164285D01*
X218614819Y-115164285D02*
X218614819Y-114783333D01*
X218614819Y-114783333D02*
X218662438Y-114688095D01*
X218662438Y-114688095D02*
X218710057Y-114640476D01*
X218710057Y-114640476D02*
X218805295Y-114592857D01*
X218805295Y-114592857D02*
X218948152Y-114592857D01*
X218948152Y-114592857D02*
X219043390Y-114640476D01*
X219043390Y-114640476D02*
X219091009Y-114688095D01*
X219091009Y-114688095D02*
X219138628Y-114783333D01*
X219138628Y-114783333D02*
X219138628Y-115164285D01*
X218710057Y-114211904D02*
X218662438Y-114164285D01*
X218662438Y-114164285D02*
X218614819Y-114069047D01*
X218614819Y-114069047D02*
X218614819Y-113830952D01*
X218614819Y-113830952D02*
X218662438Y-113735714D01*
X218662438Y-113735714D02*
X218710057Y-113688095D01*
X218710057Y-113688095D02*
X218805295Y-113640476D01*
X218805295Y-113640476D02*
X218900533Y-113640476D01*
X218900533Y-113640476D02*
X219043390Y-113688095D01*
X219043390Y-113688095D02*
X219614819Y-114259523D01*
X219614819Y-114259523D02*
X219614819Y-113640476D01*
X219614819Y-113164285D02*
X219614819Y-112973809D01*
X219614819Y-112973809D02*
X219567200Y-112878571D01*
X219567200Y-112878571D02*
X219519580Y-112830952D01*
X219519580Y-112830952D02*
X219376723Y-112735714D01*
X219376723Y-112735714D02*
X219186247Y-112688095D01*
X219186247Y-112688095D02*
X218805295Y-112688095D01*
X218805295Y-112688095D02*
X218710057Y-112735714D01*
X218710057Y-112735714D02*
X218662438Y-112783333D01*
X218662438Y-112783333D02*
X218614819Y-112878571D01*
X218614819Y-112878571D02*
X218614819Y-113069047D01*
X218614819Y-113069047D02*
X218662438Y-113164285D01*
X218662438Y-113164285D02*
X218710057Y-113211904D01*
X218710057Y-113211904D02*
X218805295Y-113259523D01*
X218805295Y-113259523D02*
X219043390Y-113259523D01*
X219043390Y-113259523D02*
X219138628Y-113211904D01*
X219138628Y-113211904D02*
X219186247Y-113164285D01*
X219186247Y-113164285D02*
X219233866Y-113069047D01*
X219233866Y-113069047D02*
X219233866Y-112878571D01*
X219233866Y-112878571D02*
X219186247Y-112783333D01*
X219186247Y-112783333D02*
X219138628Y-112735714D01*
X219138628Y-112735714D02*
X219043390Y-112688095D01*
X53904819Y-94171904D02*
X54714342Y-94171904D01*
X54714342Y-94171904D02*
X54809580Y-94124285D01*
X54809580Y-94124285D02*
X54857200Y-94076666D01*
X54857200Y-94076666D02*
X54904819Y-93981428D01*
X54904819Y-93981428D02*
X54904819Y-93790952D01*
X54904819Y-93790952D02*
X54857200Y-93695714D01*
X54857200Y-93695714D02*
X54809580Y-93648095D01*
X54809580Y-93648095D02*
X54714342Y-93600476D01*
X54714342Y-93600476D02*
X53904819Y-93600476D01*
X54333390Y-92981428D02*
X54285771Y-93076666D01*
X54285771Y-93076666D02*
X54238152Y-93124285D01*
X54238152Y-93124285D02*
X54142914Y-93171904D01*
X54142914Y-93171904D02*
X54095295Y-93171904D01*
X54095295Y-93171904D02*
X54000057Y-93124285D01*
X54000057Y-93124285D02*
X53952438Y-93076666D01*
X53952438Y-93076666D02*
X53904819Y-92981428D01*
X53904819Y-92981428D02*
X53904819Y-92790952D01*
X53904819Y-92790952D02*
X53952438Y-92695714D01*
X53952438Y-92695714D02*
X54000057Y-92648095D01*
X54000057Y-92648095D02*
X54095295Y-92600476D01*
X54095295Y-92600476D02*
X54142914Y-92600476D01*
X54142914Y-92600476D02*
X54238152Y-92648095D01*
X54238152Y-92648095D02*
X54285771Y-92695714D01*
X54285771Y-92695714D02*
X54333390Y-92790952D01*
X54333390Y-92790952D02*
X54333390Y-92981428D01*
X54333390Y-92981428D02*
X54381009Y-93076666D01*
X54381009Y-93076666D02*
X54428628Y-93124285D01*
X54428628Y-93124285D02*
X54523866Y-93171904D01*
X54523866Y-93171904D02*
X54714342Y-93171904D01*
X54714342Y-93171904D02*
X54809580Y-93124285D01*
X54809580Y-93124285D02*
X54857200Y-93076666D01*
X54857200Y-93076666D02*
X54904819Y-92981428D01*
X54904819Y-92981428D02*
X54904819Y-92790952D01*
X54904819Y-92790952D02*
X54857200Y-92695714D01*
X54857200Y-92695714D02*
X54809580Y-92648095D01*
X54809580Y-92648095D02*
X54714342Y-92600476D01*
X54714342Y-92600476D02*
X54523866Y-92600476D01*
X54523866Y-92600476D02*
X54428628Y-92648095D01*
X54428628Y-92648095D02*
X54381009Y-92695714D01*
X54381009Y-92695714D02*
X54333390Y-92790952D01*
X89154819Y-99857857D02*
X88678628Y-100191190D01*
X89154819Y-100429285D02*
X88154819Y-100429285D01*
X88154819Y-100429285D02*
X88154819Y-100048333D01*
X88154819Y-100048333D02*
X88202438Y-99953095D01*
X88202438Y-99953095D02*
X88250057Y-99905476D01*
X88250057Y-99905476D02*
X88345295Y-99857857D01*
X88345295Y-99857857D02*
X88488152Y-99857857D01*
X88488152Y-99857857D02*
X88583390Y-99905476D01*
X88583390Y-99905476D02*
X88631009Y-99953095D01*
X88631009Y-99953095D02*
X88678628Y-100048333D01*
X88678628Y-100048333D02*
X88678628Y-100429285D01*
X89154819Y-98905476D02*
X89154819Y-99476904D01*
X89154819Y-99191190D02*
X88154819Y-99191190D01*
X88154819Y-99191190D02*
X88297676Y-99286428D01*
X88297676Y-99286428D02*
X88392914Y-99381666D01*
X88392914Y-99381666D02*
X88440533Y-99476904D01*
X88250057Y-98524523D02*
X88202438Y-98476904D01*
X88202438Y-98476904D02*
X88154819Y-98381666D01*
X88154819Y-98381666D02*
X88154819Y-98143571D01*
X88154819Y-98143571D02*
X88202438Y-98048333D01*
X88202438Y-98048333D02*
X88250057Y-98000714D01*
X88250057Y-98000714D02*
X88345295Y-97953095D01*
X88345295Y-97953095D02*
X88440533Y-97953095D01*
X88440533Y-97953095D02*
X88583390Y-98000714D01*
X88583390Y-98000714D02*
X89154819Y-98572142D01*
X89154819Y-98572142D02*
X89154819Y-97953095D01*
X183508333Y-63884819D02*
X183175000Y-63408628D01*
X182936905Y-63884819D02*
X182936905Y-62884819D01*
X182936905Y-62884819D02*
X183317857Y-62884819D01*
X183317857Y-62884819D02*
X183413095Y-62932438D01*
X183413095Y-62932438D02*
X183460714Y-62980057D01*
X183460714Y-62980057D02*
X183508333Y-63075295D01*
X183508333Y-63075295D02*
X183508333Y-63218152D01*
X183508333Y-63218152D02*
X183460714Y-63313390D01*
X183460714Y-63313390D02*
X183413095Y-63361009D01*
X183413095Y-63361009D02*
X183317857Y-63408628D01*
X183317857Y-63408628D02*
X182936905Y-63408628D01*
X184365476Y-62884819D02*
X184175000Y-62884819D01*
X184175000Y-62884819D02*
X184079762Y-62932438D01*
X184079762Y-62932438D02*
X184032143Y-62980057D01*
X184032143Y-62980057D02*
X183936905Y-63122914D01*
X183936905Y-63122914D02*
X183889286Y-63313390D01*
X183889286Y-63313390D02*
X183889286Y-63694342D01*
X183889286Y-63694342D02*
X183936905Y-63789580D01*
X183936905Y-63789580D02*
X183984524Y-63837200D01*
X183984524Y-63837200D02*
X184079762Y-63884819D01*
X184079762Y-63884819D02*
X184270238Y-63884819D01*
X184270238Y-63884819D02*
X184365476Y-63837200D01*
X184365476Y-63837200D02*
X184413095Y-63789580D01*
X184413095Y-63789580D02*
X184460714Y-63694342D01*
X184460714Y-63694342D02*
X184460714Y-63456247D01*
X184460714Y-63456247D02*
X184413095Y-63361009D01*
X184413095Y-63361009D02*
X184365476Y-63313390D01*
X184365476Y-63313390D02*
X184270238Y-63265771D01*
X184270238Y-63265771D02*
X184079762Y-63265771D01*
X184079762Y-63265771D02*
X183984524Y-63313390D01*
X183984524Y-63313390D02*
X183936905Y-63361009D01*
X183936905Y-63361009D02*
X183889286Y-63456247D01*
X223126666Y-58514819D02*
X223126666Y-59229104D01*
X223126666Y-59229104D02*
X223079047Y-59371961D01*
X223079047Y-59371961D02*
X222983809Y-59467200D01*
X222983809Y-59467200D02*
X222840952Y-59514819D01*
X222840952Y-59514819D02*
X222745714Y-59514819D01*
X224031428Y-58848152D02*
X224031428Y-59514819D01*
X223793333Y-58467200D02*
X223555238Y-59181485D01*
X223555238Y-59181485D02*
X224174285Y-59181485D01*
X86184819Y-99891666D02*
X85708628Y-100224999D01*
X86184819Y-100463094D02*
X85184819Y-100463094D01*
X85184819Y-100463094D02*
X85184819Y-100082142D01*
X85184819Y-100082142D02*
X85232438Y-99986904D01*
X85232438Y-99986904D02*
X85280057Y-99939285D01*
X85280057Y-99939285D02*
X85375295Y-99891666D01*
X85375295Y-99891666D02*
X85518152Y-99891666D01*
X85518152Y-99891666D02*
X85613390Y-99939285D01*
X85613390Y-99939285D02*
X85661009Y-99986904D01*
X85661009Y-99986904D02*
X85708628Y-100082142D01*
X85708628Y-100082142D02*
X85708628Y-100463094D01*
X85184819Y-99558332D02*
X85184819Y-98891666D01*
X85184819Y-98891666D02*
X86184819Y-99320237D01*
X207984819Y-78646666D02*
X207984819Y-79122856D01*
X207984819Y-79122856D02*
X206984819Y-79122856D01*
X207984819Y-77789523D02*
X207984819Y-78360951D01*
X207984819Y-78075237D02*
X206984819Y-78075237D01*
X206984819Y-78075237D02*
X207127676Y-78170475D01*
X207127676Y-78170475D02*
X207222914Y-78265713D01*
X207222914Y-78265713D02*
X207270533Y-78360951D01*
X189142261Y-60850057D02*
X189047023Y-60802438D01*
X189047023Y-60802438D02*
X188951785Y-60707200D01*
X188951785Y-60707200D02*
X188808928Y-60564342D01*
X188808928Y-60564342D02*
X188713690Y-60516723D01*
X188713690Y-60516723D02*
X188618452Y-60516723D01*
X188666071Y-60754819D02*
X188570833Y-60707200D01*
X188570833Y-60707200D02*
X188475595Y-60611961D01*
X188475595Y-60611961D02*
X188427976Y-60421485D01*
X188427976Y-60421485D02*
X188427976Y-60088152D01*
X188427976Y-60088152D02*
X188475595Y-59897676D01*
X188475595Y-59897676D02*
X188570833Y-59802438D01*
X188570833Y-59802438D02*
X188666071Y-59754819D01*
X188666071Y-59754819D02*
X188856547Y-59754819D01*
X188856547Y-59754819D02*
X188951785Y-59802438D01*
X188951785Y-59802438D02*
X189047023Y-59897676D01*
X189047023Y-59897676D02*
X189094642Y-60088152D01*
X189094642Y-60088152D02*
X189094642Y-60421485D01*
X189094642Y-60421485D02*
X189047023Y-60611961D01*
X189047023Y-60611961D02*
X188951785Y-60707200D01*
X188951785Y-60707200D02*
X188856547Y-60754819D01*
X188856547Y-60754819D02*
X188666071Y-60754819D01*
X190047023Y-60754819D02*
X189475595Y-60754819D01*
X189761309Y-60754819D02*
X189761309Y-59754819D01*
X189761309Y-59754819D02*
X189666071Y-59897676D01*
X189666071Y-59897676D02*
X189570833Y-59992914D01*
X189570833Y-59992914D02*
X189475595Y-60040533D01*
X187608333Y-78809580D02*
X187560714Y-78857200D01*
X187560714Y-78857200D02*
X187417857Y-78904819D01*
X187417857Y-78904819D02*
X187322619Y-78904819D01*
X187322619Y-78904819D02*
X187179762Y-78857200D01*
X187179762Y-78857200D02*
X187084524Y-78761961D01*
X187084524Y-78761961D02*
X187036905Y-78666723D01*
X187036905Y-78666723D02*
X186989286Y-78476247D01*
X186989286Y-78476247D02*
X186989286Y-78333390D01*
X186989286Y-78333390D02*
X187036905Y-78142914D01*
X187036905Y-78142914D02*
X187084524Y-78047676D01*
X187084524Y-78047676D02*
X187179762Y-77952438D01*
X187179762Y-77952438D02*
X187322619Y-77904819D01*
X187322619Y-77904819D02*
X187417857Y-77904819D01*
X187417857Y-77904819D02*
X187560714Y-77952438D01*
X187560714Y-77952438D02*
X187608333Y-78000057D01*
X188560714Y-78904819D02*
X187989286Y-78904819D01*
X188275000Y-78904819D02*
X188275000Y-77904819D01*
X188275000Y-77904819D02*
X188179762Y-78047676D01*
X188179762Y-78047676D02*
X188084524Y-78142914D01*
X188084524Y-78142914D02*
X187989286Y-78190533D01*
D11*
X145870000Y-57804420D02*
X145870000Y-58085580D01*
X144850000Y-57804420D02*
X144850000Y-58085580D01*
X61105748Y-83090000D02*
X58274252Y-83090000D01*
X61105748Y-77870000D02*
X58274252Y-77870000D01*
X97277500Y-102342258D02*
X97277500Y-101867742D01*
X98322500Y-102342258D02*
X98322500Y-101867742D01*
X143350000Y-104300000D02*
X145750000Y-104300000D01*
X143350000Y-106700000D02*
X143350000Y-104300000D01*
X145750000Y-104300000D02*
X145750000Y-106700000D01*
X145750000Y-106700000D02*
X143350000Y-106700000D01*
X179650000Y-72110000D02*
X173640000Y-72110000D01*
X177400000Y-65290000D02*
X173640000Y-65290000D01*
X173640000Y-72110000D02*
X173640000Y-70850000D01*
X173640000Y-65290000D02*
X173640000Y-66550000D01*
X176890000Y-63203080D02*
X176890000Y-62921920D01*
X177910000Y-63203080D02*
X177910000Y-62921920D01*
X229630000Y-73330000D02*
X228300000Y-73330000D01*
X229630000Y-72000000D02*
X229630000Y-73330000D01*
X229630000Y-70730000D02*
X229630000Y-68130000D01*
X229630000Y-70730000D02*
X226970000Y-70730000D01*
X229630000Y-68130000D02*
X226970000Y-68130000D01*
X226970000Y-70730000D02*
X226970000Y-68130000D01*
X55871252Y-98105000D02*
X55348748Y-98105000D01*
X55871252Y-96635000D02*
X55348748Y-96635000D01*
X180077258Y-99492500D02*
X179602742Y-99492500D01*
X180077258Y-98447500D02*
X179602742Y-98447500D01*
X67240000Y-77530000D02*
X63940000Y-77530000D01*
X67240000Y-77530000D02*
X67240000Y-83040000D01*
X63940000Y-77530000D02*
X63940000Y-83040000D01*
X142827742Y-56667500D02*
X143302258Y-56667500D01*
X142827742Y-57712500D02*
X143302258Y-57712500D01*
X87980000Y-110662500D02*
X87980000Y-107062500D01*
X87980000Y-110662500D02*
X87980000Y-112862500D01*
X82510000Y-110662500D02*
X82510000Y-108462500D01*
X82510000Y-110662500D02*
X82510000Y-112862500D01*
X144790000Y-53978080D02*
X144790000Y-53696920D01*
X145810000Y-53978080D02*
X145810000Y-53696920D01*
X170922500Y-75467742D02*
X170922500Y-75942258D01*
X169877500Y-75467742D02*
X169877500Y-75942258D01*
X112645580Y-116715000D02*
X112364420Y-116715000D01*
X112645580Y-115695000D02*
X112364420Y-115695000D01*
X146933333Y-104300000D02*
X149333333Y-104300000D01*
X146933333Y-106700000D02*
X146933333Y-104300000D01*
X149333333Y-104300000D02*
X149333333Y-106700000D01*
X149333333Y-106700000D02*
X146933333Y-106700000D01*
X54362500Y-86317742D02*
X54362500Y-86792258D01*
X53317500Y-86317742D02*
X53317500Y-86792258D01*
X114015000Y-110662500D02*
X114015000Y-107062500D01*
X114015000Y-110662500D02*
X114015000Y-112862500D01*
X108545000Y-110662500D02*
X108545000Y-108462500D01*
X108545000Y-110662500D02*
X108545000Y-112862500D01*
X60570000Y-98780000D02*
X60570000Y-87280000D01*
X63370000Y-98780000D02*
X60570000Y-98780000D01*
X70570000Y-98780000D02*
X67770000Y-98780000D01*
X60570000Y-87280000D02*
X63370000Y-87280000D01*
X67770000Y-87280000D02*
X70570000Y-87280000D01*
X70570000Y-87280000D02*
X70570000Y-98780000D01*
X174030000Y-55330000D02*
X174030000Y-54000000D01*
X175360000Y-55330000D02*
X174030000Y-55330000D01*
X176630000Y-55330000D02*
X189390000Y-55330000D01*
X176630000Y-55330000D02*
X176630000Y-52670000D01*
X189390000Y-55330000D02*
X189390000Y-52670000D01*
X176630000Y-52670000D02*
X189390000Y-52670000D01*
X217137500Y-118312258D02*
X217137500Y-117837742D01*
X218182500Y-118312258D02*
X218182500Y-117837742D01*
X190122500Y-66175242D02*
X190122500Y-66649758D01*
X189077500Y-66175242D02*
X189077500Y-66649758D01*
X94757500Y-102357258D02*
X94757500Y-101882742D01*
X95802500Y-102357258D02*
X95802500Y-101882742D01*
X219305000Y-92228748D02*
X219305000Y-92751252D01*
X217835000Y-92228748D02*
X217835000Y-92751252D01*
X142890000Y-53978080D02*
X142890000Y-53696920D01*
X143910000Y-53978080D02*
X143910000Y-53696920D01*
X97117500Y-95697742D02*
X97117500Y-96172258D01*
X96072500Y-95697742D02*
X96072500Y-96172258D01*
X86635580Y-116735000D02*
X86354420Y-116735000D01*
X86635580Y-115715000D02*
X86354420Y-115715000D01*
X99837500Y-102342258D02*
X99837500Y-101867742D01*
X100882500Y-102342258D02*
X100882500Y-101867742D01*
X175996920Y-73890000D02*
X176278080Y-73890000D01*
X175996920Y-74910000D02*
X176278080Y-74910000D01*
X107127500Y-95727742D02*
X107127500Y-96202258D01*
X106082500Y-95727742D02*
X106082500Y-96202258D01*
X82277500Y-102362258D02*
X82277500Y-101887742D01*
X83322500Y-102362258D02*
X83322500Y-101887742D01*
X211280000Y-65220000D02*
X210540000Y-65220000D01*
X210540000Y-65220000D02*
X210540000Y-65720000D01*
X222100000Y-65460000D02*
X210780000Y-65460000D01*
X222100000Y-65460000D02*
X222100000Y-75740000D01*
X220040000Y-65460000D02*
X220040000Y-75740000D01*
X213840000Y-65460000D02*
X213840000Y-75740000D01*
X211340000Y-65460000D02*
X211340000Y-75740000D01*
X210780000Y-65460000D02*
X210780000Y-75740000D01*
X214859000Y-66512000D02*
X214752000Y-66406000D01*
X214593000Y-66778000D02*
X214486000Y-66672000D01*
X217794000Y-69448000D02*
X217687000Y-69341000D01*
X217528000Y-69714000D02*
X217421000Y-69607000D01*
X215148000Y-71882000D02*
X214752000Y-71487000D01*
X214866000Y-72133000D02*
X214486000Y-71753000D01*
X217794000Y-74528000D02*
X217414000Y-74148000D01*
X217528000Y-74794000D02*
X217132000Y-74399000D01*
X222100000Y-75740000D02*
X210780000Y-75740000D01*
X218320000Y-68060000D02*
G75*
G03*
X218320000Y-68060000I-2180000J0D01*
G01*
X218320000Y-73140000D02*
G75*
G03*
X218320000Y-73140000I-2180000J0D01*
G01*
X116115000Y-50925000D02*
X115115000Y-50925000D01*
X115115000Y-50925000D02*
X115615000Y-51925000D01*
X115615000Y-51925000D02*
X116115000Y-50925000D01*
X126695000Y-52315000D02*
X126695000Y-59645000D01*
X74055000Y-52315000D02*
X126695000Y-52315000D01*
X126695000Y-59645000D02*
X123225000Y-69305000D01*
X74055000Y-59645000D02*
X74055000Y-52315000D01*
X118405000Y-65745000D02*
X82345000Y-65745000D01*
X82345000Y-65745000D02*
X81715000Y-69305000D01*
X123225000Y-69305000D02*
X119035000Y-69305000D01*
X119035000Y-69305000D02*
X118405000Y-65745000D01*
X81715000Y-69305000D02*
X77525000Y-69305000D01*
X77525000Y-69305000D02*
X74055000Y-59645000D01*
X181065000Y-65525000D02*
X181065000Y-67225000D01*
X181065000Y-65525000D02*
X183725000Y-65525000D01*
X181065000Y-67225000D02*
X183725000Y-67225000D01*
X102077500Y-95697742D02*
X102077500Y-96172258D01*
X101032500Y-95697742D02*
X101032500Y-96172258D01*
X147650000Y-51890000D02*
X148750000Y-51890000D01*
X147700000Y-71390000D02*
X147700000Y-70390000D01*
X147700000Y-71390000D02*
X148700000Y-71390000D01*
X147850000Y-52040000D02*
X147850000Y-52540000D01*
X147850000Y-70390000D02*
X147850000Y-71240000D01*
X147850000Y-71240000D02*
X149150000Y-71240000D01*
X165850000Y-52040000D02*
X147850000Y-52040000D01*
X165850000Y-52040000D02*
X165850000Y-52540000D01*
X165850000Y-70490000D02*
X165850000Y-71240000D01*
X165850000Y-71240000D02*
X164500000Y-71240000D01*
X166000000Y-51890000D02*
X165000000Y-51890000D01*
X166000000Y-52540000D02*
X166000000Y-51890000D01*
X166000000Y-70490000D02*
X166000000Y-71390000D01*
X166000000Y-71390000D02*
X165000000Y-71390000D01*
X54552500Y-109837500D02*
X54552500Y-109050000D01*
X54158750Y-109443750D02*
X54946250Y-109443750D01*
X54054437Y-108810000D02*
X55340000Y-108810000D01*
X54054437Y-108810000D02*
X52990000Y-107745563D01*
X58745563Y-108810000D02*
X57460000Y-108810000D01*
X58745563Y-108810000D02*
X59810000Y-107745563D01*
X52990000Y-107745563D02*
X52990000Y-101990000D01*
X59810000Y-107745563D02*
X59810000Y-101990000D01*
X52990000Y-101990000D02*
X55340000Y-101990000D01*
X59810000Y-101990000D02*
X57460000Y-101990000D01*
X117042500Y-95677742D02*
X117042500Y-96152258D01*
X115997500Y-95677742D02*
X115997500Y-96152258D01*
X68872500Y-114712742D02*
X68872500Y-115187258D01*
X67827500Y-114712742D02*
X67827500Y-115187258D01*
X228347500Y-88562500D02*
X228347500Y-89350000D01*
X228741250Y-88956250D02*
X227953750Y-88956250D01*
X228845563Y-89590000D02*
X227560000Y-89590000D01*
X228845563Y-89590000D02*
X229910000Y-90654437D01*
X224154437Y-89590000D02*
X225440000Y-89590000D01*
X224154437Y-89590000D02*
X223090000Y-90654437D01*
X229910000Y-90654437D02*
X229910000Y-96410000D01*
X223090000Y-90654437D02*
X223090000Y-96410000D01*
X229910000Y-96410000D02*
X227560000Y-96410000D01*
X223090000Y-96410000D02*
X225440000Y-96410000D01*
X65327500Y-121312258D02*
X65327500Y-120837742D01*
X66372500Y-121312258D02*
X66372500Y-120837742D01*
X110292500Y-95692742D02*
X110292500Y-96167258D01*
X109247500Y-95692742D02*
X109247500Y-96167258D01*
X198730000Y-80860000D02*
X198730000Y-84160000D01*
X198730000Y-80860000D02*
X204240000Y-80860000D01*
X198730000Y-84160000D02*
X204240000Y-84160000D01*
X87847500Y-95737742D02*
X87847500Y-96212258D01*
X86802500Y-95737742D02*
X86802500Y-96212258D01*
X208277500Y-92097258D02*
X208277500Y-91622742D01*
X209322500Y-92097258D02*
X209322500Y-91622742D01*
X99565580Y-116717500D02*
X99284420Y-116717500D01*
X99565580Y-115697500D02*
X99284420Y-115697500D01*
X112447500Y-96157258D02*
X112447500Y-95682742D01*
X113492500Y-96157258D02*
X113492500Y-95682742D01*
X84897500Y-95727742D02*
X84897500Y-96202258D01*
X83852500Y-95727742D02*
X83852500Y-96202258D01*
X62040000Y-112550000D02*
X62040000Y-106540000D01*
X68860000Y-110300000D02*
X68860000Y-106540000D01*
X62040000Y-106540000D02*
X63300000Y-106540000D01*
X68860000Y-106540000D02*
X67600000Y-106540000D01*
X198900000Y-76800000D02*
X201300000Y-76800000D01*
X198900000Y-79200000D02*
X198900000Y-76800000D01*
X201300000Y-76800000D02*
X201300000Y-79200000D01*
X201300000Y-79200000D02*
X198900000Y-79200000D01*
X56002742Y-87077500D02*
X56477258Y-87077500D01*
X56002742Y-88122500D02*
X56477258Y-88122500D01*
X172050000Y-64360000D02*
X173750000Y-64360000D01*
X172050000Y-64360000D02*
X172050000Y-61700000D01*
X173750000Y-64360000D02*
X173750000Y-61700000D01*
X110837500Y-102337258D02*
X110837500Y-101862742D01*
X111882500Y-102337258D02*
X111882500Y-101862742D01*
X99627500Y-95697742D02*
X99627500Y-96172258D01*
X98582500Y-95697742D02*
X98582500Y-96172258D01*
X180052258Y-102692500D02*
X179577742Y-102692500D01*
X180052258Y-101647500D02*
X179577742Y-101647500D01*
X183712500Y-59460000D02*
X185387500Y-59460000D01*
X183712500Y-59460000D02*
X183062500Y-59460000D01*
X183712500Y-56340000D02*
X184362500Y-56340000D01*
X183712500Y-56340000D02*
X183062500Y-56340000D01*
X176021920Y-76790000D02*
X176303080Y-76790000D01*
X176021920Y-77810000D02*
X176303080Y-77810000D01*
X68150000Y-74160000D02*
X66900000Y-74160000D01*
X67525000Y-74785000D02*
X67525000Y-73535000D01*
X66660000Y-75595563D02*
X66660000Y-72910000D01*
X66660000Y-75595563D02*
X65595563Y-76660000D01*
X66660000Y-67204437D02*
X66660000Y-69890000D01*
X66660000Y-67204437D02*
X65595563Y-66140000D01*
X65595563Y-76660000D02*
X56140000Y-76660000D01*
X65595563Y-66140000D02*
X56140000Y-66140000D01*
X56140000Y-76660000D02*
X56140000Y-72910000D01*
X56140000Y-66140000D02*
X56140000Y-69890000D01*
X204290000Y-86994252D02*
X204290000Y-89825748D01*
X199070000Y-86994252D02*
X199070000Y-89825748D01*
X63427500Y-121312258D02*
X63427500Y-120837742D01*
X64472500Y-121312258D02*
X64472500Y-120837742D01*
X195360000Y-79950000D02*
X195360000Y-81200000D01*
X195985000Y-80575000D02*
X194735000Y-80575000D01*
X196795563Y-81440000D02*
X194110000Y-81440000D01*
X196795563Y-81440000D02*
X197860000Y-82504437D01*
X188404437Y-81440000D02*
X191090000Y-81440000D01*
X188404437Y-81440000D02*
X187340000Y-82504437D01*
X197860000Y-82504437D02*
X197860000Y-91960000D01*
X187340000Y-82504437D02*
X187340000Y-91960000D01*
X197860000Y-91960000D02*
X194110000Y-91960000D01*
X187340000Y-91960000D02*
X191090000Y-91960000D01*
X150685000Y-79660000D02*
X150685000Y-79410000D01*
X150685000Y-76190000D02*
X150685000Y-75940000D01*
X150685000Y-75940000D02*
X145765000Y-75940000D01*
X145765000Y-79660000D02*
X150685000Y-79660000D01*
X145765000Y-79660000D02*
X145765000Y-79410000D01*
X145765000Y-76190000D02*
X145765000Y-75940000D01*
X139766667Y-104300000D02*
X142166667Y-104300000D01*
X139766667Y-106700000D02*
X139766667Y-104300000D01*
X142166667Y-104300000D02*
X142166667Y-106700000D01*
X142166667Y-106700000D02*
X139766667Y-106700000D01*
X214200000Y-114580000D02*
X213060000Y-114580000D01*
X213060000Y-114810000D02*
X213060000Y-114580000D01*
X213060000Y-114810000D02*
X210340000Y-114810000D01*
X213060000Y-110090000D02*
X213060000Y-110320000D01*
X210340000Y-114810000D02*
X210340000Y-113500000D01*
X210340000Y-111400000D02*
X210340000Y-110090000D01*
X210340000Y-110090000D02*
X213060000Y-110090000D01*
X171970000Y-88110000D02*
X173300000Y-88110000D01*
X171970000Y-89440000D02*
X171970000Y-88110000D01*
X171970000Y-90710000D02*
X171970000Y-103470000D01*
X171970000Y-90710000D02*
X174630000Y-90710000D01*
X171970000Y-103470000D02*
X174630000Y-103470000D01*
X174630000Y-90710000D02*
X174630000Y-103470000D01*
X215587742Y-107627500D02*
X216062258Y-107627500D01*
X215587742Y-108672500D02*
X216062258Y-108672500D01*
X229410000Y-76830000D02*
X229410000Y-82840000D01*
X222590000Y-79080000D02*
X222590000Y-82840000D01*
X229410000Y-82840000D02*
X228150000Y-82840000D01*
X222590000Y-82840000D02*
X223850000Y-82840000D01*
X179090000Y-63203080D02*
X179090000Y-62921920D01*
X180110000Y-63203080D02*
X180110000Y-62921920D01*
X164585000Y-79710000D02*
X164585000Y-79460000D01*
X164585000Y-76240000D02*
X164585000Y-75990000D01*
X164585000Y-75990000D02*
X159665000Y-75990000D01*
X159665000Y-79710000D02*
X164585000Y-79710000D01*
X159665000Y-79710000D02*
X159665000Y-79460000D01*
X159665000Y-76240000D02*
X159665000Y-75990000D01*
X115312500Y-101862742D02*
X115312500Y-102337258D01*
X114267500Y-101862742D02*
X114267500Y-102337258D01*
X213707500Y-92630000D02*
X215507500Y-92630000D01*
X215507500Y-89410000D02*
X212557500Y-89410000D01*
X107677500Y-102337258D02*
X107677500Y-101862742D01*
X108722500Y-102337258D02*
X108722500Y-101862742D01*
X90747500Y-95727742D02*
X90747500Y-96202258D01*
X89702500Y-95727742D02*
X89702500Y-96202258D01*
X189050242Y-61477500D02*
X189524758Y-61477500D01*
X189050242Y-62522500D02*
X189524758Y-62522500D01*
X64250000Y-59950000D02*
X66650000Y-59950000D01*
X64250000Y-62350000D02*
X64250000Y-59950000D01*
X66650000Y-59950000D02*
X66650000Y-62350000D01*
X66650000Y-62350000D02*
X64250000Y-62350000D01*
X186722500Y-66175242D02*
X186722500Y-66649758D01*
X185677500Y-66175242D02*
X185677500Y-66649758D01*
X207517742Y-93737500D02*
X207992258Y-93737500D01*
X207517742Y-94782500D02*
X207992258Y-94782500D01*
X169640000Y-81227500D02*
X171110000Y-81227500D01*
X171110000Y-81227500D02*
X171110000Y-78942500D01*
X169640000Y-78942500D02*
X169640000Y-81227500D01*
X81937500Y-95717742D02*
X81937500Y-96192258D01*
X80892500Y-95717742D02*
X80892500Y-96192258D01*
X150516667Y-104300000D02*
X152916667Y-104300000D01*
X150516667Y-106700000D02*
X150516667Y-104300000D01*
X152916667Y-104300000D02*
X152916667Y-106700000D01*
X152916667Y-106700000D02*
X150516667Y-106700000D01*
X100997500Y-110662500D02*
X100997500Y-107062500D01*
X100997500Y-110662500D02*
X100997500Y-112862500D01*
X95527500Y-110662500D02*
X95527500Y-108462500D01*
X95527500Y-110662500D02*
X95527500Y-112862500D01*
X66130000Y-118760000D02*
X64990000Y-118760000D01*
X64990000Y-118990000D02*
X64990000Y-118760000D01*
X64990000Y-118990000D02*
X62270000Y-118990000D01*
X64990000Y-114270000D02*
X64990000Y-114500000D01*
X62270000Y-118990000D02*
X62270000Y-117680000D01*
X62270000Y-115580000D02*
X62270000Y-114270000D01*
X62270000Y-114270000D02*
X64990000Y-114270000D01*
X217137500Y-114252258D02*
X217137500Y-113777742D01*
X218182500Y-114252258D02*
X218182500Y-113777742D01*
X55470000Y-92507500D02*
X55470000Y-94307500D01*
X58690000Y-94307500D02*
X58690000Y-91357500D01*
X88177500Y-102362258D02*
X88177500Y-101887742D01*
X89222500Y-102362258D02*
X89222500Y-101887742D01*
X183912258Y-62522500D02*
X183437742Y-62522500D01*
X183912258Y-61477500D02*
X183437742Y-61477500D01*
X211300000Y-53710000D02*
X210560000Y-53710000D01*
X210560000Y-53710000D02*
X210560000Y-54210000D01*
X222120000Y-53950000D02*
X210800000Y-53950000D01*
X222120000Y-53950000D02*
X222120000Y-64230000D01*
X220060000Y-53950000D02*
X220060000Y-64230000D01*
X213860000Y-53950000D02*
X213860000Y-64230000D01*
X211360000Y-53950000D02*
X211360000Y-64230000D01*
X210800000Y-53950000D02*
X210800000Y-64230000D01*
X214879000Y-55002000D02*
X214772000Y-54896000D01*
X214613000Y-55268000D02*
X214506000Y-55162000D01*
X217814000Y-57938000D02*
X217707000Y-57831000D01*
X217548000Y-58204000D02*
X217441000Y-58097000D01*
X215168000Y-60372000D02*
X214772000Y-59977000D01*
X214886000Y-60623000D02*
X214506000Y-60243000D01*
X217814000Y-63018000D02*
X217434000Y-62638000D01*
X217548000Y-63284000D02*
X217152000Y-62889000D01*
X222120000Y-64230000D02*
X210800000Y-64230000D01*
X218340000Y-56550000D02*
G75*
G03*
X218340000Y-56550000I-2180000J0D01*
G01*
X218340000Y-61630000D02*
G75*
G03*
X218340000Y-61630000I-2180000J0D01*
G01*
X85202500Y-102362258D02*
X85202500Y-101887742D01*
X86247500Y-102362258D02*
X86247500Y-101887742D01*
X219980000Y-87530000D02*
X208480000Y-87530000D01*
X219980000Y-84730000D02*
X219980000Y-87530000D01*
X219980000Y-77530000D02*
X219980000Y-80330000D01*
X208480000Y-87530000D02*
X208480000Y-84730000D01*
X208480000Y-80330000D02*
X208480000Y-77530000D01*
X208480000Y-77530000D02*
X219980000Y-77530000D01*
X189237500Y-59460000D02*
X190912500Y-59460000D01*
X189237500Y-59460000D02*
X188587500Y-59460000D01*
X189237500Y-56340000D02*
X189887500Y-56340000D01*
X189237500Y-56340000D02*
X188587500Y-56340000D01*
X192212500Y-75947500D02*
X191425000Y-75947500D01*
X191818750Y-76341250D02*
X191818750Y-75553750D01*
X191185000Y-76445563D02*
X191185000Y-75160000D01*
X191185000Y-76445563D02*
X190120563Y-77510000D01*
X191185000Y-71754437D02*
X191185000Y-73040000D01*
X191185000Y-71754437D02*
X190120563Y-70690000D01*
X190120563Y-77510000D02*
X184365000Y-77510000D01*
X190120563Y-70690000D02*
X184365000Y-70690000D01*
X184365000Y-77510000D02*
X184365000Y-75160000D01*
X184365000Y-70690000D02*
X184365000Y-73040000D01*
%LPC*%
D12*
X230000000Y-119000000D03*
D13*
X145360000Y-57170000D03*
X145360000Y-58720000D03*
D14*
X62240000Y-80480000D03*
X57140000Y-80480000D03*
D15*
X97800000Y-102930000D03*
X97800000Y-101280000D03*
D16*
X144550000Y-105500000D03*
D17*
X178700000Y-71000000D03*
X178700000Y-68700000D03*
X178700000Y-66400000D03*
D18*
X172400000Y-68700000D03*
D19*
X177400000Y-63837500D03*
X177400000Y-62287500D03*
D20*
X228300000Y-72000000D03*
D21*
X228300000Y-69460000D03*
D22*
X56560000Y-97370000D03*
X54660000Y-97370000D03*
D23*
X180665000Y-98970000D03*
X179015000Y-98970000D03*
D24*
X65590000Y-79040000D03*
X65590000Y-83040000D03*
D12*
X230000000Y-60000000D03*
D25*
X142240000Y-57190000D03*
X143890000Y-57190000D03*
D26*
X87520000Y-107800000D03*
X86870000Y-107800000D03*
X86220000Y-107800000D03*
X85570000Y-107800000D03*
X84920000Y-107800000D03*
X84270000Y-107800000D03*
X83620000Y-107800000D03*
X82970000Y-107800000D03*
X82970000Y-113525000D03*
X83620000Y-113525000D03*
X84270000Y-113525000D03*
X84920000Y-113525000D03*
X85570000Y-113525000D03*
X86220000Y-113525000D03*
X86870000Y-113525000D03*
X87520000Y-113525000D03*
D19*
X145300000Y-54612500D03*
X145300000Y-53062500D03*
D27*
X170400000Y-74880000D03*
X170400000Y-76530000D03*
D28*
X113280000Y-116205000D03*
X111730000Y-116205000D03*
D16*
X148133333Y-105500000D03*
D27*
X53840000Y-85730000D03*
X53840000Y-87380000D03*
D26*
X113555000Y-107800000D03*
X112905000Y-107800000D03*
X112255000Y-107800000D03*
X111605000Y-107800000D03*
X110955000Y-107800000D03*
X110305000Y-107800000D03*
X109655000Y-107800000D03*
X109005000Y-107800000D03*
X109005000Y-113525000D03*
X109655000Y-113525000D03*
X110305000Y-113525000D03*
X110955000Y-113525000D03*
X111605000Y-113525000D03*
X112255000Y-113525000D03*
X112905000Y-113525000D03*
X113555000Y-113525000D03*
D29*
X65570000Y-97780000D03*
X65570000Y-88280000D03*
D20*
X175360000Y-54000000D03*
D21*
X177900000Y-54000000D03*
X180440000Y-54000000D03*
X182980000Y-54000000D03*
X185520000Y-54000000D03*
X188060000Y-54000000D03*
D15*
X217660000Y-118900000D03*
X217660000Y-117250000D03*
D27*
X189600000Y-65587500D03*
X189600000Y-67237500D03*
D15*
X95280000Y-102945000D03*
X95280000Y-101295000D03*
D30*
X218570000Y-91540000D03*
X218570000Y-93440000D03*
D19*
X143400000Y-54612500D03*
X143400000Y-53062500D03*
D27*
X96595000Y-95110000D03*
X96595000Y-96760000D03*
D28*
X87270000Y-116225000D03*
X85720000Y-116225000D03*
D15*
X100360000Y-102930000D03*
X100360000Y-101280000D03*
D31*
X175362500Y-74400000D03*
X176912500Y-74400000D03*
D27*
X106605000Y-95140000D03*
X106605000Y-96790000D03*
D15*
X82800000Y-102950000D03*
X82800000Y-101300000D03*
D32*
X216140000Y-68060000D03*
D33*
X216140000Y-73140000D03*
D34*
X115615000Y-53665000D03*
D35*
X115615000Y-56205000D03*
X113075000Y-53665000D03*
X113075000Y-56205000D03*
X110535000Y-53665000D03*
X110535000Y-56205000D03*
X107995000Y-53665000D03*
X107995000Y-56205000D03*
X105455000Y-53665000D03*
X105455000Y-56205000D03*
X102915000Y-53665000D03*
X102915000Y-56205000D03*
X100375000Y-53665000D03*
X100375000Y-56205000D03*
X97835000Y-53665000D03*
X97835000Y-56205000D03*
X95295000Y-53665000D03*
X95295000Y-56205000D03*
X92755000Y-53665000D03*
X92755000Y-56205000D03*
X90215000Y-53665000D03*
X90215000Y-56205000D03*
X87675000Y-53665000D03*
X87675000Y-56205000D03*
X85135000Y-53665000D03*
X85135000Y-56205000D03*
D36*
X181625000Y-66375000D03*
X183725000Y-66375000D03*
D12*
X55000000Y-60000000D03*
D27*
X101555000Y-95110000D03*
X101555000Y-96760000D03*
D37*
X148100000Y-53230000D03*
X148100000Y-54500000D03*
X148100000Y-55770000D03*
X148100000Y-57040000D03*
X148100000Y-58310000D03*
X148100000Y-59580000D03*
X148100000Y-60850000D03*
X148100000Y-62120000D03*
X148100000Y-63390000D03*
X148100000Y-64660000D03*
X148100000Y-65930000D03*
X148100000Y-67200000D03*
X148100000Y-68470000D03*
X148100000Y-69740000D03*
D38*
X149865000Y-70990000D03*
X151135000Y-70990000D03*
X152405000Y-70990000D03*
X153675000Y-70990000D03*
X154945000Y-70990000D03*
X156215000Y-70990000D03*
X157485000Y-70990000D03*
X158755000Y-70990000D03*
X160025000Y-70990000D03*
X161295000Y-70990000D03*
X162565000Y-70990000D03*
X163835000Y-70990000D03*
D37*
X165600000Y-69740000D03*
X165600000Y-68470000D03*
X165600000Y-67200000D03*
X165600000Y-65930000D03*
X165600000Y-64660000D03*
X165600000Y-63390000D03*
X165600000Y-62120000D03*
X165600000Y-60850000D03*
X165600000Y-59580000D03*
X165600000Y-58310000D03*
X165600000Y-57040000D03*
X165600000Y-55770000D03*
X165600000Y-54500000D03*
X165600000Y-53230000D03*
D39*
X153950000Y-59550000D03*
X153950000Y-60950000D03*
X153950000Y-62350000D03*
X155350000Y-59550000D03*
X155350000Y-60950000D03*
X155350000Y-62350000D03*
X156750000Y-59550000D03*
X156750000Y-60950000D03*
X156750000Y-62350000D03*
D40*
X56400000Y-108100000D03*
X56400000Y-102700000D03*
D27*
X116520000Y-95090000D03*
X116520000Y-96740000D03*
X68350000Y-114125000D03*
X68350000Y-115775000D03*
D41*
X226500000Y-90300000D03*
X226500000Y-95700000D03*
D15*
X65850000Y-121900000D03*
X65850000Y-120250000D03*
D27*
X109770000Y-95105000D03*
X109770000Y-96755000D03*
D42*
X200240000Y-82510000D03*
X204240000Y-82510000D03*
D27*
X87325000Y-95150000D03*
X87325000Y-96800000D03*
D15*
X208800000Y-92685000D03*
X208800000Y-91035000D03*
D28*
X100200000Y-116207500D03*
X98650000Y-116207500D03*
D15*
X112970000Y-96745000D03*
X112970000Y-95095000D03*
D27*
X84375000Y-95140000D03*
X84375000Y-96790000D03*
D43*
X63150000Y-111600000D03*
X65450000Y-111600000D03*
D44*
X65450000Y-105300000D03*
D43*
X67750000Y-111600000D03*
D16*
X200100000Y-78000000D03*
D25*
X55415000Y-87600000D03*
X57065000Y-87600000D03*
D45*
X172900000Y-63800000D03*
X172900000Y-61700000D03*
D15*
X111360000Y-102925000D03*
X111360000Y-101275000D03*
D27*
X99105000Y-95110000D03*
X99105000Y-96760000D03*
D23*
X180640000Y-102170000D03*
X178990000Y-102170000D03*
D46*
X184650000Y-58850000D03*
X184650000Y-56950000D03*
X182775000Y-57900000D03*
D31*
X175387500Y-77300000D03*
X176937500Y-77300000D03*
D47*
X65400000Y-71400000D03*
X57400000Y-71400000D03*
D48*
X201680000Y-85860000D03*
X201680000Y-90960000D03*
D15*
X63950000Y-121900000D03*
X63950000Y-120250000D03*
D49*
X192600000Y-82700000D03*
X192600000Y-90700000D03*
D50*
X150800000Y-78650000D03*
X145650000Y-78650000D03*
X150800000Y-76950000D03*
X145650000Y-76950000D03*
D16*
X140966667Y-105500000D03*
D51*
X213650000Y-113950000D03*
D52*
X213562500Y-112450000D03*
D51*
X213650000Y-110950000D03*
D20*
X173300000Y-89440000D03*
D21*
X173300000Y-91980000D03*
X173300000Y-94520000D03*
X173300000Y-97060000D03*
X173300000Y-99600000D03*
X173300000Y-102140000D03*
D25*
X215000000Y-108150000D03*
X216650000Y-108150000D03*
D43*
X228300000Y-77780000D03*
X226000000Y-77780000D03*
D44*
X226000000Y-84080000D03*
D43*
X223700000Y-77780000D03*
D19*
X179600000Y-63837500D03*
X179600000Y-62287500D03*
D50*
X164700000Y-78700000D03*
X159550000Y-78700000D03*
X164700000Y-77000000D03*
X159550000Y-77000000D03*
D27*
X114790000Y-101275000D03*
X114790000Y-102925000D03*
D53*
X213257500Y-90070000D03*
X213257500Y-91020000D03*
X213257500Y-91970000D03*
X215957500Y-91970000D03*
X215957500Y-91020000D03*
X215957500Y-90070000D03*
D15*
X108200000Y-102925000D03*
X108200000Y-101275000D03*
D27*
X90225000Y-95140000D03*
X90225000Y-96790000D03*
D25*
X188462500Y-62000000D03*
X190112500Y-62000000D03*
D16*
X65450000Y-61150000D03*
D27*
X186200000Y-65587500D03*
X186200000Y-67237500D03*
D25*
X206930000Y-94260000D03*
X208580000Y-94260000D03*
D54*
X170375000Y-80530000D03*
X170375000Y-78955000D03*
D27*
X81415000Y-95130000D03*
X81415000Y-96780000D03*
D16*
X151716667Y-105500000D03*
D26*
X100537500Y-107800000D03*
X99887500Y-107800000D03*
X99237500Y-107800000D03*
X98587500Y-107800000D03*
X97937500Y-107800000D03*
X97287500Y-107800000D03*
X96637500Y-107800000D03*
X95987500Y-107800000D03*
X95987500Y-113525000D03*
X96637500Y-113525000D03*
X97287500Y-113525000D03*
X97937500Y-113525000D03*
X98587500Y-113525000D03*
X99237500Y-113525000D03*
X99887500Y-113525000D03*
X100537500Y-113525000D03*
D51*
X65580000Y-118130000D03*
D52*
X65492500Y-116630000D03*
D51*
X65580000Y-115130000D03*
D15*
X217660000Y-114840000D03*
X217660000Y-113190000D03*
D55*
X58030000Y-92057500D03*
X57080000Y-92057500D03*
X56130000Y-92057500D03*
X56130000Y-94757500D03*
X57080000Y-94757500D03*
X58030000Y-94757500D03*
D15*
X88700000Y-102950000D03*
X88700000Y-101300000D03*
D23*
X184500000Y-62000000D03*
X182850000Y-62000000D03*
D32*
X216160000Y-56550000D03*
D33*
X216160000Y-61630000D03*
D15*
X85725000Y-102950000D03*
X85725000Y-101300000D03*
D29*
X218980000Y-82530000D03*
X209480000Y-82530000D03*
D46*
X190175000Y-58850000D03*
X190175000Y-56950000D03*
X188300000Y-57900000D03*
D56*
X190475000Y-74100000D03*
X185075000Y-74100000D03*
D12*
X55000000Y-119000000D03*
%LPD*%
M02*
