%TF.GenerationSoftware,KiCad,Pcbnew,7.0.9*%
%TF.CreationDate,2023-12-07T14:08:02+01:00*%
%TF.ProjectId,ESP32-S3_flipdot,45535033-322d-4533-935f-666c6970646f,rev?*%
%TF.SameCoordinates,Original*%
%TF.FileFunction,Drillmap*%
%TF.FilePolarity,Positive*%
%FSLAX45Y45*%
G04 Gerber Fmt 4.5, Leading zero omitted, Abs format (unit mm)*
G04 Created by KiCad (PCBNEW 7.0.9) date 2023-12-07 14:08:02*
%MOMM*%
%LPD*%
G01*
G04 APERTURE LIST*
%ADD10C,0.100000*%
%ADD11C,0.200000*%
G04 APERTURE END LIST*
D10*
X5000000Y-5000000D02*
X23500000Y-5000000D01*
X23500000Y-12500000D01*
X5000000Y-12500000D01*
X5000000Y-5000000D01*
X13976000Y-5963000D02*
G75*
G03*
X13976000Y-5963000I-600000J0D01*
G01*
D11*
X5255777Y-12816484D02*
X5255777Y-12616484D01*
X5255777Y-12616484D02*
X5303396Y-12616484D01*
X5303396Y-12616484D02*
X5331967Y-12626008D01*
X5331967Y-12626008D02*
X5351015Y-12645055D01*
X5351015Y-12645055D02*
X5360539Y-12664103D01*
X5360539Y-12664103D02*
X5370063Y-12702198D01*
X5370063Y-12702198D02*
X5370063Y-12730769D01*
X5370063Y-12730769D02*
X5360539Y-12768865D01*
X5360539Y-12768865D02*
X5351015Y-12787912D01*
X5351015Y-12787912D02*
X5331967Y-12806960D01*
X5331967Y-12806960D02*
X5303396Y-12816484D01*
X5303396Y-12816484D02*
X5255777Y-12816484D01*
X5455777Y-12816484D02*
X5455777Y-12683150D01*
X5455777Y-12721246D02*
X5465301Y-12702198D01*
X5465301Y-12702198D02*
X5474824Y-12692674D01*
X5474824Y-12692674D02*
X5493872Y-12683150D01*
X5493872Y-12683150D02*
X5512920Y-12683150D01*
X5579586Y-12816484D02*
X5579586Y-12683150D01*
X5579586Y-12616484D02*
X5570063Y-12626008D01*
X5570063Y-12626008D02*
X5579586Y-12635531D01*
X5579586Y-12635531D02*
X5589110Y-12626008D01*
X5589110Y-12626008D02*
X5579586Y-12616484D01*
X5579586Y-12616484D02*
X5579586Y-12635531D01*
X5703396Y-12816484D02*
X5684348Y-12806960D01*
X5684348Y-12806960D02*
X5674824Y-12787912D01*
X5674824Y-12787912D02*
X5674824Y-12616484D01*
X5808158Y-12816484D02*
X5789110Y-12806960D01*
X5789110Y-12806960D02*
X5779586Y-12787912D01*
X5779586Y-12787912D02*
X5779586Y-12616484D01*
X6036729Y-12816484D02*
X6036729Y-12616484D01*
X6036729Y-12616484D02*
X6103396Y-12759341D01*
X6103396Y-12759341D02*
X6170062Y-12616484D01*
X6170062Y-12616484D02*
X6170062Y-12816484D01*
X6351015Y-12816484D02*
X6351015Y-12711722D01*
X6351015Y-12711722D02*
X6341491Y-12692674D01*
X6341491Y-12692674D02*
X6322443Y-12683150D01*
X6322443Y-12683150D02*
X6284348Y-12683150D01*
X6284348Y-12683150D02*
X6265301Y-12692674D01*
X6351015Y-12806960D02*
X6331967Y-12816484D01*
X6331967Y-12816484D02*
X6284348Y-12816484D01*
X6284348Y-12816484D02*
X6265301Y-12806960D01*
X6265301Y-12806960D02*
X6255777Y-12787912D01*
X6255777Y-12787912D02*
X6255777Y-12768865D01*
X6255777Y-12768865D02*
X6265301Y-12749817D01*
X6265301Y-12749817D02*
X6284348Y-12740293D01*
X6284348Y-12740293D02*
X6331967Y-12740293D01*
X6331967Y-12740293D02*
X6351015Y-12730769D01*
X6446253Y-12683150D02*
X6446253Y-12883150D01*
X6446253Y-12692674D02*
X6465301Y-12683150D01*
X6465301Y-12683150D02*
X6503396Y-12683150D01*
X6503396Y-12683150D02*
X6522443Y-12692674D01*
X6522443Y-12692674D02*
X6531967Y-12702198D01*
X6531967Y-12702198D02*
X6541491Y-12721246D01*
X6541491Y-12721246D02*
X6541491Y-12778388D01*
X6541491Y-12778388D02*
X6531967Y-12797436D01*
X6531967Y-12797436D02*
X6522443Y-12806960D01*
X6522443Y-12806960D02*
X6503396Y-12816484D01*
X6503396Y-12816484D02*
X6465301Y-12816484D01*
X6465301Y-12816484D02*
X6446253Y-12806960D01*
X6627205Y-12797436D02*
X6636729Y-12806960D01*
X6636729Y-12806960D02*
X6627205Y-12816484D01*
X6627205Y-12816484D02*
X6617682Y-12806960D01*
X6617682Y-12806960D02*
X6627205Y-12797436D01*
X6627205Y-12797436D02*
X6627205Y-12816484D01*
X6627205Y-12692674D02*
X6636729Y-12702198D01*
X6636729Y-12702198D02*
X6627205Y-12711722D01*
X6627205Y-12711722D02*
X6617682Y-12702198D01*
X6617682Y-12702198D02*
X6627205Y-12692674D01*
X6627205Y-12692674D02*
X6627205Y-12711722D01*
M02*
